<svg width="118" height="43" viewBox="0 0 118 43" fill="none" xmlns="http://www.w3.org/2000/svg">
<g clip-path="url(#clip0_39_1327)">
<path d="M12.9844 5.37503H0V36.7292L12.9844 5.37503Z" fill="#141F65"/>
<path d="M22.1201 5.37503H35.0876V36.7292L22.1201 5.37503Z" fill="#141F65"/>
<path d="M17.5529 16.931L25.8172 36.7291H20.3951L17.9251 30.4258H11.877L17.5529 16.931Z" fill="#141F65"/>
<path d="M56.2709 25.3142L57.802 29.747C57.8527 29.858 57.9288 29.9093 58.0642 29.9093H61.0079C61.1686 29.9093 61.194 29.8324 61.1686 29.6701L55.0867 12.6137C55.0613 12.477 55.0359 12.4514 54.9006 12.4514H51.2463C51.1448 12.4514 51.0856 12.5283 51.0856 12.6393C51.0348 13.5361 50.9587 13.8094 50.8487 14.0742L45.4266 29.6445C45.4012 29.8324 45.4604 29.9093 45.6127 29.9093H48.2434C48.4041 29.9093 48.4802 29.858 48.5395 29.6957L49.9859 25.3142H56.2709ZM50.8234 22.4188C51.6185 19.9931 52.6674 16.8842 53.0904 15.1077H53.1157C53.6402 16.9696 54.8752 20.6593 55.4335 22.4188H50.8234Z" fill="#141F65"/>
<path d="M68.9872 30.1741C70.569 30.1741 72.2523 29.8837 73.961 29.1407C74.0964 29.0894 74.1218 29.0296 74.1218 28.9015C74.071 28.4232 74.0118 27.7314 74.0118 27.2019V11.1447C74.0118 11.0422 74.0118 10.991 73.8849 10.991H71.0174C70.9074 10.991 70.8566 11.0422 70.8566 11.1789V16.6195C70.4083 16.5683 70.0953 16.5426 69.7231 16.5426C65.0961 16.5426 62.2539 19.626 62.2539 23.478C62.2539 27.9449 65.1722 30.1741 68.9872 30.1741V30.1741ZM70.8566 27.2019C70.3829 27.3556 69.8585 27.4154 69.3256 27.4154C67.2277 27.4154 65.5106 26.2196 65.5106 23.3157C65.5106 20.7448 67.2785 19.2245 69.6216 19.2245C70.0953 19.2245 70.5098 19.2758 70.8566 19.4124V27.2019Z" fill="#141F65"/>
<path d="M83.2699 16.5425C79.3196 16.5425 76.875 19.6002 76.875 23.3753C76.875 26.749 78.8205 30.174 83.2107 30.174C86.9242 30.174 89.5295 27.4152 89.5295 23.2899C89.5295 19.6514 87.3217 16.5425 83.2699 16.5425ZM83.1092 19.2244C85.3424 19.2244 86.2898 21.1632 86.2898 23.3753C86.2898 26.1084 84.894 27.4665 83.2699 27.4665C81.2652 27.4665 80.0809 25.7668 80.0809 23.3155C80.0809 20.7959 81.3413 19.2244 83.1092 19.2244V19.2244Z" fill="#141F65"/>
<path d="M92.4937 10.991C92.3837 10.991 92.3076 11.0422 92.3076 11.1789V29.3542C92.3076 29.4311 92.3837 29.5677 92.4937 29.5934C93.7541 29.9862 95.0737 30.1741 96.4356 30.1741C100.335 30.1741 104.125 27.7314 104.125 22.8118C104.125 19.2502 101.705 16.5426 97.9159 16.5426C97.0446 16.5426 96.2325 16.6793 95.522 16.9184L95.4882 11.2045C95.4882 11.0166 95.4374 10.991 95.2513 10.991H92.4937ZM100.885 23.1363C100.885 26.083 98.8886 27.4666 96.7316 27.4666C96.2833 27.4666 95.8857 27.441 95.522 27.33V19.5747C95.9365 19.4124 96.4356 19.2758 97.3576 19.2758C99.4385 19.2758 100.885 20.6082 100.885 23.1363Z" fill="#141F65"/>
<path d="M114.826 24.0928C116.112 24.0928 117.169 24.0671 117.533 23.9817C117.669 23.9561 117.719 23.9049 117.745 23.7938C117.821 23.5034 117.855 22.897 117.855 22.1539C117.855 19.6258 116.349 16.5425 112.458 16.5425C108.482 16.5425 106.274 19.8137 106.274 23.5034C106.274 26.7746 107.983 30.174 112.771 30.174C114.564 30.174 115.723 29.8836 116.721 29.4053C116.823 29.354 116.873 29.2686 116.873 29.1149V26.9028C116.873 26.7747 116.797 26.749 116.721 26.8003C115.723 27.2273 114.64 27.4409 113.456 27.4409C110.775 27.4409 109.556 25.9462 109.48 24.0928H114.826ZM109.48 21.8038C109.692 20.5055 110.504 19.0963 112.323 19.0963C114.327 19.0963 114.852 20.7959 114.852 21.5646C114.852 21.5902 114.852 21.7013 114.852 21.7781C114.742 21.8038 114.403 21.8038 113.405 21.8038H109.48Z" fill="#141F65"/>
</g>
<defs>
<clipPath id="clip0_39_1327">
<rect width="118" height="43" fill="white"/>
</clipPath>
</defs>
</svg>
