<svg width="48" height="48" viewBox="0 0 48 48" fill="none" xmlns="http://www.w3.org/2000/svg">
<path d="M23.0294 43.7844L23.5484 42.9078L20.9666 41.3798L20.4478 42.2564L23.0294 43.7844ZM16.4516 42.9078L16.9705 43.7844L19.5521 42.2564L19.0333 41.3798L16.4516 42.9078ZM20.4478 42.2564C20.357 42.4098 20.1984 42.5 20 42.5C19.8015 42.5 19.6429 42.4098 19.5521 42.2564L16.9705 43.7844C18.3243 46.0718 21.6756 46.0718 23.0294 43.7844L20.4478 42.2564ZM17.6 13.5H22.4V10.5H17.6V13.5ZM34.5 25.6V27.2H37.5V25.6H34.5ZM5.5 27.2V25.6H2.5V27.2H5.5ZM2.5 27.2C2.5 29.0434 2.49918 30.5008 2.5796 31.6794C2.66094 32.8714 2.83034 33.8872 3.22314 34.8356L5.99478 33.6876C5.77862 33.1656 5.64356 32.5146 5.57264 31.4752C5.50082 30.4224 5.5 29.0844 5.5 27.2H2.5ZM12.6266 37.6708C11.042 37.62 10.1809 37.4822 9.51256 37.2054L8.3645 39.977C9.55824 40.4714 10.8749 40.6162 12.5307 40.6692L12.6266 37.6708ZM3.22314 34.8356C4.18734 37.1634 6.03674 39.0128 8.3645 39.977L9.51256 37.2054C7.91988 36.5456 6.6545 35.2802 5.99478 33.6876L3.22314 34.8356ZM34.5 27.2C34.5 29.0844 34.4992 30.4224 34.4274 31.4752C34.3564 32.5146 34.2214 33.1656 34.0052 33.6876L36.7768 34.8356C37.1696 33.8872 37.339 32.8714 37.4204 31.6794C37.5008 30.5008 37.5 29.0434 37.5 27.2H34.5ZM27.4692 40.6692C29.125 40.6162 30.4418 40.4714 31.6354 39.977L30.4874 37.2054C29.819 37.4822 28.958 37.62 27.3734 37.6708L27.4692 40.6692ZM34.0052 33.6876C33.3456 35.2802 32.0802 36.5456 30.4874 37.2054L31.6354 39.977C33.9632 39.0128 35.8126 37.1634 36.7768 34.8356L34.0052 33.6876ZM22.4 13.5C25.0478 13.5 26.9282 13.5016 28.3906 13.6406C29.8308 13.7775 30.7096 14.0371 31.3962 14.4578L32.9638 11.8999C31.7266 11.1418 30.3342 10.8119 28.6746 10.6541C27.0374 10.4984 24.9898 10.5 22.4 10.5V13.5ZM37.5 25.6C37.5 23.0104 37.5016 20.9628 37.346 19.3254C37.1882 17.6658 36.8582 16.2735 36.1 15.0363L33.5422 16.6038C33.9628 17.2904 34.2224 18.1693 34.3594 19.6094C34.4984 21.0718 34.5 22.9522 34.5 25.6H37.5ZM31.3962 14.4578C32.2708 14.9938 33.0062 15.7292 33.5422 16.6038L36.1 15.0363C35.3168 13.758 34.242 12.6833 32.9638 11.8999L31.3962 14.4578ZM17.6 10.5C15.0103 10.5 12.9627 10.4984 11.3254 10.6541C9.66574 10.8119 8.27344 11.1418 7.03626 11.8999L8.60376 14.4578C9.29034 14.0371 10.1693 13.7775 11.6093 13.6406C13.0717 13.5016 14.9522 13.5 17.6 13.5V10.5ZM5.5 25.6C5.5 22.9522 5.50158 21.0718 5.64062 19.6094C5.77754 18.1693 6.0371 17.2904 6.45784 16.6038L3.89992 15.0363C3.14178 16.2735 2.8119 17.6658 2.6541 19.3254C2.49842 20.9628 2.5 23.0104 2.5 25.6H5.5ZM7.03626 11.8999C5.75798 12.6833 4.68324 13.758 3.89992 15.0363L6.45784 16.6038C6.9938 15.7292 7.72916 14.9938 8.60376 14.4578L7.03626 11.8999ZM19.0333 41.3798C18.6317 40.7012 18.2794 40.1032 17.9378 39.6328C17.5783 39.138 17.1665 38.6908 16.5964 38.3536L15.0691 40.9358C15.1613 40.9902 15.2885 41.0902 15.5105 41.3958C15.7502 41.726 16.0216 42.1814 16.4516 42.9078L19.0333 41.3798ZM12.5307 40.6692C13.4216 40.6978 13.991 40.7174 14.4236 40.7702C14.8326 40.82 14.9861 40.8866 15.0691 40.9358L16.5964 38.3536C16.0171 38.011 15.4074 37.8678 14.7869 37.7922C14.19 37.7194 13.4635 37.6976 12.6266 37.6708L12.5307 40.6692ZM23.5484 42.9078C23.9782 42.1814 24.2498 41.726 24.4894 41.3958C24.7114 41.0902 24.8386 40.9902 24.9308 40.9358L23.4036 38.3536C22.8334 38.6908 22.4216 39.138 22.0622 39.6328C21.7206 40.1032 21.3682 40.7012 20.9666 41.3798L23.5484 42.9078ZM27.3734 37.6708C26.5364 37.6976 25.81 37.7194 25.213 37.7922C24.5926 37.8678 23.9828 38.011 23.4036 38.3536L24.9308 40.9358C25.0138 40.8866 25.1674 40.82 25.5762 40.7702C26.0088 40.7174 26.5784 40.6978 27.4692 40.6692L27.3734 37.6708Z" fill="#0B55EB"/>
<path opacity="0.5" d="M26.7497 5.5H31.2497V2.5H26.7497V5.5ZM42.4997 16.7501V18.2501H45.4997V16.7501H42.4997ZM42.4997 18.2501C42.4997 20.0178 42.4989 21.2686 42.4319 22.2516C42.3657 23.2212 42.2401 23.8202 42.0431 24.2962L44.8147 25.4442C45.1885 24.5418 45.3483 23.5782 45.4249 22.4558C45.5007 21.347 45.4997 19.9768 45.4997 18.2501H42.4997ZM42.0431 24.2962C41.4341 25.7664 40.2661 26.9344 38.7959 27.5434L39.9439 30.315C42.1493 29.4016 43.9013 27.6494 44.8147 25.4442L42.0431 24.2962ZM31.2497 5.5C33.7339 5.5 35.4917 5.50158 36.8571 5.63142C38.2003 5.75912 39.0083 6.00026 39.6347 6.38416L41.2023 3.82624C40.0253 3.10494 38.7039 2.79348 37.1411 2.64488C35.6007 2.49842 33.6759 2.5 31.2497 2.5V5.5ZM45.4997 16.7501C45.4997 14.324 45.5013 12.3992 45.3549 10.8587C45.2063 9.29592 44.8949 7.97458 44.1735 6.79752L41.6157 8.36502C41.9995 8.99148 42.2407 9.79946 42.3683 11.1427C42.4983 12.5082 42.4997 14.2659 42.4997 16.7501H45.4997ZM39.6347 6.38416C40.4421 6.8789 41.1209 7.55768 41.6157 8.36502L44.1735 6.79752C43.4315 5.58652 42.4133 4.56834 41.2023 3.82624L39.6347 6.38416ZM26.7497 2.5C24.3237 2.5 22.3989 2.49842 20.8585 2.64488C19.2957 2.79348 17.9744 3.10494 16.7973 3.82624L18.3648 6.38416C18.9913 6.00026 19.7993 5.75912 21.1425 5.63142C22.5079 5.50158 24.2657 5.5 26.7497 5.5V2.5ZM16.7973 3.82624C15.5863 4.56834 14.5682 5.58652 13.8261 6.79752L16.384 8.36502C16.8787 7.55768 17.5575 6.8789 18.3648 6.38416L16.7973 3.82624ZM15.5643 12.0779C15.6642 10.1572 15.914 9.13188 16.384 8.36502L13.8261 6.79752C12.9518 8.22418 12.6749 9.87434 12.5684 11.9221L15.5643 12.0779ZM36.0497 30.9696C37.5831 30.9186 38.8187 30.7812 39.9439 30.315L38.7959 27.5434C38.1919 27.7936 37.4077 27.9228 35.9501 27.9714L36.0497 30.9696Z" fill="#0B55EB"/>
<path opacity="0.5" fill-rule="evenodd" clip-rule="evenodd" d="M11.0186 26C11.0186 24.8954 11.914 24 13.0186 24H13.0366C14.1411 24 15.0366 24.8954 15.0366 26C15.0366 27.1046 14.1411 28 13.0366 28H13.0186C11.914 28 11.0186 27.1046 11.0186 26ZM18 26C18 24.8954 18.8954 24 20 24H20.018C21.1226 24 22.018 24.8954 22.018 26C22.018 27.1046 21.1226 28 20.018 28H20C18.8954 28 18 27.1046 18 26ZM24.982 26C24.982 24.8954 25.8774 24 26.982 24H27C28.1046 24 29 24.8954 29 26C29 27.1046 28.1046 28 27 28H26.982C25.8774 28 24.982 27.1046 24.982 26Z" fill="#0B55EB"/>
</svg>
