<svg width="120" height="43" viewBox="0 0 120 43" fill="none" xmlns="http://www.w3.org/2000/svg">
<path d="M24.1031 14.9608C19.7647 14.9608 16.3748 18.28 16.3748 22.7233C16.3748 27.1666 19.679 30.4573 24.1031 30.4573C28.5272 30.4573 31.8889 27.1098 31.8889 22.6949C31.8889 18.3083 28.5847 14.9608 24.1031 14.9608ZM24.1324 27.2551C21.6618 27.2551 19.8514 25.3213 19.8514 22.7244C19.8514 20.0979 21.6325 18.1652 24.1031 18.1652C26.603 18.1652 28.4123 20.1274 28.4123 22.7244C28.4123 25.3213 26.603 27.2551 24.1324 27.2551ZM32.8364 18.3378H34.9913V30.17H38.4387V15.2493H32.8364V18.3378ZM7.69903 18.1641C9.50943 18.1641 10.9458 19.2895 11.4911 20.9632H15.1401C14.4788 17.3852 11.5486 14.9608 7.7283 14.9608C3.38987 14.9608 0 18.28 0 22.7244C0 27.1688 3.30423 30.4584 7.7283 30.4584C11.4629 30.4584 14.4506 28.0341 15.1119 24.4265H11.4911C10.974 26.1003 9.5376 27.2551 7.72723 27.2551C5.22737 27.2551 3.4755 25.3213 3.4755 22.7244C3.4766 20.0979 5.20027 18.1641 7.69903 18.1641ZM98.3376 21.2811L95.8096 20.9064C94.6033 20.7338 93.7413 20.3296 93.7413 19.3769C93.7413 18.3378 94.8623 17.8189 96.3843 17.8189C98.0506 17.8189 99.114 18.54 99.3436 19.7232H102.676C102.302 16.722 100.004 14.9619 96.471 14.9619C92.822 14.9619 90.409 16.8378 90.409 19.4927C90.409 22.0317 91.9893 23.5045 95.1776 23.9655L97.7056 24.3402C98.9416 24.5128 99.631 25.0045 99.631 25.9277C99.631 27.1109 98.4246 27.6015 96.7583 27.6015C94.718 27.6015 93.569 26.7646 93.3966 25.4951H90.0066C90.3233 28.4099 92.5923 30.4584 96.729 30.4584C100.493 30.4584 102.992 28.7268 102.992 25.754C102.992 23.0991 101.182 21.7138 98.3376 21.2811ZM36.715 9.10265C35.451 9.10265 34.5027 10.0258 34.5027 11.2954C34.5027 12.5649 35.45 13.4881 36.715 13.4881C37.979 13.4881 38.9277 12.5649 38.9277 11.2954C38.9277 10.0258 37.979 9.10265 36.715 9.10265ZM87.3063 20.3579C87.3063 17.1262 85.353 14.9619 81.216 14.9619C77.309 14.9619 75.1256 16.9536 74.6943 20.0127H78.1133C78.2856 18.8295 79.205 17.8484 81.1586 17.8484C82.9116 17.8484 83.7733 18.6274 83.7733 19.5801C83.7733 20.8212 82.1926 21.138 80.2393 21.3402C77.5963 21.6286 74.3213 22.5517 74.3213 26.0151C74.3213 28.6995 76.304 30.43 79.4643 30.43C81.9346 30.43 83.486 29.391 84.2623 27.7457C84.3773 29.2173 85.469 30.17 86.992 30.17H89.003V27.0825H87.3073V20.3579H87.3063ZM83.9163 24.1097C83.9163 26.1014 82.1926 27.573 80.095 27.573C78.802 27.573 77.7103 27.0246 77.7103 25.8709C77.7103 24.3992 79.463 23.995 81.072 23.8224C82.6233 23.6782 83.485 23.3318 83.9163 22.6676V24.1097ZM65.6163 14.9608C63.691 14.9608 62.0823 15.7693 60.9333 17.1251V8.95844H57.486V30.17H60.8757V28.2078C62.0247 29.6215 63.663 30.4584 65.6163 30.4584C69.753 30.4584 72.885 27.1688 72.885 22.7244C72.885 18.28 69.6956 14.9608 65.6163 14.9608ZM65.0993 27.2551C62.6287 27.2551 60.8183 25.3213 60.8183 22.7244C60.8183 20.1274 62.657 18.1652 65.1273 18.1652C67.6273 18.1652 69.379 20.099 69.379 22.7244C69.379 25.3213 67.5697 27.2551 65.0993 27.2551ZM49.2403 14.9608C46.9997 14.9608 45.534 15.884 44.6723 17.183V15.2493H41.253V30.1689H44.7003V22.0601C44.7003 19.78 46.1367 18.1641 48.2627 18.1641C50.2453 18.1641 51.48 19.5779 51.48 21.6275V30.17H54.9273V21.3685C54.9287 17.6157 53.0043 14.9608 49.2403 14.9608ZM119.425 22.2338C119.425 17.9631 116.322 14.9619 112.156 14.9619C107.732 14.9619 104.486 18.3095 104.486 22.7244C104.486 27.3709 107.962 30.4584 112.214 30.4584C115.805 30.4584 118.621 28.3225 119.338 25.2929H115.747C115.23 26.6203 113.966 27.3709 112.27 27.3709C110.058 27.3709 108.391 25.9856 108.018 23.5613H119.424V22.2338H119.425ZM108.22 21.079C108.767 19.001 110.318 17.9915 112.099 17.9915C114.052 17.9915 115.546 19.1168 115.891 21.079H108.22Z" fill="#141F65"/>
</svg>
