<svg width="48" height="48" viewBox="0 0 48 48" fill="none" xmlns="http://www.w3.org/2000/svg">
<path d="M24.0004 32C12.4804 32 10.4397 20.519 10.0781 11.4129C9.97758 8.87996 9.9273 7.61346 10.8787 6.44166C11.8302 5.26988 12.9689 5.07774 15.2464 4.69348C17.4945 4.31418 20.4332 4 24.0004 4C27.5674 4 30.5062 4.31418 32.7542 4.69348C35.0318 5.07774 36.1704 5.26988 37.1218 6.44166C38.0734 7.61346 38.023 8.87996 37.9224 11.4129C37.561 20.519 35.5202 32 24.0004 32Z" stroke="#0B55EB" stroke-width="3"/>
<path opacity="0.5" d="M24 32V38" stroke="#0B55EB" stroke-width="3" stroke-linecap="round"/>
<path d="M31 44H17L17.6784 40.6078C17.8654 39.673 18.6862 39 19.6396 39H28.3604C29.3138 39 30.1346 39.673 30.3216 40.6078L31 44Z" stroke="#0B55EB" stroke-width="3" stroke-linecap="round" stroke-linejoin="round"/>
<path opacity="0.5" d="M38 10L39.8972 10.6324C41.8774 11.2925 42.8674 11.6225 43.4336 12.4082C44 13.1938 44 14.2375 43.9998 16.3247V16.4697C43.9998 18.1912 43.9998 19.052 43.5854 19.7562C43.171 20.4604 42.4186 20.8784 40.9138 21.7144L35 25" stroke="#0B55EB" stroke-width="3"/>
<path opacity="0.5" d="M9.99988 10L8.10264 10.6324C6.12252 11.2925 5.13246 11.6225 4.5662 12.4082C3.99992 13.1938 3.99994 14.2375 4 16.3247V16.4697C4.00006 18.1912 4.00008 19.052 4.41446 19.7562C4.82882 20.4604 5.58126 20.8784 7.0861 21.7144L12.9999 25" stroke="#0B55EB" stroke-width="3"/>
<path d="M22.2918 12.045C23.0518 10.6817 23.4318 10 24 10C24.5682 10 24.9482 10.6817 25.7082 12.045L25.9048 12.3977C26.1206 12.7852 26.2286 12.9789 26.397 13.1067C26.5654 13.2345 26.775 13.2819 27.1944 13.3768L27.5762 13.4632C29.052 13.7971 29.79 13.9641 29.9656 14.5286C30.1412 15.0932 29.638 15.6814 28.632 16.858L28.3716 17.1623C28.0858 17.4967 27.9428 17.6638 27.8784 17.8706C27.8142 18.0774 27.8358 18.3005 27.879 18.7465L27.9184 19.1526C28.0704 20.7224 28.1466 21.5072 27.687 21.8562C27.2272 22.205 26.5364 21.887 25.1546 21.2508L24.7972 21.0862C24.4044 20.9054 24.2082 20.815 24 20.815C23.7918 20.815 23.5956 20.9054 23.2028 21.0862L22.8454 21.2508C21.4636 21.887 20.7728 22.205 20.313 21.8562C19.8535 21.5072 19.9295 20.7224 20.0816 19.1526L20.121 18.7465C20.1642 18.3005 20.1858 18.0774 20.1216 17.8706C20.0572 17.6638 19.9143 17.4967 19.6284 17.1623L19.3681 16.858C18.3619 15.6814 17.8589 15.0932 18.0345 14.5286C18.21 13.9641 18.9479 13.7971 20.4238 13.4632L20.8056 13.3768C21.225 13.2819 21.4346 13.2345 21.603 13.1067C21.7714 12.9789 21.8794 12.7852 22.0952 12.3977L22.2918 12.045Z" stroke="#0B55EB" stroke-width="3"/>
<path opacity="0.5" d="M36 44H12" stroke="#0B55EB" stroke-width="3" stroke-linecap="round"/>
</svg>
