<svg width="48" height="48" viewBox="0 0 48 48" fill="none" xmlns="http://www.w3.org/2000/svg">
<path d="M24 44C35.0457 44 44 35.0457 44 24C44 12.9543 35.0457 4 24 4C12.9543 4 4 12.9543 4 24C4 35.0457 12.9543 44 24 44Z" stroke="#0B55EB" stroke-width="3"/>
<path opacity="0.5" d="M12 9.42106C13.5605 10.8421 16.7751 14.7263 17.1496 18.8947C17.4997 22.791 20.0714 25.9572 24 26C25.5098 26.0164 27.0366 24.9258 27.0328 23.416C27.0316 22.949 26.9546 22.4716 26.834 22.0326C26.6662 21.4216 26.6514 20.719 27 20C28.2198 17.4851 30.6188 16.8095 32.5198 15.4437C33.3628 14.838 34.1318 14.1989 34.471 13.6842C35.4074 12.2632 36.3436 9.42106 35.8754 8" stroke="#0B55EB" stroke-width="3"/>
<path opacity="0.5" d="M44 26C43.3412 27.862 42.875 32.75 35.4364 32.8276C35.4364 32.8276 28.8492 32.8276 26.873 36.5518C25.292 39.531 26.2142 42.7586 26.873 44" stroke="#0B55EB" stroke-width="3"/>
</svg>
