<svg width="317" height="299" viewBox="0 0 317 299" fill="none" xmlns="http://www.w3.org/2000/svg">
<g style="mix-blend-mode:multiply" opacity="0.2">
<path d="M33.719 218.774L186.341 130.638C188.074 129.655 190.228 129.655 191.961 130.638L279.582 180.888C283.329 183.042 283.329 188.428 279.582 190.629L247.128 209.548C243.428 211.703 243.428 217.088 247.128 219.242L265.626 230.06C269.373 232.261 269.326 237.741 265.486 239.848L159.507 298.2C157.774 299.136 155.667 299.136 153.981 298.153L33.6722 228.562C29.9257 226.407 29.9257 220.975 33.6722 218.821L33.719 218.774Z" fill="#15325C"/>
</g>
<path d="M317.001 192.923L316.86 192.83C316.813 192.923 316.72 193.017 316.579 193.111L272.839 218.353C272.698 218.4 272.605 218.446 272.464 218.446C272.324 218.446 272.136 218.446 271.996 218.353L260.85 211.796C260.522 211.609 260.429 211.281 260.429 210.953V203.46L266.095 207.301L272.464 203.648L304.497 185.15C304.778 185.009 305.106 185.009 305.34 185.15L309.32 187.444L316.954 185.009V192.877L317.001 192.923Z" fill="#D6EDFF"/>
<path d="M272.464 203.601V218.446C272.324 218.446 272.136 218.446 271.996 218.353L260.85 211.796C260.522 211.609 260.429 211.281 260.429 210.953V203.46L266.095 207.3L272.464 203.648V203.601Z" fill="#BBE0FD"/>
<path d="M260.85 204.256L271.996 210.813C272.277 210.953 272.605 210.953 272.839 210.813L316.579 185.571C317.141 185.243 317.141 184.447 316.579 184.119L305.34 177.61C305.059 177.469 304.731 177.469 304.497 177.61L260.897 202.805C260.335 203.132 260.335 203.929 260.897 204.256H260.85Z" fill="white"/>
<path d="M260.85 204.069L271.996 210.625C272.277 210.766 272.605 210.766 272.839 210.625L316.579 185.384C317.141 185.056 317.141 184.26 316.579 183.932L305.34 177.422C305.059 177.282 304.731 177.282 304.497 177.422L260.897 202.617C260.335 202.945 260.335 203.741 260.897 204.069H260.85Z" fill="white"/>
<path d="M299.766 174.753L299.626 174.659C299.579 174.753 299.485 174.847 299.345 174.94L255.605 200.182C255.464 200.229 255.371 200.276 255.23 200.276C255.09 200.276 254.902 200.276 254.762 200.182L243.616 193.626C243.288 193.439 243.194 193.111 243.194 192.783V185.29L248.861 189.13L255.23 185.477L287.262 166.979C287.543 166.839 287.871 166.839 288.105 166.979L292.086 169.274L299.72 166.839V174.706L299.766 174.753Z" fill="#D6EDFF"/>
<path d="M255.23 185.431V200.276C255.09 200.276 254.902 200.276 254.762 200.182L243.616 193.626C243.288 193.439 243.194 193.111 243.194 192.783V185.29L248.861 189.13L255.23 185.477V185.431Z" fill="#BBE0FD"/>
<path d="M243.616 186.086L254.762 192.643C255.043 192.783 255.37 192.783 255.605 192.643L299.345 167.401C299.907 167.073 299.907 166.277 299.345 165.949L288.105 159.439C287.824 159.299 287.497 159.299 287.262 159.439L243.663 184.634C243.101 184.962 243.101 185.758 243.663 186.086H243.616Z" fill="white"/>
<path d="M243.615 185.852L254.761 192.408C255.042 192.549 255.369 192.549 255.604 192.408L299.344 167.166C299.906 166.838 299.906 166.042 299.344 165.715L288.104 159.205C287.823 159.064 287.496 159.064 287.261 159.205L243.662 184.4C243.1 184.728 243.1 185.524 243.662 185.852H243.615Z" fill="white"/>
<path d="M282.392 135.227V153.96C282.251 155.693 281.361 157.332 279.629 158.362L247.222 177.282C243.522 179.436 243.475 184.821 247.222 186.976L257.431 192.97L261.13 184.915L268.483 186.273V202.055C268.483 202.477 268.53 202.898 268.483 203.32C268.295 205.006 267.359 206.692 265.626 207.628L257.243 212.264L255.604 213.154L253.637 214.231L251.343 215.496L159.601 265.98C158.242 266.729 156.603 266.869 155.152 266.401C154.777 266.261 154.449 266.12 154.121 265.933L91.6019 229.779L89.3072 228.468L87.3403 227.344L85.748 226.407L33.8124 196.389C32.3138 195.546 31.4241 194.141 31.1431 192.642C31.0026 191.893 30.9558 191.144 31.1431 190.394L31.0493 173.582L40.6029 182.808L109.445 143.048L186.482 98.5586C188.214 97.5752 190.369 97.5752 192.101 98.5586L270.028 143.235L275.554 136.164L282.532 135.368L282.392 135.227Z" fill="#D6EDFF"/>
<path d="M155.058 142.861V266.307C154.683 266.167 154.356 266.026 154.028 265.839L91.5083 229.686L89.2136 228.374L87.2466 227.25L85.6544 226.314L33.7188 196.295C32.2202 195.452 31.3303 194.047 31.0493 192.549C30.9088 191.799 30.862 191.05 31.0493 190.301L30.9557 173.488L40.5093 182.714L109.351 142.955H155.105L155.058 142.861Z" fill="#BBE0FD"/>
<path d="M33.719 169.461L186.341 81.325C188.074 80.3415 190.228 80.3415 191.961 81.325L279.582 131.575C283.329 133.729 283.329 139.115 279.582 141.316L247.128 160.235C243.428 162.39 243.428 167.775 247.128 169.929L265.626 180.747C269.373 182.948 269.326 188.428 265.486 190.535L159.507 248.887C157.774 249.823 155.667 249.823 153.981 248.84L33.6722 179.249C29.9257 177.095 29.9257 171.662 33.6722 169.508L33.719 169.461Z" fill="white"/>
<path d="M228.442 210.719L228.677 227.625L245.114 218.587L244.88 201.681L228.442 210.719Z" fill="white"/>
<path d="M216.688 217.369V234.416L221.652 231.699V214.653L216.688 217.369Z" fill="white"/>
<g style="mix-blend-mode:multiply" opacity="0.3">
<path d="M132.392 126.798L97.643 146.607C96.8469 147.076 96.8469 148.2 97.643 148.668L125.367 164.731C125.976 165.059 126.725 165.059 127.334 164.731L162.223 144.594C162.879 144.219 162.879 143.236 162.223 142.861L134.405 126.798C133.797 126.47 133.047 126.47 132.485 126.798H132.392Z" fill="#15325C"/>
</g>
<path d="M138.761 121.365L119.935 132.324L118.015 131.434C118.202 131.106 118.436 130.872 118.764 130.685L135.67 120.85C136.232 120.523 136.888 120.523 137.45 120.757L138.761 121.365Z" fill="#A34B73"/>
<path d="M157.259 142.533V139.489L155.105 140.847L133.609 128.437C133.094 128.156 132.485 128.156 131.97 128.437L104.574 144.078L102.42 142.814V146.139H102.467C102.514 146.326 102.701 146.56 102.935 146.701L126.07 160.095C126.585 160.376 127.194 160.376 127.709 160.095L156.791 143.282C157.072 143.095 157.212 142.814 157.212 142.533H157.259Z" fill="#183561"/>
<path d="M132.016 125.159L103.028 141.69C102.372 142.065 102.372 143.001 103.028 143.423L126.162 156.817C126.677 157.098 127.286 157.098 127.801 156.817L156.884 140.004C157.446 139.676 157.446 138.88 156.884 138.552L133.655 125.159C133.14 124.878 132.531 124.878 132.016 125.159Z" fill="#D6EFFB"/>
<path d="M139.931 119.539L137.637 136.586L122.136 149.23L119.841 147.919C119.56 147.778 119.279 147.544 119.138 147.263C118.998 146.982 118.857 146.654 118.857 146.327V130.591C118.857 130.217 118.998 129.842 119.185 129.514C119.373 129.186 119.607 128.952 119.935 128.765L136.841 118.93C137.403 118.603 138.058 118.603 138.62 118.837L139.931 119.446V119.539Z" fill="#183561"/>
<path d="M141.852 118.836L141.805 137.85L122.089 149.23V130.31L141.852 118.836Z" fill="#3C6A9E"/>
<path d="M174.539 1.19703L179.129 3.67907L172.291 95.2338L77.5521 156.817L73.8056 154.803C72.869 154.288 72.0729 153.538 71.5577 152.649C71.0426 151.759 70.7148 150.729 70.7148 149.651V62.0774C70.7148 61.2813 70.9489 60.4851 71.3236 59.8295C71.6982 59.1739 72.2602 58.5651 72.9626 58.1904L170.043 1.33751C170.652 1.0097 171.308 0.775547 171.964 0.728716C172.853 0.635054 173.743 0.822367 174.539 1.24385V1.19703Z" fill="#A9D1EA"/>
<path d="M179.128 3.6792V98.8867L77.5518 156.77V63.1078L179.128 3.6792Z" fill="#D6EFFB"/>
<path d="M177.022 15.1995V91.5809L164.986 98.4182L161.38 100.479L136.7 114.528L123.026 122.302L101.577 134.572L80.7373 146.467V71.584L101.156 59.6421L112.161 53.1794L129.629 42.9703L150.562 30.7005L163.628 23.0202L173.182 17.4473L177.022 15.1995Z" fill="#183561"/>
<g style="mix-blend-mode:multiply" opacity="0.3">
<path d="M228.02 162.155L191.117 140.66C190.368 140.238 189.478 140.238 188.776 140.66L109.257 186.414C107.711 187.304 107.665 189.598 109.257 190.488L144.006 210.532C146.3 211.843 149.11 211.843 151.358 210.532L228.067 166.23C228.957 165.714 229.378 164.731 229.191 163.841C229.097 163.186 228.723 162.577 228.067 162.202L228.02 162.155Z" fill="#15325C"/>
</g>
<path d="M228.957 156.255L189.9 135.649L109.912 179.155C108.835 179.717 108.133 180.841 108.133 182.059V183.323C108.086 183.979 108.227 184.587 108.508 185.103C108.789 185.665 109.257 186.133 109.819 186.461L145.083 206.832C146.628 207.722 148.548 207.722 150.094 206.832L227.505 162.108C227.974 161.827 228.348 161.453 228.582 161.031C228.863 160.563 229.004 160.048 229.004 159.486V156.208L228.957 156.255Z" fill="#A9D1EA"/>
<path d="M228.02 155.318L191.117 133.822C190.368 133.401 189.478 133.401 188.776 133.822L109.257 179.576C107.711 180.466 107.665 182.761 109.257 183.651L144.006 203.694C146.3 205.006 149.11 205.006 151.358 203.694L228.067 159.392C228.957 158.877 229.378 157.894 229.191 157.004C229.097 156.348 228.723 155.739 228.067 155.365L228.02 155.318Z" fill="#D6EFFB"/>
<path d="M222.167 159.018L186.997 138.552L115.767 179.53L151.218 199.995L222.167 159.018Z" fill="#77B8E0"/>
<path d="M198.844 159.954L190.695 164.59L184.561 161.078L192.709 156.395L198.844 159.954Z" fill="#D6EDFF"/>
<path d="M206.29 164.216L198.142 168.899L192.007 165.34L200.155 160.704L206.29 164.216Z" fill="#D6EDFF"/>
<path d="M189.432 165.34L181.283 170.023L175.148 166.511L183.25 161.828L189.432 165.34Z" fill="#D6EDFF"/>
<path d="M181.986 161.078L173.837 165.761L167.702 162.202L175.804 157.566L181.986 161.078Z" fill="#D6EDFF"/>
<path d="M154.354 187.022L162.456 182.339L168.591 185.899L160.489 190.535L154.354 187.022Z" fill="#D6EDFF"/>
<path d="M163.769 181.59L190.696 166.089L196.878 169.648L169.903 185.149L163.769 181.59Z" fill="#D6EDFF"/>
<path d="M193.975 155.646L202.03 151.057L208.118 154.616L200.156 159.205L193.975 155.646Z" fill="#D6EDFF"/>
<path d="M146.909 182.761L155.011 178.078L161.146 181.59L153.044 186.273L146.909 182.761Z" fill="#D6EDFF"/>
<path d="M186.528 151.384L194.63 146.748L200.718 150.307L192.71 154.897L186.528 151.384Z" fill="#D6EDFF"/>
<path d="M172.526 166.511L164.424 171.147L158.289 167.635L166.391 162.951L172.526 166.511Z" fill="#D6EDFF"/>
<path d="M179.972 170.772L171.87 175.455L165.735 171.896L173.837 167.26L179.972 170.772Z" fill="#D6EDFF"/>
<path d="M148.876 173.067L156.978 168.384L163.113 171.896L155.011 176.579L148.876 173.067Z" fill="#D6EDFF"/>
<path d="M156.322 177.329L164.424 172.646L170.559 176.205L162.457 180.841L156.322 177.329Z" fill="#D6EDFF"/>
<path d="M137.496 188.147L145.598 183.51L151.733 187.023L143.631 191.706L137.496 188.147Z" fill="#D6EDFF"/>
<path d="M144.942 192.455L153.044 187.772L159.179 191.284L151.077 195.967L144.942 192.455Z" fill="#D6EDFF"/>
<path d="M130.05 183.885L138.152 179.202L144.286 182.761L136.185 187.397L130.05 183.885Z" fill="#D6EDFF"/>
<path d="M122.604 179.576L130.705 174.94L136.84 178.453L128.738 183.136L122.604 179.576Z" fill="#D6EDFF"/>
<path d="M207.555 163.467L201.42 159.954L209.428 155.365L215.516 158.924L207.555 163.467Z" fill="#D6EDFF"/>
<path d="M185.264 150.635L179.082 147.076L187.231 142.439L187.699 142.72L193.319 145.999L185.264 150.635Z" fill="#D6EDFF"/>
<path d="M132.017 174.191L140.118 169.508L146.253 173.067L138.152 177.703L132.017 174.191Z" fill="#D6EDFF"/>
<path d="M155.666 167.635L147.564 172.318L141.43 168.759L149.531 164.075L155.666 167.635Z" fill="#D6EDFF"/>
<path d="M139.463 178.453L147.565 173.816L153.7 177.329L145.598 182.012L139.463 178.453Z" fill="#D6EDFF"/>
<path d="M165.079 162.202L156.978 166.885L150.843 163.326L158.945 158.69L165.079 162.202Z" fill="#D6EDFF"/>
<path d="M183.952 151.384L175.804 156.02L169.669 152.508L177.818 147.825L183.952 151.384Z" fill="#D6EDFF"/>
<path d="M174.539 156.817L166.391 161.453L160.256 157.941L168.404 153.258L174.539 156.817Z" fill="#D6EDFF"/>
<path d="M191.399 155.646L183.25 160.329L177.115 156.817L185.264 152.134L191.399 155.646Z" fill="#D6EDFF"/>
<path d="M208.96 132.746C209.054 133.12 209.288 133.542 209.756 134.057C212.238 136.867 219.918 141.222 225.913 142.627C228.488 143.236 230.736 143.283 232.188 142.44C237.012 139.536 236.075 130.826 226.381 126.985C216.734 123.098 208.023 127.969 208.96 132.792V132.746Z" fill="#183561"/>
<g style="mix-blend-mode:multiply" opacity="0.3">
<path d="M209.709 134.057C212.191 136.867 219.871 141.222 225.866 142.627C221.932 133.495 213.877 133.401 209.709 134.057Z" fill="#15325C"/>
</g>
<g style="mix-blend-mode:multiply" opacity="0.3">
<path d="M220.012 127.828L211.396 127.688C216.36 125.674 220.012 127.828 220.012 127.828Z" fill="#15325C"/>
</g>
<path d="M154.074 63.9038L154.027 67.9781L125.882 84.3221L126.022 80.1074L154.074 63.9038Z" fill="#FEC400"/>
<path d="M139.978 97.9966L139.932 102.071L111.786 118.415L111.927 114.2L139.978 97.9966Z" fill="white"/>
<path d="M122.651 82.1211V86.1017L112.067 92.2366V88.3028L122.651 82.1211Z" fill="#F02098"/>
<path d="M149.485 84.1816V88.1623L138.901 94.2972V90.3633L149.485 84.1816Z" fill="#F02098"/>
<path d="M152.95 91.3V95.2339L142.366 101.369V97.4349L152.95 91.3Z" fill="white"/>
<path d="M165.174 84.1816V88.1623L154.59 94.2972V90.3633L165.174 84.1816Z" fill="white"/>
<path d="M136.654 82.1211L112.067 96.3109V100.432L136.701 86.1017L136.654 82.1211Z" fill="white"/>
<path d="M136.654 90.7847L112.067 104.974V109.049L136.701 94.7185L136.654 90.7847Z" fill="white"/>
<g style="mix-blend-mode:multiply" opacity="0.3">
<path d="M192.944 120.335C202.539 120.335 210.318 115.806 210.318 110.22C210.318 104.633 202.539 100.104 192.944 100.104C183.348 100.104 175.569 104.633 175.569 110.22C175.569 115.806 183.348 120.335 192.944 120.335Z" fill="#15325C"/>
</g>
<path d="M175.569 100.292C175.569 105.865 183.343 110.407 192.944 110.407C202.544 110.407 197.72 110.126 199.828 109.564C200.249 109.471 200.624 109.33 200.999 109.236C201.42 109.096 201.795 108.955 202.169 108.815C203.481 108.347 204.698 107.738 205.728 107.082C208.538 105.303 210.271 102.867 210.271 100.245V95.7022H208.445C207.742 94.8593 206.806 94.11 205.728 93.4075C204.698 92.7519 203.481 92.1431 202.169 91.6748C201.795 91.5343 201.373 91.3938 200.999 91.2533C200.624 91.1128 200.202 91.0191 199.828 90.9255C197.72 90.4103 195.379 90.0825 192.944 90.0825C186.153 90.0825 180.252 92.3304 177.396 95.6554H175.569V100.058C175.569 100.058 175.569 100.151 175.569 100.198V100.292Z" fill="#E8A302"/>
<path d="M192.931 107.068C202.527 107.051 210.297 102.508 210.288 96.9218C210.278 91.3352 202.491 86.8199 192.896 86.8366C183.3 86.8534 175.529 91.3958 175.539 96.9824C175.549 102.569 183.336 107.084 192.931 107.068Z" fill="#FEC400"/>
<path d="M192.943 105.209C201.065 105.209 207.648 101.372 207.648 96.6389C207.648 91.9058 201.065 88.0688 192.943 88.0688C184.822 88.0688 178.238 91.9058 178.238 96.6389C178.238 101.372 184.822 105.209 192.943 105.209Z" fill="#FFD561"/>
<path d="M189.9 102.961C189.338 102.961 188.822 102.54 188.729 101.978C188.635 101.322 189.057 100.713 189.712 100.619L194.395 99.8702L192.756 90.5508C192.663 89.8951 193.084 89.2863 193.74 89.1927C194.395 89.099 195.004 89.5205 195.098 90.1761L197.112 101.884L190.04 103.008C189.993 103.008 189.9 103.008 189.853 103.008L189.9 102.961Z" fill="white"/>
<g style="mix-blend-mode:multiply" opacity="0.3">
<path d="M154.448 238.068C164.044 238.068 171.823 233.54 171.823 227.953C171.823 222.366 164.044 217.837 154.448 217.837C144.853 217.837 137.074 222.366 137.074 227.953C137.074 233.54 144.853 238.068 154.448 238.068Z" fill="#15325C"/>
</g>
<path d="M137.074 218.025C137.074 223.597 144.848 228.14 154.448 228.14C164.049 228.14 159.225 227.859 161.333 227.297C161.754 227.203 162.129 227.063 162.504 226.969C162.925 226.829 163.3 226.688 163.674 226.548C164.986 226.08 166.203 225.471 167.233 224.815C170.043 223.036 171.776 220.6 171.776 217.978V213.435H169.95C169.247 212.592 168.31 211.843 167.233 211.14C166.203 210.485 164.986 209.876 163.674 209.408C163.3 209.267 162.878 209.127 162.504 208.986C162.129 208.846 161.707 208.752 161.333 208.658C159.225 208.143 156.884 207.815 154.448 207.815C147.658 207.815 141.757 210.063 138.901 213.388H137.074V217.79C137.074 217.79 137.074 217.884 137.074 217.931V218.025Z" fill="#E8A302"/>
<path d="M154.408 224.774C164.003 224.757 171.774 220.215 171.764 214.628C171.755 209.041 163.968 204.526 154.372 204.543C144.777 204.56 137.006 209.102 137.016 214.689C137.025 220.275 144.812 224.791 154.408 224.774Z" fill="#FEC400"/>
<path d="M154.449 222.942C162.57 222.942 169.154 219.105 169.154 214.372C169.154 209.639 162.57 205.802 154.449 205.802C146.328 205.802 139.744 209.639 139.744 214.372C139.744 219.105 146.328 222.942 154.449 222.942Z" fill="#FFD561"/>
<path d="M151.404 220.694C150.842 220.694 150.327 220.273 150.234 219.711C150.14 219.055 150.562 218.446 151.217 218.353L155.9 217.603L154.261 208.284C154.168 207.628 154.589 207.019 155.245 206.926C155.9 206.832 156.509 207.254 156.603 207.909L158.617 219.617L151.545 220.741C151.498 220.741 151.405 220.741 151.358 220.741L151.404 220.694Z" fill="white"/>
<path d="M40.3213 139.957V167.775L42.0073 168.712L87.2929 139.957L88.9788 113.591L87.2929 112.655L40.3213 139.957Z" fill="#183561"/>
<path d="M42.0068 140.941V168.712L88.9784 140.941V113.592L42.0068 140.941Z" fill="#A9D1EA"/>
<path d="M54.8865 140.191L56.2914 139.348V136.913L54.8865 137.709L51.8893 139.489L46.3633 142.72V145.155L51.8893 141.924L54.8865 140.191Z" fill="#FEC400"/>
<path d="M54.6055 146.373V143.938L51.8893 145.53L46.3633 148.761V151.197L51.8893 147.965L54.6055 146.373Z" fill="white"/>
<path d="M51.8893 155.318L46.3633 158.549V160.985L51.8893 157.753L54.8865 155.974L59.1013 153.538V151.056L54.8865 153.538L51.8893 155.318Z" fill="#FEC400"/>
<path d="M63.0816 143.891L59.616 145.905L54.8861 148.668L52.123 150.26V152.695L54.8861 151.103L59.616 148.34L63.0816 146.326V143.891Z" fill="white"/>
<path d="M51.3742 150.682L46.3633 153.632V156.067L51.3742 153.164V150.682Z" fill="white"/>
<path d="M55.3545 145.952L59.616 143.423L65.2827 140.098L68.0456 138.506V136.07L65.2827 137.663L59.616 140.988L55.3545 143.516V145.952Z" fill="#77B8E0"/>
<path d="M71.4176 134.103L68.8887 135.555V138.037L71.4176 136.539L85.0454 128.765V126.329L71.4176 134.103Z" fill="white"/>
<path d="M63.8311 143.423V145.858L65.2829 145.015L68.8421 142.955L71.4178 141.456L76.0071 138.787V136.351L71.4178 138.974L68.8421 140.519L65.2829 142.58L63.8311 143.423Z" fill="white"/>
<path d="M76.8496 138.318L85.045 133.682V131.247L76.8496 135.883V138.318Z" fill="white"/>
<path d="M73.5254 145.156L85.0458 138.552V136.117L73.5254 142.674V145.156Z" fill="#77B8E0"/>
<path d="M68.8422 145.39L65.283 147.45L59.8506 150.635V153.07L65.283 149.886L68.8422 147.825L71.4179 146.326L72.6824 145.624V143.189L71.4179 143.891L68.8422 145.39Z" fill="white"/>
<g style="mix-blend-mode:multiply" opacity="0.3">
<path d="M57.3684 182.714L78.7233 170.21C79.3321 169.882 80.0346 169.835 80.6434 170.21L102.654 182.714C103.965 183.463 103.965 185.336 102.654 186.039L81.018 198.543C80.4092 198.871 79.7067 198.871 79.0979 198.543L57.4151 186.039C56.1507 185.29 56.1507 183.463 57.4151 182.714H57.3684Z" fill="#15325C"/>
</g>
<path d="M97.1744 174.612L80.2215 184.4L80.0342 194.281L97.0339 184.634L97.1744 174.612Z" fill="#A9D1EA"/>
<path d="M63.2686 174.612L79.9872 164.825L97.1743 174.612L80.2214 184.4L63.2686 174.612Z" fill="#BBE0FD"/>
<path d="M70.6211 174.612L79.8937 169.133L89.494 174.612L80.0342 180.045L70.6211 174.612Z" fill="#15325C"/>
<path d="M63.2686 184.634V174.612L80.2214 184.4L80.0341 194.281L63.2686 184.634Z" fill="#77B8E0"/>
<path d="M88.1363 170.351C87.2934 171.615 86.1226 172.88 84.4835 173.91C80.6902 176.954 73.8997 176.205 71.9796 172.552C71.9796 172.552 68.7951 169.929 69.3103 165.387C70.1532 167.634 72.0733 168.993 72.3074 169.133C69.1697 166.464 71.1835 158.69 71.1835 158.69C71.1835 158.69 71.9328 162.202 75.1173 164.871C75.1173 164.871 74.1339 159.673 75.3983 154.662C76.0071 152.18 77.1779 149.745 79.2384 148.059C78.3487 156.02 82.423 161.031 82.423 161.031C85.0455 157.847 84.4366 153.21 84.4366 153.21C84.4366 153.21 88.23 160.516 86.4973 166.042C88.8856 165.152 90.2437 162.998 90.2437 162.998C90.2437 162.998 90.4779 166.745 88.0895 170.304L88.1363 170.351Z" fill="#77B8E0"/>
<g style="mix-blend-mode:multiply" opacity="0.3">
<path d="M88.1363 170.351C87.2934 171.615 86.1226 172.88 84.4835 173.91C83.5937 174.659 82.4697 175.174 81.299 175.455C77.693 176.392 73.4314 175.315 71.9796 172.552C71.9796 172.552 68.7951 169.929 69.3103 165.387C70.1532 167.635 72.0733 168.993 72.3074 169.133C69.1697 166.464 71.1835 158.69 71.1835 158.69C71.1835 158.69 71.5113 160.142 72.5416 161.874C73.1036 162.858 73.9465 163.888 75.0704 164.825C75.0704 164.825 74.087 159.626 75.3514 154.615C75.3514 165.761 81.0648 170.444 88.0895 170.304L88.1363 170.351Z" fill="#77B8E0"/>
</g>
<g style="mix-blend-mode:multiply" opacity="0.3">
<path d="M81.346 175.455C77.74 176.392 73.4783 175.315 72.0265 172.552C72.0265 172.552 68.842 169.929 69.3572 165.387C70.2001 167.634 72.1203 168.993 72.3544 169.133C69.2167 166.464 71.2304 158.69 71.2304 158.69C71.2304 158.69 71.5583 160.141 72.5886 161.874C73.6657 169.882 78.1146 173.722 81.2991 175.455H81.346Z" fill="#77B8E0"/>
</g>
<path d="M77.3179 166.885C77.7394 167.541 78.3482 168.197 79.1912 168.712C81.1581 170.304 84.6704 169.883 85.6539 168.009C85.6539 168.009 87.2929 166.651 87.012 164.263C86.5905 165.434 85.5603 166.136 85.4666 166.23C87.1057 164.872 86.0753 160.797 86.0753 160.797C86.0753 160.797 85.7008 162.624 84.0617 163.982C84.0617 163.982 84.5768 161.266 83.9212 158.69C83.5934 157.425 82.9845 156.161 81.9074 155.271C82.3757 159.392 80.2683 162.015 80.2683 162.015C78.9102 160.376 79.2381 157.941 79.2381 157.941C79.2381 157.941 77.2711 161.734 78.1609 164.591C76.9433 164.122 76.1941 162.998 76.1941 162.998C76.1941 162.998 76.1003 164.965 77.3179 166.792V166.885Z" fill="#77B8E0"/>
<g style="mix-blend-mode:multiply" opacity="0.3">
<path d="M77.3174 166.885C77.7389 167.541 78.3477 168.197 79.1906 168.712C79.6589 169.086 80.2209 169.367 80.8297 169.508C82.703 170.023 84.904 169.414 85.6533 168.009C85.6533 168.009 87.2924 166.651 87.0114 164.263C86.5899 165.434 85.5597 166.136 85.4661 166.23C87.1051 164.872 86.0748 160.797 86.0748 160.797C86.0748 160.797 85.8874 161.547 85.3723 162.436C85.0913 162.952 84.6231 163.514 84.0611 163.982C84.0611 163.982 84.5762 161.266 83.9206 158.69C83.9206 164.497 80.9702 166.932 77.3174 166.839V166.885Z" fill="#77B8E0"/>
</g>
<g style="mix-blend-mode:multiply" opacity="0.3">
<path d="M80.8301 169.555C82.7033 170.07 84.9044 169.461 85.6537 168.056C85.6537 168.056 87.2927 166.698 87.0118 164.31C86.5903 165.48 85.5601 166.183 85.4664 166.276C87.1055 164.918 86.0751 160.844 86.0751 160.844C86.0751 160.844 85.8878 161.593 85.3727 162.483C84.8107 166.651 82.516 168.618 80.8301 169.508V169.555Z" fill="#77B8E0"/>
</g>
<path d="M65.1419 127.454H63.4561V115.933L98.6261 95.3276L99.4691 96.8262L65.1419 116.917V127.454Z" fill="#183561"/>
<path d="M166.999 81.0909L166.484 80.1543L190.368 66.5733V51.5405H191.445V67.2289L166.999 81.0909Z" fill="#183561"/>
<path d="M232.891 49.7608C233.5 47.0914 234.858 45.1246 236.872 44.4689C239.026 43.7665 241.508 44.7967 243.615 46.9978C244.599 43.4386 246.613 40.8161 249.376 39.9731C255.417 38.0531 263.003 44.9372 266.282 55.3337C266.469 55.9425 266.656 56.5982 266.797 57.207C270.028 58.1904 273.306 62.0774 274.945 67.2756C275.695 69.6172 276.023 71.9587 275.929 74.0193L276.257 74.2066C278.832 75.6584 280.378 78.4214 280.378 81.3718C280.378 87.694 273.54 91.6746 268.061 88.5369L227.131 65.0746C224.555 63.6228 223.01 60.8598 223.01 57.9094C223.01 52.5238 227.974 48.8242 232.844 49.8077L232.891 49.7608Z" fill="white"/>
<path d="M34.7954 107.316C34.3739 105.349 33.3436 103.898 31.8919 103.429C30.2996 102.914 28.5201 103.663 26.9279 105.256C26.1786 102.633 24.7268 100.76 22.7131 100.104C18.2641 98.6993 12.738 103.757 10.3496 111.344C10.2091 111.812 10.0686 112.28 9.97492 112.702C7.58654 113.404 5.19825 116.261 3.98064 120.054C3.41867 121.787 3.23134 123.473 3.27817 124.972L3.04402 125.112C1.17078 126.189 0 128.203 0 130.357C0 134.993 5.01083 137.897 9.0383 135.602L38.9634 118.415C40.8367 117.338 42.0074 115.324 42.0074 113.17C42.0074 109.236 38.3545 106.52 34.7954 107.269V107.316Z" fill="white"/>
<path d="M100.733 72.8956L102.934 71.5843V67.7441L100.733 69.0086L96.0036 71.7716L87.293 76.923V80.7632L96.0036 75.6586L100.733 72.8956Z" fill="#FEC400"/>
<path d="M100.265 82.6832V78.843L96.0036 81.3251L87.293 86.4297V90.3166L96.0036 85.212L100.265 82.6832Z" fill="white"/>
<path d="M96.0036 96.8262L87.293 101.931V105.818L96.0036 100.666L100.733 97.9034L107.43 94.0164V90.1294L100.733 94.0632L96.0036 96.8262Z" fill="#FEC400"/>
<path d="M113.659 78.7495L108.226 81.934L100.733 86.2893L96.4248 88.865V92.7052L100.733 90.1763L108.226 85.821L113.659 82.5897V78.7495Z" fill="white"/>
<path d="M95.2074 89.5205L87.293 94.2036V98.0438L95.2074 93.4075V89.5205Z" fill="white"/>
<path d="M171.589 27.3287V67.0882L172.666 67.978L206.619 47.0914L207.742 8.26841L206.619 7.33179L171.589 27.3287Z" fill="#183561"/>
<path d="M207.742 8.26831V47.981L172.666 67.9779V28.2183L207.742 8.26831Z" fill="#A9D1EA"/>
<path d="M207.742 8.26831V16.5574L172.666 36.5543V28.2183L207.742 8.26831Z" fill="#3C6A9E"/>
<path d="M205.307 23.9568L205.26 26.7198L186.247 37.7719L186.341 34.9153L205.307 23.9568Z" fill="#FEC400"/>
<path d="M195.754 46.9976V49.7606L176.693 60.8127L176.834 57.956L195.754 46.9976Z" fill="#FEC400"/>
<path d="M184.046 36.2734V38.9896L176.881 43.1108V40.4414L184.046 36.2734Z" fill="#77B8E0"/>
<path d="M202.216 37.6782V40.3476L195.051 44.5156V41.8462L202.216 37.6782Z" fill="#77B8E0"/>
<path d="M204.558 42.4551V45.1713L197.393 49.2924V46.6231L204.558 42.4551Z" fill="white"/>
<path d="M193.553 36.2734L176.928 45.8738V48.6368L193.553 38.9896V36.2734Z" fill="white"/>
<path d="M193.553 42.127L176.928 51.7273V54.4903L193.553 44.7963V42.127Z" fill="white"/>
<g style="mix-blend-mode:multiply" opacity="0.3">
<path d="M217.765 210.719C228.731 210.719 237.621 205.54 237.621 199.152C237.621 192.763 228.731 187.584 217.765 187.584C206.798 187.584 197.908 192.763 197.908 199.152C197.908 205.54 206.798 210.719 217.765 210.719Z" fill="#15325C"/>
</g>
<path d="M205.588 198.636L210.412 200.463V203.319C210.412 203.975 210.037 204.584 209.475 204.912L209.194 205.052C208.632 205.38 207.93 205.38 207.368 205.052C205.682 204.069 202.216 202.055 201.327 201.352C200.109 200.463 200.437 197.138 205.541 198.636H205.588Z" fill="#183561"/>
<path d="M228.489 198.309L232.891 195.639L235.139 197.419C235.654 197.84 235.935 198.496 235.841 199.105V199.432C235.701 200.088 235.279 200.65 234.67 200.884C232.891 201.587 229.144 203.085 228.02 203.366C226.569 203.741 224.133 201.493 228.489 198.355V198.309Z" fill="#183561"/>
<path d="M223.618 149.979V176.439L234.295 195.639C234.295 195.639 232.188 199.854 229.097 198.683C227.973 197.185 215.703 180.185 215.188 177C214.673 173.816 210.411 159.017 210.411 159.017V150.026H223.618V149.979Z" fill="#15325C"/>
<path d="M206.197 149.979C206.197 149.979 202.497 165.855 203.012 175.361C203.527 184.868 204.089 197.419 204.698 199.526C206.524 202.57 210.88 200.744 210.88 200.744L210.786 175.361L219.403 149.979H206.197Z" fill="#15325C"/>
<path d="M213.83 115.792C215.656 115.137 217.483 115.699 219.169 120.569C220.855 125.439 222.821 134.103 222.821 134.103L223.243 150.494L219.403 150.916L217.155 134.759L212.425 122.817C212.425 122.817 210.224 117.103 213.83 115.839V115.792Z" fill="#EC69B9"/>
<path d="M202.31 160.141C202.31 160.141 200.811 160.703 200.53 161.78C200.296 162.857 201.701 162.576 201.701 162.576C201.701 165.995 202.872 165.761 202.872 165.761C205.026 166.229 205.26 165.152 205.26 165.152C205.916 163.981 205.213 160.141 205.213 160.141H202.263H202.31Z" fill="#F9BEAE"/>
<path d="M200.249 128.811L206.899 155.926C206.899 155.926 221.135 158.362 224.882 147.637L221.838 137.99L217.529 117.197C217.529 117.197 216.967 115.839 215.516 114.949C214.766 114.481 213.923 114.34 213.081 114.434C212.238 114.528 211.441 114.856 210.786 115.464L201.888 123.566C201.326 124.081 200.858 124.737 200.577 125.439C200.155 126.47 200.015 127.64 200.296 128.764L200.249 128.811Z" fill="#F02098"/>
<path d="M201.654 124.69C203.528 124.363 205.26 125.159 206.244 130.216C207.18 135.274 207.789 144.172 207.789 144.172L205.682 160.422L201.842 160.235L202.076 143.938L199.219 131.387C199.219 131.387 197.908 125.44 201.701 124.737L201.654 124.69Z" fill="#EC69B9"/>
<path d="M197.299 107.129C197.299 107.129 199.266 120.429 204.043 118.04C208.819 115.652 208.679 109.236 208.679 109.236L204.043 105.536L197.299 107.175V107.129Z" fill="#F9BEAE"/>
<path d="M204.604 114.762L205.401 120.288C205.401 120.288 209.569 120.522 210.833 118.274L209.662 113.544L204.604 114.762Z" fill="#F9BEAE"/>
<path d="M201.561 111.297C199.219 111.297 199.594 109.096 199.594 109.096C199.594 109.096 196.456 108.627 195.847 106.239C195.238 103.851 197.112 101.837 197.112 101.837L198.517 102.399C198.517 102.399 204.979 100.291 207.976 103.71C210.927 107.129 209.943 114.715 209.943 114.715L207.087 115.418L203.574 111.999L201.654 111.39L201.561 111.297Z" fill="#052754"/>
<path d="M200.577 112.374C200.811 113.451 201.888 114.06 202.966 113.826C204.043 113.591 204.652 112.514 204.417 111.437C204.183 110.36 203.106 109.751 202.029 109.985C200.952 110.22 200.343 111.297 200.577 112.374Z" fill="#F9BEAE"/>
</svg>
