<svg width="309" height="287" viewBox="0 0 309 287" fill="none" xmlns="http://www.w3.org/2000/svg">
<path d="M190.007 26.1602V84.97L188.922 85.8478L155.877 65.4528L154.793 7.57238L155.877 6.69458L190.007 26.1602Z" fill="#183561"/>
<path d="M154.793 7.57227V66.3304L188.922 85.8477V27.0378L154.793 7.57227Z" fill="#183561"/>
<path d="M154.793 7.57227V15.6786L188.922 35.1442V27.0378L154.793 7.57227Z" fill="#3C6A9E"/>
<path d="M158.304 24.0432L158.355 26.7798L176.892 37.5194L176.788 34.7313L158.304 24.0432Z" fill="#FEC400"/>
<path d="M167.598 46.5034V49.24L186.185 59.9796L186.082 57.1915L167.598 46.5034Z" fill="#FEC400"/>
<path d="M179.009 36.0737V38.707L186.031 42.7344V40.1011L179.009 36.0737Z" fill="#77B8E0"/>
<path d="M161.298 37.4163V40.0495L168.268 44.0769V41.4953L161.298 37.4163Z" fill="#77B8E0"/>
<path d="M159.078 42.1147V44.6964L166.049 48.7754V46.1421L159.078 42.1147Z" fill="white"/>
<path d="M169.767 36.0737L185.979 45.4193V48.1558L169.767 38.707V36.0737Z" fill="white"/>
<path d="M169.767 41.7534L185.979 51.099V53.8355L169.767 44.3867V41.7534Z" fill="white"/>
<path d="M158.304 47.5876L158.355 50.3242L176.892 61.0638L176.788 58.2756L158.304 47.5876Z" fill="#FEC400"/>
<path d="M167.598 65.3496V68.0862L186.185 78.8258L186.082 76.0377L167.598 65.3496Z" fill="#FEC400"/>
<path d="M179.009 59.6182V62.2514L186.031 66.2788V63.6972L179.009 59.6182Z" fill="#77B8E0"/>
<path d="M161.298 56.2622V58.8955L168.268 62.9229V60.3412L161.298 56.2622Z" fill="#77B8E0"/>
<path d="M159.078 60.9609V63.5426L166.049 67.6216V64.9883L159.078 60.9609Z" fill="white"/>
<path d="M169.767 60.5991L185.979 69.9447V72.6812L169.767 63.2324V60.5991Z" fill="white"/>
<path d="M251.347 74.6432V102.577L249.643 103.558L204.102 74.6432L202.45 48.1556L204.102 47.1746L251.347 74.6432Z" fill="#183561"/>
<path d="M249.643 75.6244V103.558L202.45 75.6244V48.1558L249.643 75.6244Z" fill="#A9D1EA"/>
<path d="M236.682 74.85L235.288 74.0239V71.5972L236.682 72.3717L239.677 74.1788L245.253 77.4316V79.8584L239.677 76.6055L236.682 74.85Z" fill="#FEC400"/>
<path d="M236.992 81.0975V78.6191L239.677 80.2197L245.253 83.4726V85.951L239.677 82.6982L236.992 81.0975Z" fill="white"/>
<path d="M239.677 90.0819L245.253 93.3348V95.7615L239.677 92.5087L236.682 90.7531L232.448 88.2747V85.7964L236.682 88.2747L239.677 90.0819Z" fill="#FEC400"/>
<path d="M228.473 78.5674L231.932 80.581L236.682 83.3692L239.47 85.0215V87.4482L236.682 85.8476L231.932 83.0594L228.473 81.0457V78.5674Z" fill="white"/>
<path d="M240.245 85.4348L245.253 88.3779V90.8563L240.245 87.9132V85.4348Z" fill="white"/>
<path d="M236.27 80.6328L231.933 78.1544L226.253 74.7982L223.465 73.1976V70.7192L226.253 72.3198L231.933 75.676L236.27 78.206V80.6328Z" fill="#77B8E0"/>
<path d="M220.108 68.7574L222.638 70.2031V72.6815L220.108 71.1841L206.374 63.3876V60.9092L220.108 68.7574Z" fill="white"/>
<path d="M227.75 78.103V80.5814L226.253 79.7036L222.691 77.6383L220.109 76.141L215.462 73.4561V71.0293L220.109 73.6626L222.691 75.1599L226.253 77.2769L227.75 78.103Z" fill="white"/>
<path d="M214.584 72.9911L206.374 68.2925V65.8657L214.584 70.5127V72.9911Z" fill="white"/>
<path d="M217.991 79.8584L206.374 73.2494V70.771L217.991 77.38V79.8584Z" fill="#77B8E0"/>
<path d="M222.69 80.1163L226.252 82.1817L231.726 85.3829V87.8096L226.252 84.66L222.69 82.5431L220.108 81.0457L218.817 80.3228V77.8445L220.108 78.5674L222.69 80.1163Z" fill="white"/>
<g style="mix-blend-mode:multiply" opacity="0.2">
<path d="M22.7676 195.103L26.1754 197.065L179.99 285.77C181.126 286.442 182.417 286.751 183.707 286.7C184.792 286.7 185.876 286.338 186.857 285.77L299.417 220.661L301.172 219.629L304.58 217.667C306.852 216.324 308.039 214.001 308.039 211.677C308.039 209.354 308.039 211.522 308.039 211.419C307.988 209.199 306.8 206.979 304.58 205.688L290.846 197.788L147.409 115.124C145.292 113.885 142.659 113.885 140.542 115.124L22.716 183.073C18.1207 185.706 18.1207 192.367 22.716 195L22.7676 195.103Z" fill="#15325C"/>
</g>
<path d="M18.1729 157.359C18.1729 157.101 18.1729 156.791 18.1729 156.533V141.663L27.0021 147.859L139.458 83.008C141.575 81.7688 144.209 81.7688 146.326 83.008L278.454 159.166L296.939 169.803L300.088 171.61L303.496 173.572C305.871 174.915 307.007 177.341 306.956 179.716C306.956 181.988 305.768 184.26 303.496 185.551L185.773 253.655C184.792 254.223 183.708 254.532 182.572 254.584C181.281 254.636 179.99 254.326 178.854 253.655L21.6323 162.987C19.5153 161.8 18.3794 159.734 18.2245 157.618V157.463L18.1729 157.359Z" fill="#D6EDFF"/>
<path d="M182.571 238.681V254.532C183.656 254.532 184.74 254.171 185.773 253.603L303.496 185.499C305.716 184.208 306.903 181.937 306.955 179.665L307.213 179.871L306.955 163.659V163.4C306.903 161.18 305.716 158.96 303.496 157.669L289.761 149.769L278.454 159.115L182.571 238.578V238.681Z" fill="#BBE0FD"/>
<path d="M96.758 179.975L96.8097 206.411L83.54 198.614L83.6433 174.708L96.758 179.975Z" fill="white"/>
<path d="M101.921 187.048V209.25L105.69 211.419V190.559L101.921 187.048Z" fill="white"/>
<path d="M21.5802 147.033L24.988 148.995L178.802 237.7C179.938 238.371 181.229 238.681 182.52 238.629C183.604 238.629 184.688 238.268 185.669 237.7L298.229 172.591L299.985 171.558L303.392 169.596C305.664 168.254 306.852 165.93 306.852 163.607C306.852 161.283 306.852 163.452 306.852 163.349C306.8 161.129 305.613 158.908 303.392 157.617L289.658 149.718L146.222 67.0534C144.105 65.8142 141.472 65.8142 139.355 67.0534L21.5285 135.002C16.9332 137.636 16.9332 144.296 21.5285 146.929L21.5802 147.033Z" fill="white"/>
<path d="M139.764 82.5725C141.316 81.0199 141.316 78.5026 139.764 76.9499C138.211 75.3973 135.694 75.3974 134.141 76.95C132.589 78.5026 132.589 81.0199 134.141 82.5725C135.694 84.1251 138.211 84.1251 139.764 82.5725Z" fill="#D6EFFB"/>
<path d="M135.843 2.46061L132.694 78.8773L53.0241 130.665L49.8745 128.961C49.1 128.548 48.4288 127.877 47.9641 127.154C47.4994 126.379 47.2412 125.553 47.2412 124.624V50.9955C47.2412 50.3243 47.3961 49.653 47.7575 49.0851C48.0673 48.5171 48.532 48.0524 49.1516 47.691L128.202 1.42795C129.028 0.963255 129.905 0.705078 130.835 0.705078C131.764 0.705078 132.642 0.911635 133.468 1.37633L135.843 2.51223V2.46061Z" fill="#A9D1EA"/>
<path d="M136.67 4.47441V81.4074L51.2695 130.097V53.474C51.2695 52.8027 51.4244 52.1831 51.7859 51.6152C52.0957 51.0472 52.5603 50.5309 53.1799 50.2211L133.934 2.92542C134.553 2.56399 135.225 2.61562 135.793 2.92542C136.309 3.23522 136.722 3.80317 136.722 4.52603L136.67 4.47441Z" fill="#D6EFFB"/>
<path d="M134.914 11.0317V75.2114L124.794 80.9943L121.748 82.6982L100.992 94.5738L89.529 101.079L71.4575 111.406L53.9023 121.371V58.4307L71.0961 48.3623L80.39 42.9409L95.0537 34.3698L112.661 24.0432L123.658 17.5891L131.713 12.8905L134.914 11.0317Z" fill="#183561"/>
<g style="mix-blend-mode:multiply" opacity="0.3">
<path d="M54.0573 149.15L114.881 184.518C116.068 185.189 117.514 185.189 118.65 184.518L201.831 136.19C203.07 135.467 203.689 134.228 203.689 132.988C203.689 131.698 203.07 130.407 201.831 129.684L174.775 113.833C173.949 113.368 172.968 113.213 172.038 113.42L63.6094 137.481C63.248 137.584 62.8865 137.687 62.5767 137.894L54.0573 142.644C51.5273 144.09 51.4757 147.755 54.0057 149.201L54.0573 149.15Z" fill="#15325C"/>
</g>
<path d="M53.8503 138.668L117.204 175.018C117.875 175.431 118.65 175.637 119.372 175.689C120.457 175.792 121.593 175.534 122.574 174.966L200.591 129.684C201.159 129.374 201.624 128.858 201.933 128.342C202.295 127.722 202.45 127.051 202.45 126.328L202.346 122.714L135.843 87.0869L51.3203 129.994V134.073C51.3203 134.899 51.5268 135.725 51.8883 136.448C52.353 137.326 53.0242 138.049 53.902 138.513L53.8503 138.668Z" fill="#A9D1EA"/>
<path d="M51.2695 130.097L116.998 170.37C117.773 170.835 118.599 171.093 119.477 171.197C120.612 171.3 121.8 171.042 122.833 170.474L201.056 125.088C201.883 124.624 202.347 123.849 202.502 123.023C202.709 121.887 202.244 120.7 201.16 120.028L135.896 80.1162L51.3728 130.148L51.2695 130.097Z" fill="#D6EFFB"/>
<path d="M59.5303 130.097L136.773 84.4021L188.458 116.001L111.215 161.697L59.5303 130.097Z" fill="#77B8E0"/>
<path d="M52.2848 133.81C54.4523 133.459 55.9248 131.417 55.5737 129.249C55.2226 127.082 53.181 125.609 51.0135 125.961C48.846 126.312 47.3735 128.353 47.7245 130.521C48.0756 132.688 50.1173 134.161 52.2848 133.81Z" fill="#A9D1EA"/>
<g opacity="0.7">
<path d="M99.8037 121.423L110.285 115.227L118.185 119.874L107.704 126.07L99.8037 121.423Z" fill="#D6EDFF"/>
<path d="M130.164 112.8L119.682 118.996L111.782 114.349L122.264 108.153L130.164 112.8Z" fill="#D6EDFF"/>
<path d="M98.3069 120.545L90.7686 116.105L101.25 109.857L108.788 114.349L98.3069 120.545Z" fill="#D6EDFF"/>
<path d="M86.3274 127.619L78.7891 123.178L89.2706 116.982L96.8089 121.423L86.3274 127.619Z" fill="#D6EDFF"/>
<path d="M160.885 116.776L150.404 123.023L142.504 118.325L152.985 112.129L160.885 116.776Z" fill="#D6EDFF"/>
<path d="M139.561 118.325L129.028 124.521L121.18 119.874L131.661 113.678L139.561 118.325Z" fill="#D6EDFF"/>
<path d="M151.54 111.251L141.007 117.447L133.159 112.8L143.641 106.604L151.54 111.251Z" fill="#D6EDFF"/>
<path d="M74.2457 134.796L66.8105 130.252L77.292 124.056L84.8304 128.497L74.2457 134.796Z" fill="#D6EDFF"/>
<path d="M154.482 111.251L164.706 105.21L172.451 109.96L162.382 115.898L154.482 111.251Z" fill="#D6EDFF"/>
<path d="M173.897 110.838L181.383 115.434L171.47 121.268L163.88 116.776L173.897 110.838Z" fill="#D6EDFF"/>
<path d="M145.138 105.726L155.464 99.582L163.209 104.332L152.986 110.373L145.138 105.726Z" fill="#D6EDFF"/>
<path d="M130.525 125.45L141.007 119.203L148.907 123.901L138.425 130.097L130.525 125.45Z" fill="#D6EDFF"/>
<path d="M110.285 113.471L102.747 108.979L113.28 102.783L120.767 107.224L110.285 113.471Z" fill="#D6EDFF"/>
<path d="M122.264 106.346L114.726 101.906L125.259 95.7097L132.797 100.15L122.264 106.346Z" fill="#D6EDFF"/>
<path d="M135.74 100.15L146.273 93.9541L154.018 98.7044L143.64 104.797L135.74 100.15Z" fill="#D6EDFF"/>
<path d="M95.7249 134.951L103.573 139.598L92.6269 146.052L84.9336 141.353L95.7249 134.951Z" fill="#D6EDFF"/>
<path d="M94.124 146.981L105.07 140.476L112.97 145.123L101.869 151.732L94.124 146.981Z" fill="#D6EDFF"/>
<path d="M106.567 139.597L117.049 133.401L124.949 138.048L114.467 144.244L106.567 139.597Z" fill="#D6EDFF"/>
<path d="M134.242 99.2721L126.704 94.8317L137.392 88.5325L144.776 93.0246L134.242 99.2721Z" fill="#D6EDFF"/>
<path d="M114.468 146.052L122.058 150.544L110.802 157.204L103.315 152.609L114.468 146.052Z" fill="#D6EDFF"/>
<path d="M115.965 145.122L126.446 138.927L134.036 143.419L123.555 149.666L115.965 145.122Z" fill="#D6EDFF"/>
<path d="M86.3278 129.374L94.2276 134.073L83.4363 140.424L75.6914 135.674L86.3278 129.374Z" fill="#D6EDFF"/>
<path d="M109.2 126.947L119.682 120.751L127.53 125.45L117.048 131.646L109.2 126.947Z" fill="#D6EDFF"/>
<path d="M87.8252 128.496L98.3067 122.3L106.206 126.947L95.725 133.195L87.8252 128.496Z" fill="#D6EDFF"/>
<path d="M97.2227 134.073L107.704 127.877L115.552 132.524L105.071 138.72L97.2227 134.073Z" fill="#D6EDFF"/>
<path d="M118.547 132.524L129.028 126.328L136.928 130.975L137.444 130.665L126.447 137.171L118.547 132.524Z" fill="#D6EDFF"/>
<path d="M142.142 105.726L131.661 111.922L123.761 107.224L134.242 101.028L142.142 105.726Z" fill="#D6EDFF"/>
<path d="M151.901 123.901L162.383 117.654L169.973 122.198L159.491 128.393L151.901 123.901Z" fill="#D6EDFF"/>
<path d="M127.944 138.049L150.405 124.779L157.995 129.271L135.534 142.541L127.944 138.049Z" fill="#D6EDFF"/>
</g>
<path d="M98.7715 56.3655L96.8611 57.5014L92.6788 59.9281L85.0371 64.4202V67.828L92.6788 63.3359L96.8611 60.9091L98.7715 59.7732V56.3655Z" fill="white"/>
<path d="M77.8602 51.667L75.8982 52.803L71.7675 55.2297L64.0742 59.7218V63.1295L71.7675 58.6374L75.8982 56.1591L77.8602 55.0748V51.667Z" fill="white"/>
<path d="M77.8602 57.3979L75.8982 58.5338L71.7675 60.9606L64.0742 65.4527V68.8604L71.7675 64.3684L75.8982 61.9416L77.8602 60.8057V57.3979Z" fill="#FEC400"/>
<path d="M119.837 52.4412L116.223 54.5065L111.318 57.398L103.418 62.045L97.4805 65.5044V68.9121L103.418 65.4527L111.318 60.8058L116.223 57.9143L119.837 55.849L121.283 54.9712V51.5635L119.837 52.4412Z" fill="#F02098"/>
<path d="M96.447 66.1238L92.6778 68.2924L85.0361 72.7844V76.1922L92.6778 71.7002L96.447 69.5316V66.1238Z" fill="white"/>
<path d="M102.695 76.0374L96.8601 79.4967L92.6778 81.9235L85.0361 86.4155V89.8233L92.6778 85.3313L96.8601 82.9045L102.695 79.4451V76.0374Z" fill="#FEC400"/>
<path d="M119.837 66.0204L116.223 68.1374L111.318 71.0288L103.779 75.4176V78.8254L111.318 74.4366L116.223 71.5451L119.837 69.4282L121.283 68.6021V65.1943L119.837 66.0204Z" fill="white"/>
<path d="M108.219 66.0205L103.417 68.8603L96.8599 72.6812L93.0391 74.9013V78.3092L96.8599 76.0889L103.417 72.2165L108.219 69.4283V66.0205Z" fill="white"/>
<path d="M92.0066 75.521L85.0361 79.6V83.0078L92.0066 78.9288V75.521Z" fill="white"/>
<path d="M119.838 59.2567L116.223 61.322L111.318 64.2134L109.253 65.401V68.8088L111.318 67.6212L116.223 64.7298L119.838 62.6128L121.283 61.7867V58.3789L119.838 59.2567Z" fill="white"/>
<path d="M42.1816 85.1249V123.54L43.266 124.418L76.0529 104.229L77.1371 66.692L76.0529 65.8142L42.1816 85.1249Z" fill="#183561"/>
<path d="M77.1378 66.6919V105.107L43.2666 124.417V86.0025L77.1378 66.6919Z" fill="#A9D1EA"/>
<path d="M77.1378 66.6919V74.695L43.2666 94.0056V86.0025L77.1378 66.6919Z" fill="#3C6A9E"/>
<path d="M74.7622 81.8721V84.557L56.3809 95.1934L56.4842 92.4568L74.7622 81.8721Z" fill="#FEC400"/>
<path d="M65.5716 104.126V106.811L47.1387 117.447L47.2935 114.711L65.5716 104.126Z" fill="#FEC400"/>
<path d="M54.2645 93.7993V96.381L47.3457 100.357V97.775L54.2645 93.7993Z" fill="#77B8E0"/>
<path d="M71.8192 95.1421V97.7237L64.9004 101.751V99.1178L71.8192 95.1421Z" fill="#77B8E0"/>
<path d="M74.0389 99.7368V102.37L67.1201 106.346V103.764L74.0389 99.7368Z" fill="white"/>
<path d="M63.4036 93.7993L47.3457 103.042V105.726L63.4552 96.381L63.4036 93.7993Z" fill="white"/>
<path d="M63.4036 99.4272L47.3457 108.67V111.354L63.4552 102.009L63.4036 99.4272Z" fill="white"/>
<path d="M222.484 96.0714C224.033 95.9165 225.376 96.691 225.789 100.822C226.202 104.952 226.099 112.181 226.099 112.181L223.311 125.141L220.213 124.728L221.503 111.613L220.058 101.286C220.058 101.286 219.438 96.3812 222.484 96.0714Z" fill="#FFD561"/>
<path d="M215.565 159.683C215.823 158.702 220.212 158.392 220.212 158.392L224.291 160.199C224.136 162.471 223.723 163.039 222.742 163.039C216.288 162.316 215.565 161.077 215.565 161.077C215.565 161.077 215.307 160.664 215.565 159.683Z" fill="#052754"/>
<path d="M215.152 125.605L217.682 144.348L219.799 159.528C219.799 159.528 220.78 160.664 224.704 160.096L223.723 143.057L224.188 122.662L215.152 125.605Z" fill="#15325C"/>
<path d="M206.013 164.33C206.271 163.349 210.66 163.039 210.66 163.039L214.739 164.846C214.584 167.118 214.171 167.686 213.19 167.686C206.736 166.963 206.013 165.724 206.013 165.724C206.013 165.724 205.755 165.311 206.013 164.33Z" fill="#052754"/>
<path d="M209.938 127.877L209.215 145.329L209.938 164.64C209.938 164.64 210.919 165.776 214.843 165.208L215.669 148.582L220.264 123.075L209.938 127.877Z" fill="#15325C"/>
<path d="M209.317 103.765V129.22C209.317 129.22 221.141 132.473 225.065 123.282L224.497 115.124L225.065 97.9303C225.065 97.9303 224.91 96.7427 223.878 95.7616C223.361 95.2453 222.742 94.9872 222.071 94.8839C221.399 94.7806 220.728 94.8839 220.109 95.2453L211.538 99.9439C210.97 100.254 210.505 100.667 210.143 101.183C209.627 101.906 209.317 102.835 209.317 103.765Z" fill="#FEC400"/>
<path d="M211.125 86.106C211.125 86.106 210.144 96.9488 214.378 95.9678C218.611 94.9868 219.747 89.9268 219.747 89.9268L216.804 86.106H211.176H211.125Z" fill="#F9BEAE"/>
<path d="M215.41 93.4897L214.997 97.9818C214.997 97.9818 218.25 98.9629 219.644 97.4139V93.4897H215.41Z" fill="#F4CAAB"/>
<path d="M213.655 90.185C211.847 89.7719 212.519 88.068 212.519 88.068C212.519 88.068 210.144 87.087 210.144 85.125C210.144 83.1629 211.951 81.8721 211.951 81.8721L212.932 82.5949C212.932 82.5949 218.405 82.1819 220.109 85.4348C221.813 88.6876 219.541 94.4189 219.541 94.4189H217.166L215.049 91.0627L213.655 90.2366V90.185Z" fill="#052754"/>
<path d="M212.726 90.8562C212.726 91.734 213.448 92.4568 214.326 92.4568C215.204 92.4568 215.927 91.734 215.927 90.8562C215.927 89.9785 215.204 89.2556 214.326 89.2556C213.448 89.2556 212.726 89.9785 212.726 90.8562Z" fill="#F9BEAE"/>
<path d="M195.119 97.4653C194.912 95.813 196.358 96.1228 197.029 99.4273L195.274 100.408C188.665 100.408 190.059 96.8973 195.17 97.4137L195.119 97.4653Z" fill="#F9BEAE"/>
<path d="M214.636 99.9954C211.951 98.0334 208.905 102.422 208.905 102.422L204 108.721L197.133 99.0144L194.189 100.615C194.189 100.615 197.701 107.689 200.282 112.749C201.573 115.227 204.929 115.743 206.891 113.781C209.576 111.045 212.881 107.637 213.862 106.243C216.546 102.629 215.979 100.976 214.636 99.9954Z" fill="#FFD561"/>
<g style="mix-blend-mode:multiply" opacity="0.3">
<path d="M211.899 172.797C219.77 172.797 226.15 169.076 226.15 164.485C226.15 159.893 219.77 156.172 211.899 156.172C204.029 156.172 197.648 159.893 197.648 164.485C197.648 169.076 204.029 172.797 211.899 172.797Z" fill="#15325C"/>
</g>
<g style="mix-blend-mode:multiply" opacity="0.3">
<path d="M193.569 171.919L219.747 187.151L175.601 212.864L149.63 197.426L193.569 171.919Z" fill="#15325C"/>
</g>
<path d="M194.5 161.498L193.699 162.884L218.516 177.212L219.317 175.826L194.5 161.498Z" fill="#77B8E0"/>
<path d="M218.87 188.08C219.386 188.08 219.799 187.667 219.799 187.151V158.236C219.799 157.72 219.386 157.307 218.87 157.307C218.354 157.307 217.94 157.72 217.94 158.236V187.151C217.94 187.667 218.354 188.08 218.87 188.08Z" fill="#77B8E0"/>
<path d="M220.057 181.265V187.151C220.057 187.822 219.54 188.339 218.869 188.339C218.198 188.339 217.682 187.822 217.682 187.151V181.265H220.057Z" fill="#1C427E"/>
<path d="M150.559 198.356C151.076 198.356 151.489 197.943 151.489 197.426V168.512C151.489 167.996 151.076 167.583 150.559 167.583C150.043 167.583 149.63 167.996 149.63 168.512V197.426C149.63 197.943 150.043 198.356 150.559 198.356Z" fill="#77B8E0"/>
<path d="M151.747 191.488V197.374C151.747 198.046 151.231 198.562 150.56 198.562C149.888 198.562 149.372 198.046 149.372 197.374V191.488H151.747Z" fill="#1C427E"/>
<path d="M175.601 213.122C176.118 213.122 176.531 212.709 176.531 212.193V183.278C176.531 182.762 176.118 182.349 175.601 182.349C175.085 182.349 174.672 182.762 174.672 183.278V212.193C174.672 212.709 175.085 213.122 175.601 213.122Z" fill="#77B8E0"/>
<path d="M193.569 144.399L219.747 157.152V159.631L175.601 185.344L149.63 169.854V167.376L193.569 144.399Z" fill="#A9D1EA"/>
<path d="M193.569 141.869L219.747 157.152L175.601 182.866L149.63 167.376L193.569 141.869Z" fill="#BBE0FD"/>
<path d="M176.789 206.307V212.193C176.789 212.865 176.273 213.381 175.602 213.381C174.93 213.381 174.414 212.865 174.414 212.193V206.307H176.789Z" fill="#1C427E"/>
<path d="M150.805 187.451L150.005 188.837L174.822 203.165L175.622 201.779L150.805 187.451Z" fill="#77B8E0"/>
<g style="mix-blend-mode:multiply" opacity="0.3">
<path d="M221.812 209.767L207.82 217.976L193.518 209.044L207.613 201.351L221.812 209.767Z" fill="#15325C"/>
</g>
<path d="M207.355 218.441C207.097 218.441 206.891 218.235 206.891 217.976V201.815C206.891 201.557 207.097 201.351 207.355 201.351C207.613 201.351 207.82 201.557 207.82 201.815V217.976C207.82 218.235 207.613 218.441 207.355 218.441Z" fill="#77B8E0"/>
<path d="M206.788 215.343V218.286C206.788 218.596 207.046 218.854 207.356 218.854C207.666 218.854 207.924 218.596 207.924 218.286V215.343H206.736H206.788Z" fill="#1C427E"/>
<path d="M222.277 210.231C222.019 210.231 221.812 210.025 221.812 209.767V193.606C221.812 193.347 222.019 193.141 222.277 193.141C222.535 193.141 222.742 193.347 222.742 193.606V209.767C222.742 210.025 222.535 210.231 222.277 210.231Z" fill="#77B8E0"/>
<path d="M221.658 207.185V210.128C221.658 210.438 221.916 210.696 222.226 210.696C222.536 210.696 222.794 210.438 222.794 210.128V207.185H221.606H221.658Z" fill="#1C427E"/>
<path d="M193.467 210.438C193.208 210.438 193.002 210.232 193.002 209.973V193.812C193.002 193.554 193.208 193.348 193.467 193.348C193.725 193.348 193.931 193.554 193.931 193.812V209.973C193.931 210.232 193.725 210.438 193.467 210.438Z" fill="#77B8E0"/>
<path d="M208.233 202.073C208.182 202.435 207.975 202.641 207.665 202.796C207.356 202.951 207.046 202.899 206.736 202.796L192.898 194.69V193.296L208.182 202.125L208.233 202.073Z" fill="#A9D1EA"/>
<path d="M211.125 187.1L207.149 185.086L193.002 193.296L207.149 201.66L211.125 187.1Z" fill="#BBE0FD"/>
<path d="M192.898 207.34V210.283C192.898 210.593 193.156 210.851 193.466 210.851C193.776 210.851 194.034 210.593 194.034 210.283V207.34H192.847H192.898Z" fill="#1C427E"/>
<path d="M207.046 201.505L211.848 181.782L226.615 172.436L227.802 173.262L221.71 193.038L208.233 202.228L207.046 201.505Z" fill="#A9D1EA"/>
<path d="M208.285 202.28L213.087 182.556L227.906 173.21L222.949 193.812L208.285 202.28Z" fill="#BBE0FD"/>
<path d="M190.729 168.047C190.729 168.667 190.213 169.183 189.593 169.183C188.973 169.183 188.457 168.667 188.457 168.047C188.457 167.427 188.973 166.911 189.593 166.911C190.213 166.911 190.729 167.427 190.729 168.047Z" fill="#052754"/>
<path d="M184.946 155.5L176.014 160.767L166.72 164.794V166.188L180.402 173.882L189.49 168.667L198.629 163.4V161.955L184.946 155.5Z" fill="#052754"/>
<path d="M190.058 167.686L197.183 159.063L197.648 162.109L190.058 167.686Z" fill="#3C6A9E"/>
<path d="M197.183 159.063L195.84 160.664L190.109 167.634L190.057 167.686L177.098 160.147V160.096L177.201 159.992L185.359 152.144L197.183 159.063Z" fill="white"/>
<path d="M190.058 167.686L189.696 167.737L180.816 168.873L170.541 163.142L167.185 161.283L176.84 160.147L177.098 160.096H177.253L190.058 167.686Z" fill="white"/>
<path d="M190.109 167.634L190.058 167.686L189.696 167.737L176.943 160.199L176.84 160.147L177.098 160.096L177.201 159.992L177.253 160.044L190.109 167.634Z" fill="#183561"/>
<path d="M167.185 161.283V164.588L180.816 172.229V168.873L167.185 161.283Z" fill="#77B8E0"/>
<path d="M180.815 168.873V172.229L190.058 167.686L180.815 168.873Z" fill="#3C6A9E"/>
<g style="mix-blend-mode:multiply" opacity="0.3">
<path d="M244.428 162.007L268.076 148.169C268.747 147.808 269.573 147.756 270.193 148.169L294.564 162.058C296.009 162.884 296.009 164.95 294.564 165.776L270.554 179.613C269.883 179.975 269.057 179.975 268.437 179.613L244.377 165.724C242.982 164.898 242.931 162.833 244.377 162.007H244.428Z" fill="#15325C"/>
</g>
<path d="M288.574 153.022L269.78 163.865L269.573 174.863L288.368 164.175L288.574 153.022Z" fill="#A9D1EA"/>
<path d="M250.985 153.022L269.522 142.179L288.574 153.022L269.78 163.865L250.985 153.022Z" fill="#BBE0FD"/>
<path d="M259.092 153.022L269.418 146.981L280.055 153.022L269.573 159.063L259.092 153.022Z" fill="#15325C"/>
<path d="M250.985 164.175V153.022L269.78 163.865L269.573 174.863L250.985 164.175Z" fill="#77B8E0"/>
<path d="M271.639 136.551H266.476V152.351H271.639V136.551Z" fill="#15325C"/>
<path d="M269.057 144.348L278.144 134.744L279.177 136.551L269.573 146.929" fill="#15325C"/>
<path d="M287.955 133.608C287.955 134.435 287.852 135.209 287.593 135.932C286.612 139.133 283.618 141.508 280.055 141.508C276.492 141.508 272.155 137.997 272.155 133.608C272.155 129.22 273.291 128.91 275.15 127.464C276.492 126.38 278.196 125.76 280.055 125.76C284.392 125.76 287.955 129.271 287.955 133.66V133.608Z" fill="#77B8E0"/>
<g style="mix-blend-mode:multiply" opacity="0.2">
<path d="M287.593 135.932C287.18 137.326 286.406 138.514 285.322 139.443C283.928 140.682 282.069 141.457 280.055 141.457C275.718 141.457 272.155 137.946 272.155 133.557C272.155 129.168 272.155 133.041 272.155 132.782C272.362 130.614 273.446 128.703 275.098 127.413C274.943 135.725 281.759 136.5 287.542 135.932H287.593Z" fill="#77B8E0"/>
</g>
<g style="mix-blend-mode:multiply" opacity="0.2">
<path d="M285.373 139.443C283.979 140.682 282.121 141.456 280.107 141.456C275.77 141.456 272.207 137.945 272.207 133.557C272.207 129.168 272.207 133.04 272.207 132.782C273.704 138.307 279.746 140.114 285.322 139.443H285.373Z" fill="#77B8E0"/>
</g>
<path d="M281.759 125.811C281.759 127.102 281.552 128.341 281.191 129.529C279.59 134.641 274.84 138.358 269.212 138.358C263.584 138.358 256.665 132.73 256.665 125.811C256.665 118.893 258.524 118.325 261.415 116.001C263.584 114.297 266.269 113.265 269.212 113.265C276.131 113.265 281.759 118.893 281.759 125.811Z" fill="#77B8E0"/>
<g style="mix-blend-mode:multiply" opacity="0.2">
<path d="M281.191 129.529C280.519 131.698 279.28 133.66 277.628 135.157C275.408 137.171 272.465 138.41 269.212 138.41C262.293 138.41 256.665 132.782 256.665 125.863C256.665 118.945 256.665 125.037 256.717 124.624C257.078 121.165 258.782 118.119 261.364 116.053C261.105 129.323 272 130.51 281.191 129.581V129.529Z" fill="#77B8E0"/>
</g>
<g style="mix-blend-mode:multiply" opacity="0.2">
<path d="M277.628 135.157C275.408 137.171 272.465 138.41 269.212 138.41C262.293 138.41 256.665 132.782 256.665 125.863C256.665 118.945 256.665 125.037 256.717 124.624C259.04 133.402 268.695 136.242 277.628 135.157Z" fill="#77B8E0"/>
</g>
<path d="M1.03014 199.905V210.386H1.08176C1.23665 211.264 1.75297 212.142 2.68236 212.658L37.8444 232.95C38.3607 233.26 38.9287 233.414 39.5482 233.414C40.1162 233.414 40.6842 233.26 41.2005 232.95L76.3625 212.606C77.4984 211.987 78.0147 210.851 78.0147 209.715V199.956L70.6313 203.519L41.2005 186.583C40.1679 186.015 38.8771 186.015 37.8444 186.583L15.1259 199.698L9.23978 203.106L0.978516 199.956L1.03014 199.905Z" fill="#BBE0FD"/>
<path d="M1.03027 199.905V210.386H1.08189C1.23679 211.264 1.75311 212.142 2.6825 212.658L37.8445 232.95C38.3609 233.259 38.9288 233.414 39.5484 233.414V220.816L15.1777 199.698L9.29153 203.106L1.03027 199.956V199.905Z" fill="#D6EDFF"/>
<path d="M41.2525 176.722L76.3629 196.962C78.5831 198.252 78.5831 201.454 76.3629 202.745L41.2009 223.088C40.1683 223.707 38.8774 223.707 37.8448 223.088L2.68274 202.796C0.462525 201.505 0.462525 198.304 2.68274 197.013L37.8964 176.722C38.9291 176.102 40.2199 176.102 41.2525 176.722Z" fill="white"/>
<path d="M41.2525 176.412L76.3629 196.652C78.5831 197.943 78.5831 201.144 76.3629 202.435L41.2009 222.778C40.1683 223.398 38.8774 223.398 37.8448 222.778L2.68274 202.486C0.462525 201.195 0.462525 197.994 2.68274 196.703L37.8964 176.412C38.9291 175.792 40.2199 175.792 41.2525 176.412Z" fill="white"/>
<g style="mix-blend-mode:multiply" opacity="0.3">
<path d="M15.1255 200.37L38.7733 186.532C39.4445 186.171 40.2706 186.119 40.8902 186.532L65.261 200.421C66.7067 201.247 66.7067 203.313 65.261 204.139L41.2517 217.976C40.5805 218.338 39.7544 218.338 39.1348 217.976L15.0738 204.087C13.6797 203.261 13.6281 201.196 15.0738 200.37H15.1255Z" fill="#15325C"/>
</g>
<path d="M59.2196 191.334L40.4253 202.228L40.2188 213.174L59.0131 202.486L59.2196 191.334Z" fill="#A9D1EA"/>
<path d="M21.6309 191.334L40.1671 180.491L59.2196 191.334L40.4252 202.228L21.6309 191.334Z" fill="#BBE0FD"/>
<path d="M29.7891 191.334L40.064 185.293L50.7004 191.334L40.2189 197.375L29.7891 191.334Z" fill="#15325C"/>
<path d="M21.6309 202.486V191.334L40.4252 202.228L40.2187 213.174L21.6309 202.486Z" fill="#77B8E0"/>
<path d="M42.3361 174.863H37.1729V190.662H42.3361V174.863Z" fill="#15325C"/>
<path d="M39.7539 182.66L48.7897 173.056L49.8223 174.863L40.2702 185.241" fill="#15325C"/>
<path d="M58.6004 171.92C58.6004 172.746 58.4972 173.521 58.239 174.243C57.258 177.445 54.2632 179.82 50.7006 179.82C47.1379 179.82 42.8008 176.309 42.8008 171.92C42.8008 167.531 43.9367 167.221 45.7954 165.776C47.1379 164.691 48.8418 164.072 50.7006 164.072C55.0377 164.072 58.6004 167.583 58.6004 171.972V171.92Z" fill="#77B8E0"/>
<g style="mix-blend-mode:multiply" opacity="0.2">
<path d="M58.2908 174.244C57.8777 175.638 57.1032 176.825 56.0189 177.755C54.6248 178.994 52.7661 179.768 50.7524 179.768C46.4152 179.768 42.8525 176.257 42.8525 171.868C42.8525 167.48 42.8525 171.352 42.8525 171.094C43.0591 168.925 44.1433 167.015 45.7956 165.724C45.6407 174.037 52.4563 174.812 58.2392 174.244H58.2908Z" fill="#77B8E0"/>
</g>
<g style="mix-blend-mode:multiply" opacity="0.2">
<path d="M56.0189 177.754C54.6248 178.994 52.7661 179.768 50.7524 179.768C46.4152 179.768 42.8525 176.257 42.8525 171.868C42.8525 167.479 42.8525 171.352 42.8525 171.094C44.3499 176.618 50.391 178.426 55.9673 177.754H56.0189Z" fill="#77B8E0"/>
</g>
<path d="M52.4041 164.123C52.4041 165.414 52.1976 166.653 51.8362 167.841C50.2355 172.952 45.4853 176.67 39.8573 176.67C34.2293 176.67 27.3105 171.042 27.3105 164.123C27.3105 157.204 29.1693 156.636 32.0607 154.313C34.2293 152.609 36.9142 151.576 39.8573 151.576C46.7761 151.576 52.4041 157.204 52.4041 164.123Z" fill="#77B8E0"/>
<g style="mix-blend-mode:multiply" opacity="0.2">
<path d="M51.8362 167.841C51.1649 170.009 49.9257 171.972 48.2735 173.469C46.0533 175.483 43.1102 176.722 39.8573 176.722C32.9385 176.722 27.3105 171.094 27.3105 164.175C27.3105 157.256 27.3105 163.349 27.3622 162.936C27.7236 159.476 29.4275 156.43 32.0091 154.365C31.751 167.634 42.6455 168.822 51.8362 167.893V167.841Z" fill="#77B8E0"/>
</g>
<g style="mix-blend-mode:multiply" opacity="0.2">
<path d="M48.2735 173.469C46.0533 175.483 43.1102 176.722 39.8573 176.722C32.9385 176.722 27.3105 171.094 27.3105 164.175C27.3105 157.256 27.3105 163.349 27.3622 162.936C29.6856 171.713 39.341 174.553 48.2735 173.469Z" fill="#77B8E0"/>
</g>
<path d="M87.6699 258.405L87.8248 258.302C87.8764 258.405 87.9797 258.508 88.0829 258.56L129.183 282.259C129.286 282.311 129.441 282.362 129.544 282.362C129.699 282.362 129.854 282.362 130.009 282.259L140.439 276.115C140.748 275.96 140.852 275.65 140.8 275.34V268.318L135.482 271.881L129.493 268.422L99.3906 251.073C99.1324 250.918 98.8226 250.918 98.6161 251.073L94.8468 253.242L87.6699 250.97V258.405Z" fill="#D6EDFF"/>
<path d="M129.492 268.473V282.414C129.647 282.414 129.802 282.414 129.957 282.311L140.387 276.166C140.696 276.012 140.8 275.702 140.748 275.392V268.37L135.43 271.933L129.44 268.473H129.492Z" fill="#BBE0FD"/>
<path d="M140.387 269.041L129.957 275.185C129.699 275.34 129.389 275.34 129.131 275.185L88.0308 251.486C87.5145 251.176 87.5145 250.401 88.0308 250.092L98.5639 243.999C98.8221 243.844 99.1319 243.844 99.3384 243.999L140.283 267.647C140.8 267.957 140.8 268.731 140.283 269.041H140.387Z" fill="white"/>
<path d="M140.387 268.834L129.957 274.979C129.699 275.134 129.389 275.134 129.131 274.979L88.0308 251.279C87.5145 250.969 87.5145 250.195 88.0308 249.885L98.5639 243.792C98.8221 243.638 99.1319 243.638 99.3384 243.792L140.283 267.44C140.8 267.75 140.8 268.525 140.283 268.834H140.387Z" fill="white"/>
<path d="M103.83 241.314L103.985 241.211C104.037 241.314 104.14 241.418 104.243 241.469L145.343 265.169C145.446 265.22 145.601 265.272 145.704 265.272C145.859 265.272 146.014 265.272 146.169 265.169L156.599 259.024C156.909 258.869 157.012 258.56 156.96 258.25V251.228L151.642 254.79L145.653 251.331L115.551 233.982C115.293 233.827 114.983 233.827 114.776 233.982L111.007 236.151L103.83 233.879V241.314Z" fill="#D6EDFF"/>
<path d="M145.704 251.383V265.323C145.859 265.323 146.014 265.323 146.169 265.22L156.599 259.076C156.908 258.921 157.012 258.611 156.96 258.301V251.279L151.642 254.842L145.652 251.383H145.704Z" fill="#BBE0FD"/>
<path d="M156.598 252.002L146.169 258.146C145.91 258.301 145.601 258.301 145.342 258.146L104.243 234.447C103.726 234.137 103.726 233.363 104.243 233.053L114.776 226.96C115.034 226.805 115.344 226.805 115.55 226.96L156.495 250.608C157.011 250.918 157.011 251.692 156.495 252.002H156.598Z" fill="white"/>
<path d="M156.598 251.744L146.169 257.888C145.91 258.043 145.601 258.043 145.342 257.888L104.243 234.189C103.726 233.879 103.726 233.105 104.243 232.795L114.776 226.702C115.034 226.547 115.344 226.547 115.55 226.702L156.495 250.35C157.011 250.66 157.011 251.434 156.495 251.744H156.598Z" fill="white"/>
</svg>
