<svg width="312" height="239" viewBox="0 0 312 239" fill="none" xmlns="http://www.w3.org/2000/svg">
<path d="M0.0226865 126.413V136.055L0.0680596 136.01C0.204181 136.872 0.703294 137.666 1.5654 138.142L33.9623 156.836C34.4387 157.109 34.9832 157.245 35.5277 157.245C36.0495 157.245 36.5713 157.109 37.0477 156.836L69.4673 138.052C70.4882 137.462 70.9873 136.418 70.9873 135.375V126.368L64.1812 129.68L37.0704 114.072C36.1175 113.527 34.9378 113.527 33.985 114.072L13.045 126.141L7.60011 129.272L0 126.368L0.0226865 126.413Z" fill="#BBE0FD"/>
<path d="M0.0224609 126.413V136.055L0.067834 136.01C0.203955 136.872 0.703068 137.666 1.56517 138.142L33.9621 156.836C34.4385 157.108 34.983 157.245 35.5274 157.245V145.629L13.0901 126.164L7.64526 129.294L0.0451475 126.39L0.0224609 126.413Z" fill="#D6EDFF"/>
<path d="M37.0927 105.042L69.4669 123.668C71.5314 124.848 71.5314 127.82 69.4669 129L37.0473 147.784C36.0944 148.329 34.9147 148.329 33.9619 147.784L1.56498 129.09C-0.499525 127.911 -0.499525 124.939 1.56498 123.759L34.0072 105.042C34.9601 104.498 36.1398 104.498 37.0927 105.042Z" fill="white"/>
<path d="M37.0936 104.747L69.4678 123.373C71.5323 124.553 71.5323 127.525 69.4678 128.705L37.0483 147.489C36.0954 148.034 34.9157 148.034 33.9628 147.489L1.56596 128.795C-0.498549 127.616 -0.498549 124.644 1.56596 123.464L34.0082 104.747C34.9611 104.203 36.1408 104.203 37.0936 104.747Z" fill="white"/>
<g style="mix-blend-mode:multiply" opacity="0.3">
<path d="M9.84668 131.223L13.1817 133.242L16.0629 131.586C16.6074 131.768 17.1745 131.904 17.7871 131.994V133.923H21.8254V132.063C22.5967 131.972 23.3454 131.79 24.026 131.586L27.066 133.31L30.401 131.291L27.361 129.567C27.9281 128.909 28.2684 128.16 28.2684 127.389C28.2684 126.618 27.9281 125.824 27.3156 125.143L30.2195 123.487L26.8845 121.559L23.9806 123.192C23.3681 123.01 22.7328 122.852 22.0522 122.761V120.855H18.014V122.761C17.3334 122.852 16.6981 123.01 16.1083 123.192L13.3631 121.649L10.0282 123.578L12.7733 125.143C12.1607 125.824 11.8204 126.572 11.8204 127.389C11.8204 128.206 12.1381 128.909 12.7279 129.567L9.84668 131.2V131.223ZM17.4014 127.412C17.4014 126.572 18.5811 125.869 20.0331 125.869C21.4851 125.869 22.6648 126.55 22.6648 127.412C22.6648 128.274 21.4851 128.954 20.0331 128.954C18.5811 128.954 17.4014 128.274 17.4014 127.412Z" fill="#15325C"/>
</g>
<path d="M9.84668 122.285L12.7279 120.651C12.1607 119.993 11.8204 119.244 11.8204 118.473C11.8204 117.702 11.8658 115.887 11.8658 115.887C11.8658 115.887 12.4784 116.567 12.7733 116.227L10.0282 114.662L13.3631 112.733L16.1083 114.276C17.288 113.913 18.6265 113.686 20.0558 113.686C21.4851 113.686 22.8236 113.89 24.0033 114.276L26.9072 112.643L30.2422 114.571L27.3383 116.227C27.6332 116.567 28.3138 115.705 28.3138 115.705C28.3138 115.705 28.2911 118.065 28.2911 118.473C28.2911 119.267 27.9735 119.993 27.3836 120.651L30.4237 122.375L27.0887 124.394L24.0487 122.67C22.869 123.056 21.5077 123.26 20.0558 123.26C18.6038 123.26 17.2653 123.033 16.0856 122.67L13.2043 124.326L9.86936 122.307L9.84668 122.285Z" fill="#E8A302"/>
<path d="M21.8029 122.284H17.7646V124.916H21.8029V122.284Z" fill="#FEC400"/>
<path d="M13.1817 121.581V124.303L9.84668 122.284V119.562L13.1817 121.581Z" fill="#FEC400"/>
<path d="M10.0283 111.917V114.639L12.0475 115.796L13.1818 113.323L10.0283 111.917Z" fill="#FEC400"/>
<path d="M27.0664 121.672V124.394L30.4014 122.375V119.653L27.0664 121.672Z" fill="#FEC400"/>
<path d="M30.22 111.848V114.548L28.0647 115.796L27.1572 113.505L30.22 111.848Z" fill="#FEC400"/>
<path d="M9.84668 119.562L13.1817 121.581L16.0629 119.925C16.6074 120.107 17.1745 120.243 17.7871 120.334V122.262H21.8254V120.402C22.5967 120.311 23.3454 120.129 24.026 119.925L27.066 121.649L30.401 119.63L27.361 117.906C27.9281 117.248 28.2684 116.5 28.2684 115.728C28.2684 114.957 27.9281 114.163 27.3156 113.482L30.2195 111.826L26.8845 109.898L23.9806 111.531C23.3681 111.35 22.7328 111.191 22.0522 111.1V109.194H18.014V111.1C17.3334 111.191 16.6981 111.35 16.1083 111.531L13.3631 109.988L10.0282 111.917L12.7733 113.482C12.1607 114.163 11.8204 114.911 11.8204 115.728C11.8204 116.545 12.1381 117.248 12.7279 117.906L9.84668 119.54V119.562ZM17.4014 115.751C17.4014 114.911 18.5811 114.208 20.0331 114.208C21.4851 114.208 22.6648 114.889 22.6648 115.751C22.6648 116.613 21.4851 117.294 20.0331 117.294C18.5811 117.294 17.4014 116.613 17.4014 115.751Z" fill="#FFD561"/>
<g style="mix-blend-mode:multiply" opacity="0.3">
<path d="M31.3303 129.453L36.1172 132.357L40.2463 129.998C41.0176 130.247 41.857 130.452 42.7191 130.588V133.356H48.5043V130.679C49.6159 130.542 50.6822 130.293 51.6351 129.975L55.991 132.471L60.7779 129.567L56.422 127.094C57.2387 126.164 57.7152 125.098 57.7152 123.963C57.7152 122.829 57.216 121.717 56.3539 120.742L60.5283 118.36L55.7414 115.592L51.5897 117.951C50.7276 117.679 49.7974 117.452 48.8219 117.316V114.594H43.0367V117.316C42.0612 117.452 41.1537 117.679 40.2916 117.951L36.3668 115.728L31.5799 118.496L35.5274 120.764C34.6426 121.717 34.1435 122.829 34.1435 123.986C34.1435 125.143 34.6199 126.186 35.4366 127.117L31.3076 129.453H31.3303ZM42.152 123.986C42.152 122.761 43.8535 121.785 45.9407 121.785C48.0279 121.785 49.7294 122.783 49.7294 123.986C49.7294 125.188 48.0279 126.187 45.9407 126.187C43.8535 126.187 42.152 125.188 42.152 123.986Z" fill="#15325C"/>
</g>
<path d="M31.3301 120.061L35.4591 117.724C34.6197 116.794 34.1659 115.728 34.1659 114.594C34.1659 113.459 34.234 110.873 34.234 110.873C34.234 110.873 35.0961 111.848 35.5498 111.372L31.6023 109.103L36.3893 106.336L40.3141 108.559C41.9929 108.014 43.9213 107.719 45.9631 107.719C48.0049 107.719 49.9333 108.014 51.6122 108.559L55.7639 106.199L60.5508 108.967L56.3764 111.349C56.8075 111.826 57.783 110.601 57.783 110.601C57.783 110.601 57.7603 113.981 57.7603 114.571C57.7603 115.705 57.2839 116.772 56.4672 117.702L60.823 120.175L56.0361 123.079L51.6802 120.583C49.9787 121.127 48.0503 121.445 45.9631 121.445C43.8759 121.445 41.9475 121.127 40.2687 120.583L36.1397 122.942L31.3528 120.038L31.3301 120.061Z" fill="#E8A302"/>
<path d="M48.459 120.061H42.6738V123.827H48.459V120.061Z" fill="#FEC400"/>
<path d="M36.117 119.063V122.965L31.3301 120.061V116.159L36.117 119.063Z" fill="#FEC400"/>
<path d="M31.5801 105.224V109.126L34.484 110.759L36.1175 107.243L31.5801 105.224Z" fill="#FEC400"/>
<path d="M56.0137 119.199V123.078L60.7779 120.197V116.295L56.0137 119.199Z" fill="#FEC400"/>
<path d="M60.5282 105.088V108.99L57.4428 110.759L56.127 107.492L60.5282 105.088Z" fill="#FEC400"/>
<path d="M31.3303 116.159L36.1172 119.063L40.2463 116.703C41.0176 116.953 41.857 117.157 42.7191 117.293V120.061H48.5043V117.384C49.6159 117.248 50.6822 116.998 51.6351 116.681L55.991 119.176L60.7779 116.272L56.422 113.8C57.2387 112.869 57.7152 111.803 57.7152 110.669C57.7152 109.534 57.216 108.423 56.3539 107.447L60.5283 105.065L55.7414 102.297L51.5897 104.657C50.7276 104.384 49.7974 104.158 48.8219 104.021V101.299H43.0367V104.021C42.0612 104.158 41.1537 104.384 40.2916 104.657L36.3668 102.433L31.5799 105.201L35.5274 107.47C34.6426 108.423 34.1435 109.534 34.1435 110.691C34.1435 111.848 34.6199 112.892 35.4366 113.822L31.3076 116.159H31.3303ZM42.152 110.691C42.152 109.466 43.8535 108.491 45.9407 108.491C48.0279 108.491 49.7294 109.489 49.7294 110.691C49.7294 111.894 48.0279 112.892 45.9407 112.892C43.8535 112.892 42.152 111.894 42.152 110.691Z" fill="#FFD561"/>
<g style="mix-blend-mode:multiply" opacity="0.2">
<path d="M183.718 106.744L42.084 189.007L98.1433 221.358C138.549 244.68 188.369 244.612 228.706 221.131L304.844 176.824L183.741 106.744H183.718Z" fill="#15325C"/>
</g>
<path d="M304.821 150.711L228.684 195.019C188.347 218.5 138.549 218.568 98.1209 195.246L42.0615 162.894L183.696 80.6313L304.798 150.711H304.821Z" fill="#D6EDFF"/>
<path d="M304.821 140.003V150.711L295.633 145.357L304.821 140.003Z" fill="#D6EDFF"/>
<path d="M51.4764 157.426L42.084 162.871V152.186L51.4764 157.426Z" fill="#D6EDFF"/>
<path d="M220.403 187.441L220.585 199.352L304.821 150.711V140.003L168.858 194.973L220.403 187.441Z" fill="#BBE0FD"/>
<path d="M183.718 69.9233L42.084 152.186L98.1433 184.538C138.549 207.86 188.369 207.792 228.706 184.311L304.844 140.003L183.741 69.9233H183.718Z" fill="white"/>
<path d="M99.5953 185.354V196.062L88.4561 189.642V178.934L99.5953 185.354Z" fill="white"/>
<path d="M102.794 187.101V197.787L106.968 199.896V189.188L102.794 187.101Z" fill="white"/>
<path d="M236.47 146.169L207.681 163.536L209.239 166.12L238.029 148.753L236.47 146.169Z" fill="#5B95D3"/>
<path d="M207.144 118.928L205.59 121.514L232.757 137.838L234.311 135.251L207.144 118.928Z" fill="#5B95D3"/>
<path d="M86.4599 52.8852C85.9834 50.6845 84.8491 49.0511 83.1929 48.5293C81.4234 47.9621 79.4042 48.8015 77.6347 50.5938C76.8179 47.6672 75.1845 45.5346 72.8931 44.8086C67.9247 43.2432 61.6858 48.8923 58.986 57.4452C58.8272 57.967 58.6684 58.4888 58.555 58.9879C55.9006 59.8047 53.2009 62.9808 51.8397 67.2687C51.2271 69.197 50.9776 71.1027 51.0229 72.8043L50.7507 72.9631C48.6408 74.1655 47.3477 76.4115 47.3477 78.839C47.3477 84.057 52.974 87.3012 57.4887 84.7149L91.156 65.4083C93.2659 64.2059 94.5591 61.9599 94.5591 59.5324C94.5591 55.0858 90.4754 52.0684 86.4599 52.8852Z" fill="white"/>
<path d="M306.931 89.3431L306.568 89.1389C306.636 86.9609 306.319 84.5108 305.525 82.0379C303.8 76.5477 300.329 72.4867 296.926 71.4431C296.767 70.7852 296.563 70.1273 296.359 69.4693C292.911 58.5343 284.948 51.3198 278.595 53.3163C275.669 54.2464 273.581 56.9689 272.515 60.7349C270.269 58.4435 267.683 57.3772 265.414 58.1032C263.304 58.7611 261.875 60.8483 261.24 63.6615C256.113 62.6406 250.895 66.4974 250.895 72.1691C250.895 75.2772 252.551 78.1357 255.25 79.6784L298.287 104.362C304.073 107.674 311.264 103.5 311.264 96.8524C311.264 93.7443 309.608 90.8858 306.908 89.3431H306.931Z" fill="white"/>
<g style="mix-blend-mode:multiply" opacity="0.3">
<path d="M268.227 150.439L268.091 150.529L243.839 164.527L243.68 164.436L219.428 150.439L226.824 146.105L243.499 136.35L260.741 146.174L268.091 150.348L268.227 150.439Z" fill="#15325C"/>
</g>
<path d="M243.839 147.467L243.68 155.974L243.589 161.714L219.428 147.83V141.977L226.824 137.643L243.839 147.467Z" fill="#183561"/>
<path d="M268.092 141.886V142.067L267.978 147.83L243.59 161.714L243.681 155.974L243.839 147.467L260.741 137.711L268.092 141.886Z" fill="#23477C"/>
<path d="M268.227 141.976L268.091 142.067L243.839 156.065L243.68 155.974L219.428 141.976L226.824 137.643L243.499 127.888L260.741 137.711L268.091 141.886L268.227 141.976Z" fill="#3C6A9E"/>
<path d="M227.164 141.954L243.521 132.38L260.446 141.999L243.839 151.596L227.164 141.954Z" fill="#FFD561"/>
<path d="M229.364 141.954L243.521 133.65L258.199 141.999L243.838 150.303L229.364 141.954Z" fill="#5B95D3"/>
<path d="M240.504 141.977L243.725 140.094L247.06 141.977L243.794 143.86L240.504 141.977Z" fill="#BBE0FD"/>
<path d="M243.521 134.762L257.246 142.566L258.199 141.999L243.521 133.65L229.364 141.954L230.317 142.498L243.521 134.762Z" fill="#183561"/>
<path d="M142.95 29.3816L190.933 56.81L238.303 29.3816L190.298 0.705322L142.95 29.3816Z" fill="#5B95D3"/>
<g style="mix-blend-mode:multiply" opacity="0.3">
<path d="M144.447 120.333L187.983 146.673C189.14 147.376 190.592 147.376 191.749 146.696L236.624 120.333C237.827 119.63 238.439 118.405 238.439 117.18C238.439 115.955 237.849 114.73 236.647 114.004L192.181 87.4374C191.024 86.7341 189.549 86.7341 188.392 87.4374L144.447 114.026C142.088 115.456 142.088 118.881 144.447 120.311V120.333Z" fill="#15325C"/>
</g>
<path d="M190.298 56.8103V141.569L238.303 112.892V28.7466L190.298 56.8103Z" fill="#23477C"/>
<path d="M195.924 131.677V60.0089L232.699 38.5244V109.716L195.924 131.677ZM197.172 60.7349V129.476L231.452 108.99V40.6797L197.172 60.7122V60.7349Z" fill="#052754"/>
<path d="M142.95 28.7466V112.892L190.298 141.569V56.8103L142.95 28.7466Z" fill="#3C6A9E"/>
<path d="M148.009 109.467V41.4966C148.009 40.5437 148.463 39.7724 149.12 39.2733C149.96 38.6607 151.14 38.5019 152.16 39.1144L183.877 57.8992C184.716 58.3983 185.238 59.3058 185.238 60.2813V128.66C185.238 130.815 182.901 132.131 181.064 131.019L149.347 111.826C148.531 111.327 148.009 110.442 148.009 109.467Z" fill="#23477C"/>
<path d="M153.612 109.943C152.796 109.444 152.274 108.559 152.274 107.583V39.6136C152.274 39.4774 152.274 39.364 152.297 39.2506L152.07 39.1144C151.049 38.5019 149.869 38.6607 149.03 39.2733C148.372 39.7724 147.918 40.5437 147.918 41.4966V109.466C147.918 110.442 148.417 111.327 149.256 111.826L180.973 131.019C182.697 132.063 184.875 130.951 185.124 129.023L153.612 109.943Z" fill="#052754"/>
<path d="M185.329 63.412L154.157 44.9675V55.5623L185.329 74.0068V63.412Z" fill="#5B95D3"/>
<path d="M185.329 76.5023L154.157 58.0579V68.6526L185.329 87.0971V76.5023Z" fill="#5B95D3"/>
<path d="M185.329 89.5926L154.157 71.1482V81.743L185.329 100.187V89.5926Z" fill="#5B95D3"/>
<path d="M185.329 102.683L154.157 84.2161V94.8108L185.329 113.278V102.683Z" fill="#5B95D3"/>
<path d="M185.329 115.774L154.157 97.3064V107.901L185.329 126.368V115.774Z" fill="#5B95D3"/>
<path d="M159.511 49.9358V56.9007L179.974 69.0155V62.0733L159.511 49.9358Z" fill="#D6EFFB"/>
<path d="M159.511 69.991L179.974 82.1058V75.1636L159.511 63.0261V69.991Z" fill="#D6EFFB"/>
<path d="M159.511 83.0811L179.974 95.1959V88.231L159.511 76.1162V83.0811Z" fill="#D6EFFB"/>
<path d="M159.511 96.1714L179.974 108.286V101.321L159.511 89.2065V96.1714Z" fill="#D6EFFB"/>
<path d="M159.511 109.262L179.974 121.377V114.412L159.511 102.297V109.262Z" fill="#D6EFFB"/>
<path d="M179.249 183.017L178.909 182.836L141.815 161.079L142.519 159.922L179.249 181.452L203.841 167.273L204.522 168.452L179.249 183.017Z" fill="#5B95D3"/>
<g style="mix-blend-mode:multiply" opacity="0.3">
<path d="M230.794 171.56L230.635 171.651L206.383 185.649L206.246 185.558L181.994 171.56L189.39 167.25L206.042 157.472L223.307 167.295L230.635 171.492L230.794 171.56Z" fill="#15325C"/>
</g>
<path d="M206.383 169.224L206.246 177.709L206.133 183.448L181.994 169.587V163.711L189.39 159.4L206.383 169.224Z" fill="#183561"/>
<path d="M230.635 163.62V163.802L230.544 169.587L206.133 183.449L206.246 177.709L206.382 169.224L223.307 159.446L230.635 163.62Z" fill="#23477C"/>
<path d="M230.794 163.711L230.635 163.801L206.383 177.799L206.246 177.708L181.994 163.711L189.39 159.4L206.042 149.622L223.307 159.445L230.635 163.62L230.794 163.711Z" fill="#3C6A9E"/>
<path d="M189.708 163.688L206.088 154.114L222.99 163.734L206.383 173.33L189.708 163.688Z" fill="#FFD561"/>
<path d="M191.908 163.688L206.088 155.385L220.766 163.756L206.382 172.037L191.908 163.688Z" fill="#5B95D3"/>
<path d="M203.07 163.711L206.292 161.828L209.627 163.733L206.36 165.616L203.07 163.711Z" fill="#BBE0FD"/>
<path d="M206.088 156.496L219.79 164.301L220.766 163.756L206.088 155.385L191.908 163.688L192.861 164.233L206.088 156.496Z" fill="#183561"/>
<g style="mix-blend-mode:multiply" opacity="0.3">
<path d="M104.269 146.605C113.428 146.605 120.853 142.278 120.853 136.94C120.853 131.603 113.428 127.276 104.269 127.276C95.1095 127.276 87.6846 131.603 87.6846 136.94C87.6846 142.278 95.1095 146.605 104.269 146.605Z" fill="#15325C"/>
</g>
<path d="M105.744 97.0112L102.976 115.161L97.713 134.581C97.713 134.581 96.9417 135.965 94.5596 133.719L96.8736 115.115L96.0342 89.9783L105.744 97.0112Z" fill="#F4CAAB"/>
<path d="M97.7806 134.331C97.7806 134.331 101.388 136.827 101.705 137.893C102.023 138.959 101.819 139.958 100.821 139.776C99.8225 139.595 94.6952 138.347 93.0164 137.757C91.3376 137.167 94.6725 133.038 94.6725 133.038C94.6725 133.038 95.0128 135.329 97.7579 134.309L97.7806 134.331Z" fill="#052754"/>
<path d="M112.028 93.5177L112.754 111.849L111.279 131.927C111.279 131.927 110.78 133.424 108.012 131.677L106.765 112.824L101.184 88.4585L112.051 93.5177H112.028Z" fill="#F4CAAB"/>
<path d="M111.256 131.677C111.256 131.677 115.272 133.446 115.771 134.445C116.27 135.443 116.27 136.464 115.272 136.464C114.274 136.464 108.988 136.214 107.218 135.965C105.449 135.715 107.967 131.019 107.967 131.019C107.967 131.019 108.738 133.197 111.256 131.677Z" fill="#052754"/>
<path d="M113.367 111.849C113.094 117.883 112.278 129.431 112.278 129.431C112.278 129.431 108.149 130.52 107.06 129.431L106.924 120.515L106.788 112.393L101.842 94.2436L105.608 93.4496L112.006 92.0884C112.006 92.0884 113.662 105.837 113.389 111.871L113.367 111.849Z" fill="#F1249A"/>
<path d="M107.581 111.849L106.878 120.515L106.742 112.393L101.796 94.2437L105.562 93.4497C105.448 104.135 107.558 111.871 107.558 111.871L107.581 111.849Z" fill="#BC1D87"/>
<path d="M95.7841 93.994C96.0563 95.6501 96.873 114.299 96.873 114.299L94.4229 129.998C96.079 132.199 99.3686 131.087 99.3686 131.087L103.77 114.866L106.515 101.118V94.5158C106.515 94.5158 95.5345 92.3152 95.8068 93.9713L95.7841 93.994Z" fill="#F1249A"/>
<path d="M130.133 82.401C130.133 82.401 131.131 81.4482 132.061 81.6751C132.969 81.9019 132.243 82.8775 132.243 82.8775C134.829 84.1706 134.239 84.9647 134.239 84.9647C133.808 86.8023 132.878 86.5754 132.878 86.5754C131.743 86.6662 129.066 84.6697 129.066 84.6697L130.133 82.3784V82.401Z" fill="#F9BEAE"/>
<path d="M130.631 81.7883L118.471 78.2038C118.471 78.2038 113.026 70.5356 109.85 68.0627L107.422 72.0103L106.605 73.3488C106.605 73.3488 114.523 82.4009 116.225 82.7638C117.835 83.1042 128.362 85.1006 129.542 85.3048H129.565C129.565 85.3048 129.587 85.3048 129.61 85.3048H129.633L130.631 81.7656V81.7883Z" fill="#FFD561"/>
<path d="M106.424 66.8378L99.7994 59.7141C97.1678 65.9303 102.091 70.6492 95.6251 75.5496C89.1593 80.4499 111.597 87.1199 106.424 66.8378Z" fill="#052754"/>
<path d="M95.4211 76.6611L95.716 78.0677C96.8504 83.5806 96.7596 89.2523 95.4211 94.7199C95.4211 94.7199 107.037 97.7826 112.504 93.2225L112.459 92.973C111.642 88.1407 111.37 83.2176 111.597 78.3172L111.96 70.6037C111.96 70.6037 111.778 69.3786 110.735 68.335C110.213 67.8132 109.532 67.4956 108.829 67.4049C108.126 67.3141 107.4 67.4502 106.742 67.7905L97.7579 72.6909C97.168 73.0085 96.6689 73.4623 96.2832 73.9841C95.716 74.7554 95.3984 75.6856 95.3984 76.6838L95.4211 76.6611Z" fill="#FEC400"/>
<path d="M106.833 71.5112C106.833 71.5112 103.43 72.5548 101.955 70.9213V62.3003L103.452 63.8203L106.379 66.7923L106.719 70.3314L106.833 71.5338V71.5112Z" fill="#F9BEAE"/>
<g style="mix-blend-mode:multiply">
<path d="M106.719 70.3088C105.108 69.1744 103.475 67.178 103.452 63.8203L106.379 66.7923L106.719 70.3315V70.3088Z" fill="#F9BEAE"/>
</g>
<path d="M112.028 70.5811L111.029 80.6313C115.816 78.3627 112.028 70.5811 112.028 70.5811Z" fill="#FEC400"/>
<path d="M111.711 96.6709C111.711 96.6709 113.049 96.3306 113.753 96.9432C114.456 97.5784 113.322 98.1002 113.322 98.1002C114.978 100.482 114.07 100.891 114.07 100.891C112.822 102.297 112.119 101.662 112.119 101.662C111.076 101.186 109.669 98.1683 109.669 98.1683L111.711 96.6709Z" fill="#F9BEAE"/>
<path d="M112.436 96.3988L103.452 87.4375C103.452 87.4375 102.545 79.7693 101.161 75.5949C100.911 74.8689 100.435 74.2337 99.7995 73.8026C98.7333 73.0766 97.4401 73.1901 96.5326 73.8253C95.7613 74.3471 95.2622 75.2319 95.3075 76.3209V77.183C95.3529 77.4098 95.3756 77.6367 95.421 77.8409C95.852 79.7466 98.1207 89.3431 99.3004 90.3641C100.548 91.4303 108.852 98.2137 109.782 98.9624C109.782 98.9624 109.782 98.9624 109.804 98.9851C109.804 98.9851 109.827 98.9851 109.827 99.0078L109.85 99.0305L112.413 96.3988H112.436Z" fill="#FFD561"/>
<path d="M108.693 58.0581C108.693 58.0581 112.709 68.7663 108.149 68.9478C103.589 69.1293 101.048 64.297 101.048 64.297L102.976 59.6235L108.671 58.0581H108.693Z" fill="#F9BEAE"/>
<path d="M101.433 58.1034C96.283 61.6879 101.751 65.3632 101.751 65.3632L102.794 65.0229C103.906 64.2969 103.883 62.9357 103.883 62.9357C107.468 64.4784 108.262 61.2795 110.009 62.5954C111.12 58.0353 106.583 54.4961 101.433 58.1034Z" fill="#156DE1"/>
<path d="M103.043 64.1153C103.701 64.7278 103.838 65.6353 103.384 66.1117C102.93 66.5882 102.023 66.4747 101.387 65.8395C100.729 65.227 100.593 64.3195 101.047 63.8431C101.501 63.3666 102.408 63.4801 103.043 64.1153Z" fill="#F9BEAE"/>
<path d="M110.19 59.8049C107.967 57.1959 103.77 60.7578 103.77 60.7578L102.931 63.5029C103.77 64.8868 103.43 64.8868 103.725 65.4313C104.042 65.9758 104.315 63.7751 104.315 63.7751C109.079 64.8641 112.391 62.4139 110.168 59.8049H110.19Z" fill="#156DE1"/>
<g style="mix-blend-mode:multiply" opacity="0.3">
<path d="M172.943 158.084L172.67 158.243L127.274 184.446L127.002 184.287L81.6279 158.084L95.4442 149.985L126.639 131.722L158.922 150.098L172.67 157.925L172.943 158.084Z" fill="#15325C"/>
</g>
<path d="M127.274 153.683L127.002 169.586L126.798 180.317L81.6279 154.363V143.383L95.4442 135.284L127.274 153.683Z" fill="#183561"/>
<path d="M172.67 143.224V143.542L172.466 154.363L126.797 180.317L127.001 169.586L127.273 153.683L158.922 135.397L172.67 143.224Z" fill="#23477C"/>
<path d="M172.943 143.383L172.67 143.542L127.274 169.745L127.002 169.587L81.6279 143.383L95.4442 135.284L126.639 117.021L158.922 135.397L172.67 143.224L172.943 143.383Z" fill="#3C6A9E"/>
<path d="M96.0566 143.338L126.707 125.415L158.355 143.428L127.274 161.374L96.0566 143.338Z" fill="#FFD561"/>
<path d="M100.186 143.338L126.707 127.797L154.18 143.451L127.274 158.969L100.186 143.338Z" fill="#5B95D3"/>
<path d="M121.058 143.383L127.07 139.844L133.309 143.406L127.206 146.922L121.058 143.383Z" fill="#BBE0FD"/>
<path d="M126.707 129.884L152.365 144.495L154.18 143.451L126.707 127.797L100.186 143.338L101.978 144.359L126.707 129.884Z" fill="#183561"/>
</svg>
