<svg width="300" height="326" viewBox="0 0 300 326" fill="none" xmlns="http://www.w3.org/2000/svg">
<g style="mix-blend-mode:multiply" opacity="0.2">
<path d="M296.247 235.214C296.052 235.361 295.905 235.459 295.709 235.557L223.237 277.417L210.229 284.899L141.228 324.705C139.566 325.634 137.659 325.927 135.898 325.536C135.165 325.39 134.48 325.096 133.795 324.705L64.3546 284.41L63.67 284.019C63.4743 283.921 63.3277 283.774 63.132 283.676C61.0293 282.209 59.9534 279.911 59.9534 277.612C59.9534 275.314 61.1759 272.575 63.7188 271.157L64.3546 270.766L94.3314 253.65C94.527 253.553 94.7227 253.406 94.9183 253.259C99.2706 250.227 99.1238 243.626 94.4293 240.838L54.4764 217.023L52.9604 216.094C52.8137 215.996 52.6181 215.898 52.5203 215.8C50.5642 214.431 49.5373 212.426 49.3906 210.274C49.3906 209.883 49.3906 209.492 49.3906 209.101C49.3906 209.003 49.3906 208.905 49.3906 208.807C49.6351 206.607 50.9066 204.504 53.1072 203.233L154.627 145.431C156.926 144.11 159.713 144.159 162.012 145.431L295.612 222.647C300.355 225.385 300.551 232.085 296.15 235.166L296.247 235.214Z" fill="#15325C"/>
</g>
<path d="M299.328 187.339L299.475 177.315L162.159 106.162C159.86 104.842 157.073 104.842 154.774 106.162L54.6233 163.182L49.5374 157.363V169.735C49.2929 172.424 50.4666 175.212 53.1073 176.777L94.5761 201.472C94.7228 201.57 94.9184 201.668 95.0651 201.765C99.4663 204.846 99.2707 211.595 94.4783 214.284L75.7 224.994L67.24 229.835L67.5334 229.542L60.1002 226.119V237.708C59.9046 240.349 61.1272 243.137 63.8168 244.652L130.079 283.138L133.942 285.388C134.676 285.828 135.458 286.072 136.241 286.268C137.952 286.61 139.81 286.317 141.375 285.437L210.376 245.631L223.384 238.149L294.096 198.245C295.759 197.267 297.177 195.946 298.204 194.381C299.524 192.327 299.573 189.931 299.475 187.437L299.328 187.339Z" fill="#D6EDFF"/>
<path d="M210.278 233.405V245.582L223.237 238.051V225.923L210.278 233.405Z" fill="white"/>
<path d="M225.927 224.358V236.535L230.768 233.747V221.571L225.927 224.358Z" fill="white"/>
<path d="M136.143 274.238V286.219L130.03 283.138L63.768 244.652C61.1273 243.136 59.9047 240.349 60.1003 237.708V226.119C60.1003 223.625 61.3229 221.082 63.8169 219.664L64.4526 219.272C67.9735 221.131 72.0813 223.282 75.6511 225.043C79.6611 226.999 82.9865 228.564 84.1112 228.759C87.5343 229.346 132.524 270.864 135.947 274.042C136.094 274.189 136.143 274.238 136.143 274.238Z" fill="#BBE0FD"/>
<path d="M296.247 183.721C296.052 183.867 295.905 183.965 295.709 184.063L223.237 225.923L210.229 233.405L141.228 273.211C139.566 274.14 137.659 274.434 135.898 274.042C135.165 273.896 134.48 273.602 133.795 273.211L64.3546 232.916L63.67 232.525C63.4743 232.427 63.3277 232.28 63.132 232.182C61.0293 230.715 59.9534 228.417 59.9534 226.119C59.9534 223.82 61.1759 221.082 63.7188 219.664L64.3546 219.272L94.3314 202.157C94.527 202.059 94.7227 201.912 94.9183 201.765C99.2706 198.734 99.1238 192.132 94.4293 189.344L54.4764 165.529L52.9604 164.6C52.8137 164.502 52.6181 164.404 52.5203 164.307C50.5642 162.937 49.5373 160.932 49.3906 158.781C49.3906 158.389 49.3906 157.998 49.3906 157.607C49.3906 157.509 49.3906 157.411 49.3906 157.314C49.6351 155.113 50.9066 153.01 53.1072 151.739L154.627 93.9367C156.926 92.6164 159.713 92.6653 162.012 93.9367L295.612 171.153C300.355 173.891 300.551 180.591 296.15 183.672L296.247 183.721Z" fill="white"/>
<path d="M74.722 194.919V205.091H74.6731C74.5264 205.971 73.9885 206.802 73.1083 207.291L39.0236 226.999C38.5346 227.292 37.9478 227.439 37.4099 227.439C36.872 227.439 36.2851 227.292 35.7961 226.999L1.66256 207.242C0.586713 206.607 0.0488281 205.531 0.0488281 204.455V194.968L7.18849 198.44L35.7472 182.009C36.7742 181.422 37.9967 181.422 38.9747 182.009L61.0295 194.724L66.751 198L74.7709 194.919H74.722Z" fill="#BBE0FD"/>
<path d="M74.7223 194.919V205.091H74.6734C74.5267 205.971 73.9888 206.802 73.1085 207.291L39.0239 226.999C38.5349 227.292 37.9481 227.439 37.4102 227.439V215.214L61.0297 194.724L66.7513 198L74.7712 194.919H74.7223Z" fill="#D6EDFF"/>
<path d="M35.6984 172.424L1.61376 192.034C-0.537921 193.257 -0.537921 196.386 1.61376 197.658L35.7473 217.414C36.7743 218.001 37.9968 218.001 38.9748 217.414L73.0594 197.707C75.2111 196.435 75.2111 193.354 73.0594 192.083L38.877 172.375C37.899 171.789 36.6275 171.789 35.6495 172.375L35.6984 172.424Z" fill="white"/>
<path d="M35.6984 172.131L1.61376 191.741C-0.537921 192.963 -0.537921 196.093 1.61376 197.364L35.7473 217.121C36.7743 217.707 37.9968 217.707 38.9748 217.121L73.0594 197.413C75.2111 196.142 75.2111 193.061 73.0594 191.789L38.877 172.082C37.899 171.495 36.6275 171.495 35.6495 172.082L35.6984 172.131Z" fill="white"/>
<g style="mix-blend-mode:multiply" opacity="0.3">
<path d="M10.6113 192.816L36.8227 177.461L63.7188 192.816L37.1651 208.123L10.6113 192.816Z" fill="#15325C"/>
</g>
<path d="M10.6113 168.023L36.8227 152.717L63.7188 168.023L37.1651 183.33L10.6113 168.023Z" fill="#D6EFFB"/>
<path d="M10.6113 183.721V168.023L37.1651 183.329L36.8716 198.831L10.6113 183.721Z" fill="#77B8E0"/>
<path d="M63.7192 168.023L37.1655 183.329L36.8721 198.831L63.4258 183.721L63.7192 168.023Z" fill="#A9D1EA"/>
<path d="M10.3672 140.589L36.5297 125.283L63.4257 140.589L36.872 155.896L10.3672 140.589Z" fill="#BBE0FD"/>
<path d="M10.3672 156.287V140.589L36.872 155.896L36.6275 171.397L10.3672 156.287Z" fill="#77B8E0"/>
<path d="M63.4262 140.589L36.8724 155.896L36.6279 171.397L63.1328 156.287L63.4262 140.589Z" fill="#A9D1EA"/>
<path d="M164.604 148.805V145.626L162.354 147.044L139.908 134.085C139.371 133.792 138.735 133.792 138.197 134.085L109.589 150.419L107.34 149.098V152.57H107.389C107.438 152.766 107.633 153.01 107.878 153.157L132.035 167.143C132.573 167.436 133.209 167.436 133.747 167.143L164.115 149.587C164.408 149.392 164.555 149.098 164.555 148.805H164.604Z" fill="#183561"/>
<path d="M138.197 130.662L107.927 147.924C107.242 148.316 107.242 149.294 107.927 149.734L132.084 163.72C132.622 164.013 133.258 164.013 133.796 163.72L164.164 146.164C164.751 145.822 164.751 144.99 164.164 144.648L139.908 130.662C139.37 130.369 138.735 130.369 138.197 130.662Z" fill="#D6EFFB"/>
<path d="M146.51 124.794L144.114 142.594L127.927 155.798L125.531 154.428C125.237 154.282 124.944 154.037 124.797 153.744C124.651 153.45 124.504 153.108 124.504 152.766V136.335C124.504 135.944 124.651 135.552 124.846 135.21C125.042 134.868 125.286 134.623 125.629 134.428L143.282 124.158C143.869 123.816 144.554 123.816 145.14 124.06L146.51 124.696V124.794Z" fill="#183561"/>
<path d="M148.515 124.06L148.467 143.914L127.879 155.798V136.041L148.515 124.06Z" fill="#3C6A9E"/>
<path d="M182.649 1.21878L187.441 3.81058L180.302 99.4138L81.3731 163.72L77.4609 161.617C76.4829 161.079 75.6516 160.297 75.1137 159.368C74.5757 158.438 74.2334 157.363 74.2334 156.238V64.7913C74.2334 63.9599 74.4779 63.1286 74.8691 62.444C75.2604 61.7593 75.8472 61.1236 76.5807 60.7324L177.954 1.36548C178.59 1.02317 179.275 0.778663 179.959 0.729761C180.888 0.631957 181.818 0.827553 182.649 1.26767V1.21878Z" fill="#A9D1EA"/>
<path d="M187.441 3.76172V103.228L81.373 163.671V65.8671L187.441 3.76172Z" fill="#D6EFFB"/>
<path d="M185.241 15.8405V95.5506L172.673 102.69L168.907 104.842L143.136 119.561L128.857 127.679L106.46 140.443L84.6494 152.864V74.7183L105.971 62.2484L117.511 55.451L135.703 44.8393L157.611 31.9781L171.255 24.0071L181.231 18.1877L185.241 15.8405Z" fill="#183561"/>
<g style="mix-blend-mode:multiply" opacity="0.3">
<path d="M234.583 171.3L259.034 156.971C259.718 156.58 260.55 156.58 261.234 156.971L286.419 171.3C287.886 172.131 287.886 174.283 286.419 175.114L261.625 189.442C260.941 189.833 260.11 189.833 259.425 189.442L234.583 175.114C233.116 174.283 233.116 172.131 234.583 171.3Z" fill="#15325C"/>
</g>
<path d="M280.159 162.008L260.745 173.255L260.55 184.552L279.964 173.549L280.159 162.008Z" fill="#A9D1EA"/>
<path d="M241.331 162.008L260.452 150.81L280.159 162.008L260.745 173.256L241.331 162.008Z" fill="#BBE0FD"/>
<path d="M249.742 162.008L260.403 155.798L271.357 162.008L260.55 168.268L249.742 162.008Z" fill="#15325C"/>
<path d="M241.331 173.549V162.008L260.745 173.255L260.55 184.552L241.331 173.549Z" fill="#77B8E0"/>
<path d="M269.792 157.118C268.814 158.585 267.494 160.003 265.635 161.177C261.332 164.649 253.508 163.818 251.356 159.612C251.356 159.612 247.737 156.58 248.324 151.397C249.253 153.988 251.503 155.504 251.747 155.7C248.177 152.668 250.476 143.719 250.476 143.719C250.476 143.719 251.356 147.778 254.975 150.761C254.975 150.761 253.85 144.795 255.268 139.073C255.953 136.237 257.273 133.45 259.669 131.542C258.691 140.638 263.337 146.409 263.337 146.409C266.369 142.79 265.635 137.459 265.635 137.459C265.635 137.459 269.988 145.822 267.983 152.179C270.721 151.152 272.286 148.707 272.286 148.707C272.286 148.707 272.531 153.01 269.841 157.069L269.792 157.118Z" fill="#77B8E0"/>
<g style="mix-blend-mode:multiply" opacity="0.3">
<path d="M269.792 157.118C268.814 158.585 267.494 160.003 265.635 161.177C264.608 162.008 263.337 162.595 262.017 162.937C257.86 164.013 253.019 162.791 251.356 159.612C251.356 159.612 247.737 156.58 248.324 151.397C249.253 153.988 251.503 155.504 251.747 155.7C248.177 152.668 250.476 143.719 250.476 143.719C250.476 143.719 250.818 145.382 252.041 147.387C252.725 148.511 253.654 149.734 254.926 150.81C254.926 150.81 253.801 144.844 255.219 139.122C255.219 151.886 261.772 157.265 269.792 157.069V157.118Z" fill="#77B8E0"/>
</g>
<g style="mix-blend-mode:multiply" opacity="0.3">
<path d="M262.017 162.986C257.86 164.062 253.019 162.84 251.356 159.661C251.356 159.661 247.737 156.629 248.324 151.445C249.253 154.037 251.503 155.553 251.747 155.749C248.177 152.717 250.476 143.768 250.476 143.768C250.476 143.768 250.818 145.43 252.041 147.435C253.263 156.58 258.398 160.981 262.017 162.986Z" fill="#77B8E0"/>
</g>
<path d="M257.372 153.157C257.861 153.939 258.545 154.673 259.523 155.26C261.773 157.069 265.831 156.629 266.956 154.428C266.956 154.428 268.814 152.864 268.521 150.174C268.032 151.494 266.858 152.326 266.761 152.423C268.619 150.859 267.445 146.213 267.445 146.213C267.445 146.213 267.005 148.316 265.098 149.881C265.098 149.881 265.685 146.8 264.951 143.817C264.609 142.35 263.875 140.883 262.653 139.905C263.191 144.648 260.746 147.631 260.746 147.631C259.181 145.773 259.572 142.985 259.572 142.985C259.572 142.985 257.323 147.338 258.35 150.614C256.931 150.076 256.1 148.805 256.1 148.805C256.1 148.805 255.953 151.054 257.372 153.157Z" fill="#77B8E0"/>
<g style="mix-blend-mode:multiply" opacity="0.3">
<path d="M257.371 153.157C257.86 153.94 258.545 154.673 259.523 155.26C260.061 155.7 260.696 155.993 261.43 156.189C263.582 156.776 266.124 156.091 266.956 154.477C266.956 154.477 268.814 152.913 268.521 150.223C268.032 151.543 266.858 152.375 266.76 152.472C268.619 150.908 267.445 146.262 267.445 146.262C267.445 146.262 267.249 147.142 266.614 148.169C266.271 148.756 265.782 149.392 265.097 149.93C265.097 149.93 265.684 146.849 264.951 143.866C264.951 150.516 261.577 153.304 257.371 153.206V153.157Z" fill="#77B8E0"/>
</g>
<g style="mix-blend-mode:multiply" opacity="0.3">
<path d="M261.431 156.189C263.582 156.776 266.125 156.091 266.957 154.477C266.957 154.477 268.815 152.912 268.521 150.223C268.032 151.543 266.859 152.374 266.761 152.472C268.619 150.907 267.446 146.262 267.446 146.262C267.446 146.262 267.25 147.142 266.614 148.169C265.979 152.912 263.338 155.211 261.431 156.238V156.189Z" fill="#77B8E0"/>
</g>
<path d="M283.924 84.4986V116.04L283.044 116.725L256.148 100.196L255.268 69.3879L256.148 68.6544L283.924 84.4986Z" fill="#183561"/>
<path d="M255.268 69.3879V100.881L283.044 116.725V85.2322L255.268 69.3879Z" fill="#183561"/>
<path d="M255.268 69.3879V75.9897L283.044 91.8339V85.2322L255.268 69.3879Z" fill="#3C6A9E"/>
<path d="M257.175 81.8579L257.224 84.0096L272.286 92.763L272.188 90.5135L257.175 81.8579Z" fill="#FEC400"/>
<path d="M264.755 100.098V102.299L279.866 111.052L279.768 108.803L264.755 100.098Z" fill="#FEC400"/>
<path d="M274.046 91.5895V93.7412L279.719 97.0176V94.9148L274.046 91.5895Z" fill="#77B8E0"/>
<path d="M259.62 92.7141V94.8169L265.293 98.1422V95.9905L259.62 92.7141Z" fill="#77B8E0"/>
<path d="M257.811 96.5286V98.6313L263.483 101.908V99.805L257.811 96.5286Z" fill="white"/>
<path d="M266.515 91.5895L279.669 99.2182V101.419L266.515 93.7412V91.5895Z" fill="white"/>
<path d="M266.515 96.2351L279.669 103.815V106.015L266.515 98.3379V96.2351Z" fill="white"/>
<path d="M245.487 46.3064V120.735L244.118 121.811L202.258 96.0397L200.889 22.7357L202.258 21.611L245.487 46.3064Z" fill="#183561"/>
<path d="M200.889 22.7357V97.1644L244.118 121.811V47.3823L200.889 22.7357Z" fill="#A9D1EA"/>
<path d="M200.889 22.7357V33.0051L244.118 57.6517V47.3823L200.889 22.7357Z" fill="#3C6A9E"/>
<path d="M205.339 43.6168L205.388 47.04L228.861 60.6347L228.714 57.1627L205.339 43.6168Z" fill="#FEC400"/>
<path d="M217.124 72.0778V75.5009L240.646 89.0956L240.499 85.5747L217.124 72.0778Z" fill="#FEC400"/>
<path d="M231.6 58.8253V62.1506L240.402 67.2853V63.96L231.6 58.8253Z" fill="#77B8E0"/>
<path d="M209.153 60.5369V63.8622L218.005 68.9969V65.6716L209.153 60.5369Z" fill="#77B8E0"/>
<path d="M206.316 66.454V69.7793L215.119 74.914V71.5887L206.316 66.454Z" fill="white"/>
<path d="M219.863 58.8253L240.402 70.6596V74.0827L219.863 62.1506V58.8253Z" fill="white"/>
<path d="M219.863 66.0139L240.402 77.8971V81.3202L219.863 69.3392V66.0139Z" fill="white"/>
<path d="M205.339 73.447L205.388 76.8702L228.861 90.4649L228.714 86.9439L205.339 73.447Z" fill="#FEC400"/>
<path d="M217.124 95.9419V99.3161L240.646 112.96L240.499 109.439L217.124 95.9419Z" fill="#FEC400"/>
<path d="M231.6 88.6554V91.9807L240.402 97.0665V93.7901L231.6 88.6554Z" fill="#77B8E0"/>
<path d="M209.153 84.401V87.7263L218.005 92.861V89.5357L209.153 84.401Z" fill="#77B8E0"/>
<path d="M206.316 90.3181V93.6435L215.119 98.7292V95.4528L206.316 90.3181Z" fill="white"/>
<path d="M219.863 89.8779L240.402 101.712V105.135L219.863 93.2033V89.8779Z" fill="white"/>
<path d="M106.46 105.869L104.308 107.091L99.6623 109.83L91.1045 114.818V118.583L99.6623 113.595L104.308 110.906L106.46 109.634V105.869Z" fill="white"/>
<path d="M129.835 101.468L125.825 103.815L120.348 106.994L111.595 112.128L104.993 115.991V119.806L111.595 115.943L120.348 110.808L125.825 107.58L129.835 105.282L131.4 104.304V100.538L129.835 101.468Z" fill="#F02098"/>
<path d="M103.819 116.676L99.6623 119.121L91.1045 124.109V127.923L99.6623 122.935L103.819 120.49V116.676Z" fill="white"/>
<path d="M110.812 127.728L104.308 131.542L99.6623 134.281L91.1045 139.269V143.034L99.6623 138.046L104.308 135.357L110.812 131.542V127.728Z" fill="#FEC400"/>
<path d="M129.835 116.627L125.825 118.926L120.348 122.153L111.985 127.043V130.858L120.348 125.919L125.825 122.74L129.835 120.393L131.399 119.464V115.649L129.835 116.627Z" fill="white"/>
<path d="M116.925 116.578L111.595 119.708L104.308 124.011L100.054 126.505V130.271L104.308 127.777L111.595 123.522L116.925 120.393V116.578Z" fill="white"/>
<path d="M98.8799 127.141L91.1045 131.689V135.503L98.8799 130.955V127.141Z" fill="white"/>
<path d="M129.835 109.047L125.825 111.395L120.348 114.573L118.099 115.894V119.708L120.348 118.388L125.825 115.16L129.835 112.813L131.4 111.884V108.118L129.835 109.047Z" fill="white"/>
<path d="M135.165 52.7124V56.9669L105.727 73.9847L105.922 69.6325L135.165 52.7124Z" fill="#FEC400"/>
<path d="M120.446 88.313V92.5675L91.0068 109.585L91.2025 105.233L120.446 88.313Z" fill="white"/>
<path d="M102.352 71.7352V75.8919L91.2998 82.298V78.1414L102.352 71.7352Z" fill="#F02098"/>
<path d="M130.422 73.8868V78.0435L119.37 84.4497V80.293L130.422 73.8868Z" fill="#F02098"/>
<path d="M133.991 81.2711V85.4278L122.939 91.8339V87.6773L133.991 81.2711Z" fill="white"/>
<path d="M146.804 73.8868V78.0435L135.752 84.4497V80.293L146.804 73.8868Z" fill="white"/>
<path d="M117.023 71.7352L91.3496 86.5525V90.8559L117.072 75.8919L117.023 71.7352Z" fill="white"/>
<path d="M117.023 80.7332L91.3496 95.5504V99.8538L117.072 84.8898L117.023 80.7332Z" fill="white"/>
<path d="M163.528 78.1415V59.7054L147.293 69.1435V87.7751L163.528 78.1415Z" fill="#3C6A9E"/>
<path d="M182.6 67.3341V48.8981L166.413 58.3361V76.9678L182.6 67.3341Z" fill="#3C6A9E"/>
<path d="M163.528 101.028V82.5916L147.293 92.0296V110.661L163.528 101.028Z" fill="#3C6A9E"/>
<path d="M182.6 90.2202V71.7842L166.413 81.2222V99.8539L182.6 90.2202Z" fill="#3C6A9E"/>
<g style="mix-blend-mode:multiply" opacity="0.3">
<path d="M165.044 249.641L164.848 249.738L138.197 265.142L138.001 265.045L111.35 249.641L119.467 244.897L137.806 234.139L156.779 244.946L164.848 249.543L165.044 249.641Z" fill="#15325C"/>
</g>
<path d="M138.197 237.073L138.001 246.462L137.903 252.77L111.35 237.513V231.058L119.467 226.266L138.197 237.073Z" fill="#183561"/>
<path d="M164.848 230.96V231.156L164.75 237.513L137.903 252.77L138.001 246.462L138.197 237.073L156.779 226.363L164.848 230.96Z" fill="#23477C"/>
<path d="M165.044 231.058L164.848 231.156L138.197 246.56L138.001 246.462L111.35 231.058L119.467 226.265L137.806 215.556L156.779 226.363L164.848 230.96L165.044 231.058Z" fill="#3C6A9E"/>
<path d="M119.858 231.009L137.854 220.495L156.437 231.058L138.197 241.621L119.858 231.009Z" fill="#FFD561"/>
<path d="M122.255 231.009L137.855 221.913L153.992 231.107L138.197 240.202L122.255 231.009Z" fill="#5B95D3"/>
<path d="M134.529 231.058L138.05 228.955L141.718 231.058L138.148 233.112L134.529 231.058Z" fill="#BBE0FD"/>
<path d="M137.855 223.087L152.916 231.693L153.992 231.107L137.855 221.913L122.255 231.009L123.331 231.645L137.855 223.087Z" fill="#183561"/>
<g style="mix-blend-mode:multiply" opacity="0.3">
<path d="M79.416 229.982L98.5367 218.783L118.244 229.982L98.8301 241.18L79.416 229.982Z" fill="#15325C"/>
</g>
<path d="M79.416 211.839L98.5367 200.641L118.244 211.839L98.8301 223.087L79.416 211.839Z" fill="#D6EFFB"/>
<path d="M79.416 223.38V211.839L98.8301 223.087L98.5856 234.383L79.416 223.38Z" fill="#77B8E0"/>
<path d="M118.244 211.839L98.8304 223.087L98.5859 234.383L118 223.38L118.244 211.839Z" fill="#A9D1EA"/>
<path d="M79.2207 191.789L98.3413 180.591L118 191.789L98.5858 202.988L79.2207 191.789Z" fill="#BBE0FD"/>
<path d="M79.2207 203.281V191.79L98.5858 202.988L98.3902 214.333L79.2207 203.281Z" fill="#77B8E0"/>
<path d="M118 191.79L98.5862 202.988L98.3906 214.333L117.805 203.281L118 191.79Z" fill="#A9D1EA"/>
<g style="mix-blend-mode:multiply" opacity="0.3">
<path d="M204.9 171.348L233.997 188.317L184.899 216.925L156.047 199.711L204.9 171.348Z" fill="#15325C"/>
</g>
<path d="M205.848 159.978L204.968 161.502L232.58 177.444L233.46 175.92L205.848 159.978Z" fill="#77B8E0"/>
<path d="M232.969 189.344C233.507 189.344 233.996 188.904 233.996 188.317V156.189C233.996 155.651 233.556 155.162 232.969 155.162C232.382 155.162 231.942 155.602 231.942 156.189V188.317C231.942 188.855 232.382 189.344 232.969 189.344Z" fill="#77B8E0"/>
<path d="M234.289 181.765V188.317C234.289 189.051 233.702 189.638 232.969 189.638C232.235 189.638 231.648 189.051 231.648 188.317V181.765H234.24H234.289Z" fill="#1C427E"/>
<path d="M157.025 200.738C157.563 200.738 158.052 200.298 158.052 199.712V167.583C158.052 167.045 157.612 166.556 157.025 166.556C156.438 166.556 155.998 166.996 155.998 167.583V199.712C155.998 200.249 156.438 200.738 157.025 200.738Z" fill="#77B8E0"/>
<path d="M158.345 193.159V199.712C158.345 200.445 157.758 201.032 157.024 201.032C156.291 201.032 155.704 200.445 155.704 199.712V193.159H158.296H158.345Z" fill="#1C427E"/>
<path d="M184.899 217.218C185.437 217.218 185.926 216.778 185.926 216.191V184.063C185.926 183.525 185.486 183.036 184.899 183.036C184.312 183.036 183.872 183.476 183.872 184.063V216.191C183.872 216.729 184.312 217.218 184.899 217.218Z" fill="#77B8E0"/>
<path d="M204.9 140.785L233.997 154.917V157.705L184.899 186.312L156.047 169.099V166.311L204.9 140.785Z" fill="#A9D1EA"/>
<path d="M204.9 137.997L233.997 154.917L184.899 183.525L156.047 166.312L204.9 137.997Z" fill="#BBE0FD"/>
<path d="M186.17 209.59V216.143C186.17 216.876 185.583 217.463 184.85 217.463C184.116 217.463 183.529 216.876 183.529 216.143V209.59H186.121H186.17Z" fill="#1C427E"/>
<path d="M157.237 188.87L156.356 190.395L183.969 206.337L184.849 204.812L157.237 188.87Z" fill="#77B8E0"/>
<path d="M199.275 171.055C199.869 171.055 200.351 170.573 200.351 169.979C200.351 169.385 199.869 168.903 199.275 168.903C198.681 168.903 198.199 169.385 198.199 169.979C198.199 170.573 198.681 171.055 199.275 171.055Z" fill="#052754"/>
<path d="M194.923 158.243L186.561 163.182L177.856 166.947V168.268L190.62 175.505L199.178 170.566L207.687 165.627V164.307L194.923 158.243Z" fill="#052754"/>
<path d="M199.716 169.637L206.318 161.617L206.807 164.453L199.716 169.637Z" fill="#3C6A9E"/>
<path d="M206.317 161.617L205.095 163.084L199.765 169.588L199.716 169.637L187.539 162.595L187.686 162.448L195.314 155.162L206.317 161.617Z" fill="white"/>
<path d="M199.716 169.637L199.374 169.686L191.06 170.762L181.427 165.382L178.248 163.671L187.344 162.595H187.539H187.588L187.735 162.546L199.716 169.637Z" fill="white"/>
<path d="M199.765 169.588L199.716 169.637L199.374 169.686L187.442 162.644L187.344 162.595H187.539L187.686 162.448V162.497L199.765 169.588Z" fill="#183561"/>
<path d="M178.248 163.671V166.752L191.06 173.892V170.762L178.248 163.671Z" fill="#77B8E0"/>
<path d="M191.06 170.762V173.891L199.715 169.637L191.06 170.762Z" fill="#3C6A9E"/>
<g style="mix-blend-mode:multiply" opacity="0.3">
<path d="M230.524 209.688L214.973 218.783L199.031 208.856L214.729 200.25L230.524 209.688Z" fill="#15325C"/>
</g>
<path d="M193.652 203.379C193.945 202.303 198.738 202.01 198.738 202.01L203.237 204.015C203.09 206.509 202.601 207.096 201.525 207.096C194.434 206.313 193.652 204.944 193.652 204.944C193.652 204.944 193.358 204.504 193.652 203.379Z" fill="#052754"/>
<path d="M201.427 200.69C201.721 199.614 206.513 199.32 206.513 199.32L211.012 201.325C210.865 203.819 210.376 204.406 209.301 204.406C202.21 203.624 201.427 202.254 201.427 202.254C201.427 202.254 201.134 201.814 201.427 200.69Z" fill="#052754"/>
<path d="M210.963 176.728L203.725 180.689L203.579 182.449L203.041 204.064C200.058 205.775 198.982 203.232 198.982 203.232L197.368 181.471C197.417 179.857 198.64 178.537 200.253 178.293L210.963 176.728Z" fill="#F9BEAE"/>
<path d="M210.866 201.619C208.078 203.624 206.758 201.179 206.758 201.179L203.677 180.689L203.481 179.662V178.733H209.692V180.053L210.817 201.668L210.866 201.619Z" fill="#F9BEAE"/>
<path d="M214.484 219.272C214.191 219.272 213.995 219.028 213.995 218.783V200.787C213.995 200.494 214.24 200.298 214.484 200.298C214.729 200.298 214.973 200.543 214.973 200.787V218.783C214.973 219.077 214.729 219.272 214.484 219.272Z" fill="#77B8E0"/>
<path d="M213.849 215.849V219.126C213.849 219.468 214.142 219.761 214.484 219.761C214.827 219.761 215.12 219.468 215.12 219.126V215.849H213.8H213.849Z" fill="#1C427E"/>
<path d="M231.061 210.177C230.768 210.177 230.572 209.932 230.572 209.688V191.692C230.572 191.398 230.817 191.203 231.061 191.203C231.306 191.203 231.55 191.447 231.55 191.692V209.688C231.55 209.981 231.306 210.177 231.061 210.177Z" fill="#77B8E0"/>
<path d="M230.377 206.754V210.03C230.377 210.372 230.67 210.666 231.013 210.666C231.355 210.666 231.648 210.372 231.648 210.03V206.754H230.328H230.377Z" fill="#1C427E"/>
<path d="M199.031 210.372C198.738 210.372 198.542 210.128 198.542 209.883V191.887C198.542 191.594 198.787 191.398 199.031 191.398C199.276 191.398 199.52 191.643 199.52 191.887V209.883C199.52 210.177 199.276 210.372 199.031 210.372Z" fill="#77B8E0"/>
<path d="M215.462 201.13C215.413 201.521 215.169 201.765 214.826 201.912C214.533 202.059 214.142 202.059 213.8 201.863L198.444 192.816V191.252L215.462 201.081V201.13Z" fill="#A9D1EA"/>
<path d="M218.69 184.454L214.24 182.205L198.493 191.349L214.24 200.641L218.69 184.454Z" fill="#BBE0FD"/>
<path d="M198.396 206.949V210.226C198.396 210.568 198.689 210.861 199.031 210.861C199.374 210.861 199.667 210.568 199.667 210.226V206.949H198.347H198.396Z" fill="#1C427E"/>
<path d="M200.351 167.681C200.351 167.681 200.791 166.312 200.155 165.529C199.52 164.747 198.933 165.92 198.933 165.92C196.537 164.062 196.048 164.991 196.048 164.991C194.532 166.214 195.119 166.996 195.119 166.996C195.559 168.121 198.64 169.735 198.64 169.735L200.302 167.681H200.351Z" fill="#F4CAAB"/>
<path d="M225.536 151.494C227.247 151.348 228.714 152.179 229.155 156.727C229.595 161.275 229.448 169.197 229.448 169.197L226.367 183.427L222.944 182.987L224.411 168.561L222.797 157.216C222.797 157.216 222.113 151.837 225.487 151.494H225.536Z" fill="#FFD561"/>
<path d="M221.232 194.137C210.131 200.396 198.542 185.286 197.515 183.916C197.515 183.867 197.466 183.818 197.466 183.818L199.08 181.813C200.155 180.493 201.427 179.368 202.845 178.439C205.632 176.679 208.909 175.847 212.283 176.092L227.345 173.402C227.492 173.745 227.589 174.087 227.687 174.38C232.577 188.758 221.232 194.088 221.232 194.088V194.137Z" fill="#F1249A"/>
<g style="mix-blend-mode:multiply" opacity="0.4">
<path d="M221.233 194.137C210.132 200.396 198.543 185.286 197.516 183.916C211.991 192.816 223.336 192.572 227.688 174.429C232.578 188.806 221.233 194.137 221.233 194.137Z" fill="#F1249A"/>
</g>
<path d="M211.207 159.954L212.527 165.04C213.799 169.979 213.31 175.163 211.207 179.808C211.207 179.808 223.873 181.813 228.812 174.918L228.518 173.305C227.247 169.686 226.856 165.823 227.345 162.008L228.518 153.597C228.518 153.597 228.323 152.326 227.247 151.25C226.709 150.712 225.976 150.37 225.242 150.272C224.508 150.174 223.726 150.272 223.041 150.663L213.652 155.798C213.016 156.14 212.527 156.58 212.087 157.118C211.501 157.9 211.158 158.927 211.158 159.954H211.207Z" fill="#FEC400"/>
<path d="M213.164 156.678C214.876 156.776 216.196 157.852 215.951 162.4C215.805 165.04 214.924 170.566 214.24 174.723C213.8 177.217 211.012 178.537 208.812 177.266L198.298 170.028L200.694 166.85L209.399 171.593L209.692 161.911C209.692 161.911 209.839 156.482 213.213 156.678H213.164Z" fill="#FFD561"/>
<path d="M213.115 140.589C213.115 140.589 212.039 152.472 216.684 151.397C221.33 150.321 222.553 144.746 222.553 144.746L219.325 140.589H213.164H213.115Z" fill="#F9BEAE"/>
<path d="M217.809 148.707L217.369 153.646C217.369 153.646 220.939 154.722 222.455 153.01V148.658H217.809V148.707Z" fill="#F4CAAB"/>
<path d="M214.826 145.773C214.826 146.751 215.609 147.533 216.587 147.533C217.565 147.533 218.347 146.751 218.347 145.773C218.347 144.795 217.565 144.012 216.587 144.012C215.609 144.012 214.826 144.795 214.826 145.773Z" fill="#F4CAAB"/>
<path d="M223.58 141.616C223.482 140.98 223.286 140.345 222.993 139.807C221.135 136.237 215.12 136.726 215.12 136.726C215.12 136.726 212.039 137.362 212.039 139.513C212.039 141.665 213.261 141.958 214.044 142.448C215.853 149.685 210.963 152.424 210.963 152.424C210.963 152.424 218.787 156.727 223.628 152.13C227.345 148.658 224.9 143.719 223.58 141.616Z" fill="#052754"/>
<path d="M214.093 200.494L219.423 178.537L235.903 168.17L237.223 169.099L230.426 191.056L215.462 201.228L214.093 200.494Z" fill="#A9D1EA"/>
<path d="M215.511 201.325L220.841 179.417L237.272 169.001L231.795 191.887L215.511 201.325Z" fill="#BBE0FD"/>
<path d="M163.528 55.2554V36.8193L147.293 46.2574V64.8401L163.528 55.2554Z" fill="#3C6A9E"/>
<path d="M182.6 44.4481V26.0121L166.413 35.4502V54.0329L182.6 44.4481Z" fill="#3C6A9E"/>
</svg>
