<svg width="335" height="270" viewBox="0 0 335 270" fill="none" xmlns="http://www.w3.org/2000/svg">
<g style="mix-blend-mode:multiply" opacity="0.2">
<path d="M263.55 162.65L231.477 181.359C227.809 183.508 227.809 188.801 231.477 190.949L249.767 201.64C253.488 203.841 253.435 209.239 249.662 211.283L144.85 268.982C143.121 269.925 141.077 269.873 139.4 268.929L20.4381 200.12C16.7173 197.972 16.7173 192.626 20.4381 190.53L171.367 103.379C173.097 102.383 175.193 102.383 176.922 103.379L229.224 133.355L231.634 134.718L234.621 136.447L237.032 137.81L263.55 153.007C267.27 155.156 267.27 160.449 263.55 162.598V162.65Z" fill="#15325C"/>
</g>
<path d="M266.275 107.886V126.385C266.117 128.062 265.227 129.739 263.55 130.735L237.713 145.828L231.529 149.444C227.861 151.593 227.861 156.886 231.529 159.034L241.644 164.956L245.312 156.991L252.597 158.301V173.918C252.597 174.337 252.597 174.756 252.597 175.175C252.44 176.852 251.496 178.477 249.767 179.42L241.487 183.98L239.914 184.87L237.975 185.919L235.722 187.176L223.616 193.832L221.205 195.142L218.218 196.819L215.808 198.129L201.553 205.99L145.007 237.119C143.645 237.853 142.02 238.01 140.605 237.539C140.238 237.434 139.924 237.277 139.557 237.067L77.7178 201.326L75.4644 200.016L73.6825 199.02L73.5253 198.915L71.9531 197.972L71.2719 197.605L68.2847 195.876L65.8741 194.461L20.5952 168.258C19.1279 167.419 18.237 166.057 17.9226 164.589C17.7654 163.856 17.7654 163.07 17.9226 162.336L17.8178 146.824V146.457V145.723L17.8701 145.776L27.2509 154.789L95.3263 115.485L171.472 71.5163C173.202 70.5206 175.298 70.5206 177.027 71.5163L254.116 115.695L259.567 108.725L266.327 107.991H266.432L266.275 107.886Z" fill="#D6EDFF"/>
<path d="M140.395 115.432V237.486C140.028 237.381 139.714 237.224 139.347 237.014L77.508 201.273L75.2545 199.963L73.4727 198.967L73.3155 198.863L71.7433 197.919L71.062 197.553L68.0749 195.823L65.6641 194.408L20.3854 168.205C18.918 167.367 18.0271 166.004 17.7126 164.537C17.5554 163.803 17.5554 163.017 17.7126 162.283L17.6079 146.771V145.618L17.6603 145.671L27.0409 154.684L95.1164 115.38H140.343L140.395 115.432Z" fill="#BBE0FD"/>
<path d="M263.55 113.913L231.477 132.621C227.809 134.77 227.809 140.063 231.477 142.212L249.767 152.903C253.488 155.104 253.435 160.501 249.662 162.545L144.85 220.244C143.121 221.188 141.077 221.135 139.4 220.192L20.4381 151.383C16.7173 149.234 16.7173 143.889 20.4381 141.793L171.367 54.6413C173.097 53.6456 175.193 53.6456 176.922 54.6413L229.224 84.6176L231.634 85.9801L234.621 87.7096L237.032 89.0721L263.55 104.27C267.27 106.418 267.27 111.711 263.55 113.86V113.913Z" fill="white"/>
<path d="M212.978 182.512L213.187 199.23L229.433 190.321L229.223 173.603L212.978 182.512Z" fill="white"/>
<path d="M201.343 189.115V205.938L206.269 203.265V186.443L201.343 189.115Z" fill="white"/>
<path d="M246.517 139.329V151.33H246.57C246.727 152.326 247.356 153.322 248.404 153.95L288.704 177.219C289.281 177.586 289.962 177.743 290.643 177.743C291.324 177.743 291.953 177.586 292.53 177.219L332.882 153.846C334.14 153.112 334.769 151.802 334.769 150.544V139.329L326.332 143.469L292.582 124.027C291.377 123.345 289.962 123.345 288.757 124.027L262.711 139.067L255.95 142.945L246.465 139.329H246.517Z" fill="#BBE0FD"/>
<path d="M246.517 139.329V151.33H246.57C246.727 152.326 247.356 153.322 248.404 153.951L288.704 177.219C289.281 177.586 289.962 177.743 290.643 177.743V163.279L262.711 139.067L255.95 142.945L246.465 139.329H246.517Z" fill="#D6EDFF"/>
<path d="M292.634 112.759L332.935 135.975C335.503 137.443 335.503 141.111 332.935 142.631L292.582 166.004C291.377 166.685 289.909 166.685 288.756 166.004L248.456 142.736C245.888 141.268 245.888 137.547 248.456 136.08L288.861 112.812C290.067 112.13 291.482 112.13 292.687 112.812L292.634 112.759Z" fill="white"/>
<path d="M292.634 112.393L332.935 135.608C335.503 137.076 335.503 140.744 332.935 142.264L292.582 165.637C291.377 166.318 289.909 166.318 288.756 165.637L248.456 142.369C245.888 140.901 245.888 137.181 248.456 135.713L288.861 112.445C290.067 111.764 291.482 111.764 292.687 112.445L292.634 112.393Z" fill="white"/>
<path d="M236.98 89.0722L177.604 124.184L173.621 117.476L229.171 84.6177L231.582 85.9802L234.569 87.7096L236.98 89.0722Z" fill="#77B8E0"/>
<path d="M189.658 10.725C190.234 8.05226 191.597 6.11324 193.588 5.48437C195.737 4.80309 198.147 5.79878 200.244 7.94743C201.239 4.43622 203.179 1.86837 205.956 0.977466C211.93 -0.909151 219.424 5.90363 222.674 16.1752C222.883 16.8041 223.04 17.433 223.198 18.0094C226.394 19.0051 229.643 22.7784 231.268 27.9666C232.002 30.2724 232.316 32.5783 232.264 34.6221L232.578 34.8317C235.094 36.2991 236.666 38.9718 236.666 41.9065C236.666 48.1429 229.905 52.0733 224.455 48.9814L183.998 25.7655C181.482 24.2981 179.91 21.6254 179.91 18.6907C179.91 13.3452 184.836 9.72927 189.658 10.6726V10.725Z" fill="white"/>
<path d="M26.203 75.2367C25.8886 73.7693 25.1024 72.6688 24.0019 72.3544C22.7965 71.9875 21.4864 72.564 20.2811 73.7169C19.7046 71.7779 18.6565 70.3105 17.0843 69.8388C13.7827 68.7907 9.59025 72.564 7.80844 78.2763C7.70363 78.6431 7.59877 78.9575 7.49396 79.3244C5.71215 79.8484 3.93043 81.9971 2.98712 84.827C2.56787 86.1372 2.41065 87.3949 2.46306 88.5478L2.25336 88.6526C0.838394 89.4387 0 90.9585 0 92.5831C0 96.0419 3.77318 98.2429 6.76032 96.5135L29.2425 83.6217C30.6574 82.8356 31.4959 81.3158 31.4959 79.6912C31.4959 76.7041 28.7708 74.7126 26.0981 75.2367H26.203Z" fill="white"/>
<path d="M140.814 179.263L70.0137 138.805L139.923 96.5137L140.709 96.9853L210.724 138.805L140.814 179.263ZM75.988 138.753L140.867 175.804L204.854 138.753L139.976 100.025L75.988 138.753Z" fill="#77B8E0"/>
<path d="M223.459 176.695V193.831L221.048 195.141L218.061 196.766L215.651 198.129V181.201L215.493 181.149L147.732 142.002L151.663 135.189L223.459 176.695Z" fill="#77B8E0"/>
<path d="M141.443 143.207L140.395 143.784L73.7873 182.25L73.5252 182.407V198.967L73.3681 198.863L71.7959 197.919L71.1146 197.552L68.1275 195.823L65.7168 194.408V177.9L65.9788 177.743L137.513 136.395L140.395 141.426L141.443 143.207Z" fill="#77B8E0"/>
<path d="M234.569 87.7094L178.443 120.935L176.923 118.314L231.582 85.98L234.569 87.7094Z" fill="#F1249A"/>
<path d="M221.049 178.057V195.142L218.061 196.766V179.787H217.957L151.034 141.111L152.554 138.491L221.049 178.057Z" fill="#FFD561"/>
<path d="M138.142 142.316L71.3771 180.835L71.115 180.992V197.552L68.1279 195.823V179.263L68.39 179.105L136.623 139.696L138.142 142.316Z" fill="#F1249A"/>
<g style="mix-blend-mode:multiply" opacity="0.4">
<path d="M223.459 176.538L215.65 181.359V198.234L223.459 193.989V176.538Z" fill="#77B8E0"/>
</g>
<g style="mix-blend-mode:multiply" opacity="0.4">
<path d="M65.7168 177.743L73.5252 182.564V198.81L65.7168 194.618V177.743Z" fill="#77B8E0"/>
</g>
<g style="mix-blend-mode:multiply" opacity="0.3">
<path d="M256.527 136.604L288.285 118C289.176 117.476 290.277 117.476 291.168 118L323.869 136.604C325.808 137.705 325.808 140.482 323.869 141.583L291.692 160.187C290.801 160.711 289.7 160.711 288.809 160.187L256.527 141.583C254.641 140.482 254.588 137.757 256.527 136.604Z" fill="#15325C"/>
</g>
<path d="M315.746 124.499L290.487 139.067L290.225 153.794L315.432 139.434L315.746 124.499Z" fill="#A9D1EA"/>
<path d="M265.279 124.499L290.12 109.982L315.746 124.499L290.487 139.068L265.279 124.499Z" fill="#BBE0FD"/>
<path d="M276.18 124.499L290.015 116.428L304.269 124.499L290.224 132.621L276.18 124.499Z" fill="#15325C"/>
<path d="M265.279 139.434V124.499L290.487 139.067L290.224 153.794L265.279 139.434Z" fill="#77B8E0"/>
<path d="M293.055 102.436H286.085V123.608H293.055V102.436Z" fill="#15325C"/>
<path d="M289.543 112.812L301.701 99.9722L303.116 102.435L290.277 116.323" fill="#15325C"/>
<path d="M314.907 98.4002C314.907 99.5007 314.75 100.549 314.436 101.545C313.126 105.842 309.09 108.986 304.321 108.986C299.552 108.986 293.735 104.217 293.735 98.4002C293.735 92.5831 295.307 92.0591 297.718 90.1201C299.552 88.6527 301.806 87.8142 304.321 87.8142C310.191 87.8142 314.907 92.5307 314.907 98.4002Z" fill="#77B8E0"/>
<g style="mix-blend-mode:multiply" opacity="0.2">
<path d="M314.436 101.545C313.859 103.379 312.811 105.003 311.396 106.261C309.51 107.938 307.046 108.986 304.321 108.986C298.452 108.986 293.735 104.217 293.735 98.4002C293.735 92.5832 293.735 97.7189 293.735 97.3521C294.05 94.4174 295.517 91.8495 297.666 90.1201C297.404 101.283 306.627 102.331 314.383 101.545H314.436Z" fill="#77B8E0"/>
</g>
<g style="mix-blend-mode:multiply" opacity="0.2">
<path d="M311.396 106.261C309.51 107.938 307.046 108.986 304.321 108.986C298.452 108.986 293.735 104.217 293.735 98.4002C293.735 92.5832 293.735 97.7189 293.735 97.3521C295.727 104.741 303.85 107.152 311.344 106.261H311.396Z" fill="#77B8E0"/>
</g>
<path d="M306.575 88.0238C306.575 89.7532 306.313 91.4302 305.842 93.0024C303.745 99.8676 297.3 104.899 289.753 104.899C282.207 104.899 272.931 97.3521 272.931 88.0762C272.931 78.8004 275.394 78.0143 279.272 74.9223C282.154 72.6165 285.77 71.2539 289.753 71.2539C299.029 71.2539 306.575 78.8004 306.575 88.0762V88.0238Z" fill="#77B8E0"/>
<g style="mix-blend-mode:multiply" opacity="0.2">
<path d="M305.842 92.9502C304.951 95.8849 303.274 98.4528 301.02 100.497C298.033 103.169 294.103 104.846 289.753 104.846C280.477 104.846 272.931 97.2999 272.931 88.024C272.931 78.7481 272.931 86.9234 273.036 86.347C273.507 81.6828 275.866 77.5952 279.324 74.8701C278.957 92.6358 293.579 94.2603 305.894 93.0026L305.842 92.9502Z" fill="#77B8E0"/>
</g>
<g style="mix-blend-mode:multiply" opacity="0.2">
<path d="M301.02 100.496C298.033 103.169 294.103 104.846 289.753 104.846C280.477 104.846 272.931 97.2998 272.931 88.0239C272.931 78.748 272.931 86.9233 273.036 86.3469C276.18 98.0858 289.124 101.964 301.073 100.496H301.02Z" fill="#77B8E0"/>
</g>
<g style="mix-blend-mode:multiply" opacity="0.3">
<path d="M53.7157 157.829C64.5694 157.829 73.368 152.714 73.368 146.404C73.368 140.094 64.5694 134.979 53.7157 134.979C42.8621 134.979 34.0635 140.094 34.0635 146.404C34.0635 152.714 42.8621 157.829 53.7157 157.829Z" fill="#15325C"/>
</g>
<path d="M87.2561 48.5623C87.2561 48.5623 87.1513 46.7806 88.147 46.0469C89.1427 45.3132 89.5095 46.8854 89.5095 46.8854C92.9683 45.418 93.2828 46.6757 93.2828 46.6757C94.7502 48.6672 93.7544 49.4008 93.7544 49.4008C92.8635 50.6062 88.6186 51.6019 88.6186 51.6019L87.2561 48.6147V48.5623Z" fill="#F9BEAE"/>
<path d="M87.0458 47.5664L73.2107 56.6327C73.2107 56.6327 61 55.5846 55.8643 56.6327L57.7509 62.3449L58.3798 64.2839C58.3798 64.2839 74.0492 64.0219 75.831 62.6594C77.508 61.3492 88.356 52.545 89.5614 51.5493L86.8886 47.5664H87.0458Z" fill="#23477C"/>
<path d="M65.9798 145.147C66.3466 143.889 61.8397 140.535 61.8397 140.535L56.1274 139.644C54.7124 142.212 54.7649 143.103 55.813 143.784C63.3595 147.557 64.9841 146.666 64.9841 146.666C64.9841 146.666 65.5605 146.404 65.9798 145.147Z" fill="#15325C"/>
<path d="M54.9739 151.069C55.3407 149.811 50.8339 146.457 50.8339 146.457L45.1215 145.566C43.7066 148.134 43.7591 149.025 44.8072 149.706C52.3536 153.479 53.9782 152.588 53.9782 152.588C53.9782 152.588 54.5546 152.326 54.9739 151.069Z" fill="#15325C"/>
<path d="M61.9959 90.3824L62.9392 114.28L61.9436 140.692C61.9436 140.692 60.5809 142.212 55.1831 141.478L54.0302 118.734L47.7939 83.7793L61.9436 90.3824H61.9959Z" fill="#F1249A"/>
<path d="M54.1351 94.8369L51.0432 146.457C51.0432 146.457 49.6807 147.977 44.2828 147.243L41.5576 94.8369H54.1351Z" fill="#F1249A"/>
<path d="M40.3525 68.4239V96.7231C40.3525 96.7231 55.0262 103.274 62.5726 92.5831L61.9438 60.5106C61.9438 60.5106 61.6817 58.886 60.3192 57.5759C59.6379 56.8946 58.747 56.4753 57.8561 56.3705C56.9652 56.2657 55.9695 56.3705 55.131 56.8946L43.4444 63.2881C42.6584 63.7073 42.0295 64.2838 41.5054 64.9651C40.7718 65.9608 40.3525 67.2185 40.3525 68.4763V68.4239Z" fill="#15325C"/>
<path d="M62.468 76.0753C62.468 76.0753 62.3632 74.2935 63.3589 73.5598C64.3546 72.8261 64.7215 74.3983 64.7215 74.3983C68.1803 72.9309 68.4947 74.1887 68.4947 74.1887C69.9621 76.1801 68.9663 76.9138 68.9663 76.9138C68.0754 78.1191 63.8305 79.1148 63.8305 79.1148L62.468 76.1277V76.0753Z" fill="#F9BEAE"/>
<path d="M42.8158 64.1791C47.0607 63.9695 47.2179 70.7298 47.2179 70.7298L48.1088 80.7918L62.0488 75.2367L64.0926 79.01C64.0926 79.01 55.4981 84.0933 49.2093 87.6569C46.1174 89.4388 42.2394 87.657 41.5057 84.1458C40.5624 79.3768 39.4095 73.5073 39.3047 71.3587C38.9902 65.6464 40.6671 64.3363 42.7634 64.2315L42.8158 64.1791Z" fill="#23477C"/>
<path d="M54.2406 61.7163C54.2406 61.7163 49.786 63.0788 47.8994 60.9302V49.7153L48.7903 50.6062L53.6641 55.5324L54.0833 60.2489L54.2406 61.7163Z" fill="#F9BEAE"/>
<g style="mix-blend-mode:multiply">
<path d="M54.1354 60.2487C50.8338 58.9385 48.8424 56.161 48.79 50.606L53.6638 55.5321L54.0831 60.2487H54.1354Z" fill="#F9BEAE"/>
</g>
<path d="M56.7032 44.1602C56.7032 44.1602 61.9438 58.1002 56.0219 58.3622C50.1001 58.5719 46.7461 52.3355 46.7461 52.3355L49.2616 46.2564L56.7032 44.2126V44.1602Z" fill="#F9BEAE"/>
<path d="M57.8042 41.8544C54.9743 38.7625 51.9348 41.8544 51.9348 41.8544C45.2792 42.2213 38.414 50.0297 47.8995 55.9516V54.4843L48.8952 53.2265C50.939 52.8073 50.1006 49.1913 50.1006 49.1913C57.6994 49.6629 60.6866 44.9988 57.8567 41.9068L57.8042 41.8544Z" fill="#052754"/>
<path d="M49.3137 52.0734C50.1522 52.8595 50.3619 54.0649 49.7854 54.6937C49.209 55.3226 48.0036 55.1654 47.1651 54.3269C46.3266 53.5408 46.1169 52.3354 46.6934 51.7066C47.2699 51.0777 48.4752 51.235 49.3137 52.0734Z" fill="#F9BEAE"/>
<g style="mix-blend-mode:multiply" opacity="0.3">
<path d="M165.604 204.679L165.446 204.732L141.654 218.462L141.497 218.41L117.757 204.679L124.989 200.435L141.34 190.844L158.267 200.487L165.446 204.575L165.604 204.679Z" fill="#15325C"/>
</g>
<path d="M141.654 202.374L141.497 210.706L141.444 216.314L117.757 202.688V196.976L124.989 192.731L141.654 202.374Z" fill="#183561"/>
<path d="M165.446 196.871V197.028L165.342 202.688L141.444 216.314L141.497 210.706L141.654 202.374L158.267 192.783L165.446 196.871Z" fill="#23477C"/>
<path d="M165.604 196.976L165.446 197.028L141.654 210.759L141.497 210.706L117.757 196.976L124.989 192.731L141.34 183.141L158.267 192.783L165.446 196.871L165.604 196.976Z" fill="#3C6A9E"/>
<path d="M125.303 196.923L141.339 187.543L157.952 196.976L141.653 206.409L125.303 196.923Z" fill="#FFD561"/>
<path d="M127.504 196.923L141.391 188.8L155.751 196.976L141.654 205.151L127.504 196.923Z" fill="#5B95D3"/>
<path d="M138.404 196.976L141.549 195.089L144.85 196.976L141.653 198.81L138.404 196.976Z" fill="#BBE0FD"/>
<path d="M141.391 189.901L154.807 197.552L155.751 196.976L141.391 188.8L127.504 196.923L128.395 197.5L141.391 189.901Z" fill="#183561"/>
<g style="mix-blend-mode:multiply" opacity="0.3">
<path d="M202.916 122.821L205.956 124.656L208.576 123.136C209.1 123.293 209.624 123.45 210.148 123.503V125.285H213.869V123.555C214.603 123.45 215.284 123.293 215.861 123.136L218.638 124.708L221.678 122.874L218.9 121.302C219.424 120.725 219.739 120.044 219.739 119.31C219.739 118.577 219.424 117.843 218.848 117.266L221.52 115.747L218.481 113.965L215.808 115.485C215.232 115.327 214.655 115.17 214.026 115.065V113.336H210.305V115.065C209.677 115.17 209.1 115.275 208.524 115.485L206.008 114.07L202.969 115.851L205.484 117.319C204.908 117.948 204.593 118.629 204.593 119.363C204.593 120.096 204.908 120.778 205.432 121.354L202.812 122.874L202.916 122.821ZM209.886 119.31C209.886 118.524 210.987 117.895 212.297 117.895C213.607 117.895 214.708 118.524 214.708 119.31C214.708 120.096 213.607 120.725 212.297 120.725C210.987 120.725 209.886 120.096 209.886 119.31Z" fill="#15325C"/>
</g>
<path d="M202.917 119.939L205.537 118.419C205.013 117.843 204.698 117.161 204.698 116.428C204.698 115.694 204.698 114.069 204.698 114.069C204.698 114.069 205.275 114.698 205.537 114.384L203.022 112.916L206.061 111.135L208.577 112.55C209.677 112.183 210.882 112.025 212.193 112.025C213.503 112.025 214.76 112.235 215.809 112.55L218.481 111.03L221.521 112.812L218.848 114.331C219.11 114.646 219.739 113.86 219.739 113.86C219.739 113.86 219.739 116.008 219.739 116.375C219.739 117.109 219.425 117.79 218.901 118.367L221.678 119.939L218.639 121.773L215.861 120.201C214.76 120.568 213.555 120.725 212.193 120.725C210.83 120.725 209.625 120.515 208.524 120.201L205.904 121.721L202.864 119.886L202.917 119.939Z" fill="#E8A302"/>
<path d="M213.921 119.939H210.2V122.35H213.921V119.939Z" fill="#FEC400"/>
<path d="M206.009 119.258V121.773L202.917 119.939V117.424L206.009 119.258Z" fill="#FEC400"/>
<path d="M203.073 110.401V112.917L204.96 113.965L206.008 111.711L203.073 110.401Z" fill="#FEC400"/>
<path d="M218.743 119.362V121.826L221.783 119.991V117.476L218.743 119.362Z" fill="#FEC400"/>
<path d="M221.626 110.349V112.812L219.634 113.965L218.796 111.868L221.626 110.349Z" fill="#FEC400"/>
<path d="M202.916 117.424L205.956 119.258L208.576 117.738C209.1 117.895 209.624 118.053 210.148 118.105V119.887H213.869V118.157C214.603 118.053 215.284 117.895 215.861 117.738L218.638 119.31L221.678 117.476L218.9 115.904C219.424 115.327 219.739 114.646 219.739 113.913C219.739 113.179 219.424 112.445 218.848 111.869L221.52 110.349L218.481 108.567L215.808 110.087C215.232 109.93 214.655 109.772 214.026 109.668V107.938H210.305V109.668C209.677 109.772 209.1 109.877 208.524 110.087L206.008 108.672L202.969 110.454L205.484 111.921C204.908 112.55 204.593 113.231 204.593 113.965C204.593 114.699 204.908 115.38 205.432 115.956L202.812 117.476L202.916 117.424ZM209.886 113.913C209.886 113.126 210.987 112.498 212.297 112.498C213.607 112.498 214.708 113.126 214.708 113.913C214.708 114.699 213.607 115.327 212.297 115.327C210.987 115.327 209.886 114.699 209.886 113.913Z" fill="#FFD561"/>
<g style="mix-blend-mode:multiply" opacity="0.3">
<path d="M221.363 121.826L226.446 124.918L230.849 122.402C231.687 122.664 232.578 122.874 233.469 123.031V125.966H239.653V123.136C240.858 122.979 241.959 122.717 243.007 122.402L247.618 125.075L252.702 121.983L248.09 119.363C248.981 118.367 249.453 117.214 249.453 116.009C249.453 114.803 248.929 113.598 247.985 112.602L252.44 110.034L247.356 107.1L242.954 109.615C242.011 109.301 241.068 109.091 240.02 108.934V106.052H233.836V108.934C232.788 109.091 231.844 109.301 230.901 109.615L226.708 107.257L221.625 110.192L225.818 112.602C224.874 113.598 224.35 114.803 224.35 116.009C224.35 117.214 224.874 118.367 225.713 119.363L221.311 121.826H221.363ZM232.892 115.956C232.892 114.646 234.674 113.598 236.928 113.598C239.181 113.598 240.963 114.646 240.963 115.956C240.963 117.266 239.181 118.314 236.928 118.314C234.674 118.314 232.892 117.266 232.892 115.956Z" fill="#15325C"/>
</g>
<path d="M221.363 117.004L225.765 114.541C224.874 113.546 224.403 112.393 224.403 111.187C224.403 109.982 224.455 107.257 224.455 107.257C224.455 107.257 225.399 108.305 225.87 107.781L221.678 105.37L226.761 102.436L230.954 104.794C232.735 104.217 234.779 103.903 236.98 103.903C239.181 103.903 241.225 104.217 243.007 104.794L247.409 102.278L252.492 105.213L248.038 107.781C248.51 108.305 249.558 106.995 249.558 106.995C249.558 106.995 249.558 110.611 249.558 111.24C249.558 112.445 249.086 113.598 248.195 114.594L252.807 117.214L247.724 120.306L243.112 117.633C241.33 118.21 239.234 118.524 237.033 118.524C234.832 118.524 232.735 118.21 230.954 117.633L226.551 120.149L221.468 117.057L221.363 117.004Z" fill="#E8A302"/>
<path d="M239.601 117.004H233.417V121.04H239.601V117.004Z" fill="#FEC400"/>
<path d="M226.447 115.956V120.096L221.363 117.004V112.864L226.447 115.956Z" fill="#FEC400"/>
<path d="M221.625 101.23V105.37L224.717 107.1L226.446 103.326L221.625 101.23Z" fill="#FEC400"/>
<path d="M247.618 116.061V120.254L252.702 117.162V112.969L247.618 116.061Z" fill="#FEC400"/>
<path d="M252.44 101.073V105.213L249.19 107.1L247.775 103.641L252.44 101.073Z" fill="#FEC400"/>
<path d="M221.363 112.864L226.446 115.956L230.849 113.441C231.687 113.703 232.578 113.912 233.469 114.07V117.004H239.653V114.174C240.858 114.017 241.959 113.755 243.007 113.441L247.618 116.113L252.702 113.022L248.09 110.401C248.981 109.406 249.453 108.253 249.453 107.047C249.453 105.842 248.929 104.637 247.985 103.641L252.44 101.073L247.356 98.1382L242.954 100.654C242.011 100.339 241.068 100.13 240.02 99.9724V97.0901H233.836V99.9724C232.788 100.13 231.844 100.339 230.901 100.654L226.708 98.2955L221.625 101.23L225.818 103.641C224.874 104.637 224.35 105.842 224.35 107.047C224.35 108.253 224.874 109.406 225.713 110.401L221.311 112.864H221.363ZM232.892 107.047C232.892 105.737 234.674 104.689 236.928 104.689C239.181 104.689 240.963 105.737 240.963 107.047C240.963 108.357 239.181 109.406 236.928 109.406C234.674 109.406 232.892 108.357 232.892 107.047Z" fill="#FFD561"/>
<g style="mix-blend-mode:multiply" opacity="0.3">
<path d="M183.526 90.4345L187.928 93.1072L191.701 90.9586C192.435 91.1682 193.169 91.3778 193.955 91.4826V94.0505H199.248V91.5874C200.296 91.4302 201.239 91.2206 202.13 90.9586L206.113 93.2644L210.515 90.5917L206.532 88.3383C207.318 87.4998 207.738 86.504 207.738 85.4559C207.738 84.4078 207.266 83.3597 206.48 82.5212L210.305 80.3201L205.903 77.8047L202.078 79.9533C201.292 79.6913 200.453 79.4817 199.51 79.3768V76.8613H194.217V79.3768C193.326 79.5341 192.487 79.6913 191.701 79.9533L188.085 77.9094L183.683 80.425L187.299 82.5212C186.513 83.4121 186.042 84.4078 186.042 85.4559C186.042 86.504 186.461 87.4474 187.247 88.3383L183.474 90.4869L183.526 90.4345ZM193.431 85.4559C193.431 84.3554 195.003 83.4121 196.89 83.4121C198.776 83.4121 200.348 84.303 200.348 85.4559C200.348 86.6089 198.776 87.4998 196.89 87.4998C195.003 87.4998 193.431 86.6089 193.431 85.4559Z" fill="#15325C"/>
</g>
<path d="M183.525 87.1855L187.299 85.0368C186.513 84.1983 186.093 83.2026 186.093 82.1544C186.093 81.1063 186.146 78.748 186.146 78.748C186.146 78.748 186.932 79.639 187.351 79.2197L183.735 77.1235L188.137 74.608L191.753 76.6518C193.273 76.1802 195.055 75.8657 196.941 75.8657C198.828 75.8657 200.61 76.1277 202.13 76.6518L205.955 74.5032L210.357 77.0187L206.532 79.2197C206.951 79.639 207.842 78.5385 207.842 78.5385C207.842 78.5385 207.842 81.6304 207.842 82.1544C207.842 83.2026 207.422 84.1459 206.636 85.0368L210.619 87.2903L206.217 89.9629L202.234 87.6571C200.662 88.1811 198.88 88.4432 196.994 88.4432C195.107 88.4432 193.325 88.1811 191.753 87.6571L187.98 89.8058L183.578 87.133L183.525 87.1855Z" fill="#E8A302"/>
<path d="M199.195 87.1855H193.902V90.6443H199.195V87.1855Z" fill="#FEC400"/>
<path d="M187.927 86.242V89.8057L183.525 87.1854V83.5693L187.927 86.242Z" fill="#FEC400"/>
<path d="M183.735 73.5601V77.1236L186.408 78.6434L187.928 75.3943L183.735 73.5601Z" fill="#FEC400"/>
<path d="M206.165 86.3469V89.9629L210.567 87.2902V83.7266L206.165 86.3469Z" fill="#FEC400"/>
<path d="M210.306 73.4026V77.0186L207.476 78.6432L206.271 75.6036L210.306 73.4026Z" fill="#FEC400"/>
<path d="M183.526 83.5693L187.928 86.242L191.701 84.0933C192.435 84.3029 193.169 84.5126 193.955 84.6174V87.1853H199.248V84.7222C200.296 84.565 201.239 84.3554 202.13 84.0933L206.113 86.3992L210.515 83.7264L206.532 81.473C207.318 80.6345 207.738 79.6388 207.738 78.5907C207.738 77.5426 207.266 76.4945 206.48 75.656L210.305 73.4549L205.903 70.9394L202.078 73.0881C201.292 72.826 200.453 72.6164 199.51 72.5116V69.9961H194.217V72.5116C193.326 72.6688 192.487 72.826 191.701 73.0881L188.085 71.0442L183.683 73.5597L187.299 75.656C186.513 76.5469 186.042 77.5426 186.042 78.5907C186.042 79.6388 186.461 80.5821 187.247 81.473L183.474 83.6217L183.526 83.5693ZM193.431 78.5907C193.431 77.4902 195.003 76.5468 196.89 76.5468C198.776 76.5468 200.348 77.4378 200.348 78.5907C200.348 79.7436 198.776 80.6345 196.89 80.6345C195.003 80.6345 193.431 79.7436 193.431 78.5907Z" fill="#FFD561"/>
<path d="M92.8633 53.6457L140.71 80.9492L187.928 53.6457L140.081 25.032L92.8633 53.6457Z" fill="#5B95D3"/>
<g style="mix-blend-mode:multiply" opacity="0.3">
<path d="M94.383 144.308L137.775 170.563C138.928 171.245 140.343 171.245 141.548 170.563L186.303 144.256C187.509 143.574 188.085 142.317 188.085 141.111C188.085 139.906 187.509 138.648 186.303 137.967L141.968 111.449C140.815 110.768 139.347 110.768 138.194 111.449L94.383 137.967C92.0247 139.382 92.0247 142.788 94.383 144.256V144.308Z" fill="#15325C"/>
</g>
<path d="M140.081 80.949V165.48L187.928 136.919V53.0166L140.081 80.949Z" fill="#23477C"/>
<path d="M145.688 155.628V84.1982L182.373 62.7642V133.722L145.688 155.628ZM146.894 84.8795V153.427L181.063 132.988V64.9129L146.894 84.8795Z" fill="#052754"/>
<path d="M92.8633 53.0166V136.919L140.081 165.48V80.949L92.8633 53.0166Z" fill="#3C6A9E"/>
<path d="M97.8945 133.46V65.6991C97.8945 64.7557 98.3662 63.9696 98.9951 63.498C99.8336 62.8691 100.987 62.7119 102.035 63.3408L133.688 82.0497C134.526 82.5214 135.05 83.4647 135.05 84.408V152.588C135.05 154.737 132.692 156.047 130.858 154.946L99.2047 135.818C98.3662 135.294 97.8945 134.403 97.8945 133.46Z" fill="#23477C"/>
<path d="M103.502 133.932C102.663 133.408 102.192 132.517 102.192 131.573V63.8123C102.192 63.7075 102.192 63.5503 102.192 63.4455L101.982 63.2883C100.934 62.6594 99.7807 62.8166 98.9422 63.4455C98.261 63.9172 97.8418 64.7032 97.8418 65.6465V133.408C97.8418 134.351 98.3659 135.242 99.1519 135.766L130.805 154.894C132.535 155.942 134.683 154.842 134.945 152.903L103.502 133.879V133.932Z" fill="#052754"/>
<path d="M135.102 87.5522L104.025 69.1577V79.7437L135.102 98.1382V87.5522Z" fill="#5B95D3"/>
<path d="M135.102 100.602L104.025 82.207V92.793L135.102 111.188V100.602Z" fill="#5B95D3"/>
<path d="M135.102 113.65L104.025 95.2559V105.842L135.102 124.236V113.65Z" fill="#5B95D3"/>
<path d="M135.102 126.7L104.025 108.305V118.891L135.102 137.286V126.7Z" fill="#5B95D3"/>
<path d="M135.102 139.749L104.025 121.354V131.94L135.102 150.335V139.749Z" fill="#5B95D3"/>
<path d="M109.371 74.1362V81.0538L129.757 93.1596V86.1896L109.371 74.1362Z" fill="#D6EFFB"/>
<path d="M109.371 94.1031L129.757 106.209V99.2389L109.371 87.1855V94.1031Z" fill="#D6EFFB"/>
<path d="M109.371 107.152L129.757 119.258V112.34L109.371 100.234V107.152Z" fill="#D6EFFB"/>
<path d="M109.371 120.201L129.757 132.307V125.389L109.371 113.284V120.201Z" fill="#D6EFFB"/>
<path d="M109.371 133.25L129.757 145.356V138.439L109.371 126.333V133.25Z" fill="#D6EFFB"/>
</svg>
