<svg width="230" height="42" viewBox="0 0 230 42" fill="none" xmlns="http://www.w3.org/2000/svg">
<path d="M55.092 30L47.102 6.2H52.202L58.016 24.492L63.796 6.2H68.93L60.906 30H55.092ZM72.5316 10.96C71.8063 10.96 71.1716 10.6993 70.6276 10.178C70.1063 9.634 69.8456 8.99933 69.8456 8.274C69.8456 7.54867 70.1063 6.914 70.6276 6.37C71.1716 5.826 71.8063 5.554 72.5316 5.554C73.2796 5.554 73.9143 5.826 74.4356 6.37C74.9796 6.914 75.2516 7.54867 75.2516 8.274C75.2516 8.99933 74.9796 9.634 74.4356 10.178C73.9143 10.6993 73.2796 10.96 72.5316 10.96ZM70.3556 30V13H74.7416V30H70.3556ZM83.142 15.924C83.55 14.836 84.2187 14.02 85.148 13.476C86.1 12.932 87.154 12.66 88.31 12.66V17.556C86.9727 17.3973 85.7713 17.6693 84.706 18.372C83.6633 19.0747 83.142 20.242 83.142 21.874V30H78.756V13H83.142V15.924ZM101.064 17.216H97.222V24.288C97.222 24.8773 97.3693 25.308 97.664 25.58C97.9587 25.852 98.3893 26.0107 98.956 26.056C99.5227 26.0787 100.225 26.0673 101.064 26.022V30C98.0493 30.34 95.9187 30.0567 94.672 29.15C93.448 28.2433 92.836 26.6227 92.836 24.288V17.216H89.878V13H92.836V9.566L97.222 8.24V13H101.064V17.216ZM115.642 13H120.028V30H115.642V28.096C114.577 29.6827 112.888 30.476 110.576 30.476C108.717 30.476 107.176 29.8527 105.952 28.606C104.751 27.3593 104.15 25.6367 104.15 23.438V13H108.536V22.894C108.536 24.0273 108.842 24.9 109.454 25.512C110.066 26.1013 110.882 26.396 111.902 26.396C113.035 26.396 113.942 26.0447 114.622 25.342C115.302 24.6393 115.642 23.5853 115.642 22.18V13ZM127.751 23.302C128.34 25.4327 129.938 26.498 132.545 26.498C134.222 26.498 135.492 25.9313 136.353 24.798L139.889 26.838C138.212 29.2633 135.741 30.476 132.477 30.476C129.666 30.476 127.411 29.626 125.711 27.926C124.011 26.226 123.161 24.084 123.161 21.5C123.161 18.9387 124 16.808 125.677 15.108C127.354 13.3853 129.508 12.524 132.137 12.524C134.63 12.524 136.682 13.3853 138.291 15.108C139.923 16.8307 140.739 18.9613 140.739 21.5C140.739 22.0667 140.682 22.6673 140.569 23.302H127.751ZM127.683 19.902H136.353C136.104 18.746 135.582 17.8847 134.789 17.318C134.018 16.7513 133.134 16.468 132.137 16.468C130.958 16.468 129.984 16.774 129.213 17.386C128.442 17.9753 127.932 18.814 127.683 19.902ZM151.76 30.476C149.199 30.476 147.057 29.6147 145.334 27.892C143.634 26.1693 142.784 24.0387 142.784 21.5C142.784 18.9613 143.634 16.8307 145.334 15.108C147.057 13.3853 149.199 12.524 151.76 12.524C153.415 12.524 154.922 12.9207 156.282 13.714C157.642 14.5073 158.673 15.5727 159.376 16.91L155.602 19.12C155.262 18.4173 154.741 17.862 154.038 17.454C153.358 17.046 152.587 16.842 151.726 16.842C150.411 16.842 149.323 17.284 148.462 18.168C147.601 19.0293 147.17 20.14 147.17 21.5C147.17 22.8373 147.601 23.948 148.462 24.832C149.323 25.6933 150.411 26.124 151.726 26.124C152.61 26.124 153.392 25.9313 154.072 25.546C154.775 25.138 155.296 24.5827 155.636 23.88L159.444 26.056C158.696 27.3933 157.642 28.47 156.282 29.286C154.922 30.0793 153.415 30.476 151.76 30.476ZM161.764 30V5.18H166.15V30H161.764ZM184.648 27.892C182.903 29.6147 180.772 30.476 178.256 30.476C175.74 30.476 173.61 29.6147 171.864 27.892C170.142 26.1467 169.28 24.016 169.28 21.5C169.28 18.984 170.142 16.8647 171.864 15.142C173.61 13.3967 175.74 12.524 178.256 12.524C180.772 12.524 182.903 13.3967 184.648 15.142C186.394 16.8647 187.266 18.984 187.266 21.5C187.266 24.016 186.394 26.1467 184.648 27.892ZM174.958 24.866C175.842 25.75 176.942 26.192 178.256 26.192C179.571 26.192 180.67 25.75 181.554 24.866C182.438 23.982 182.88 22.86 182.88 21.5C182.88 20.14 182.438 19.018 181.554 18.134C180.67 17.25 179.571 16.808 178.256 16.808C176.942 16.808 175.842 17.25 174.958 18.134C174.097 19.018 173.666 20.14 173.666 21.5C173.666 22.86 174.097 23.982 174.958 24.866ZM201.572 13H205.958V30H201.572V28.096C200.506 29.6827 198.818 30.476 196.506 30.476C194.647 30.476 193.106 29.8527 191.882 28.606C190.68 27.3593 190.08 25.6367 190.08 23.438V13H194.466V22.894C194.466 24.0273 194.772 24.9 195.384 25.512C195.996 26.1013 196.812 26.396 197.832 26.396C198.965 26.396 199.872 26.0447 200.552 25.342C201.232 24.6393 201.572 23.5853 201.572 22.18V13ZM222.861 6.2H227.247V30H222.861V27.994C221.569 29.6487 219.733 30.476 217.353 30.476C215.063 30.476 213.103 29.6147 211.471 27.892C209.861 26.1467 209.057 24.016 209.057 21.5C209.057 18.984 209.861 16.8647 211.471 15.142C213.103 13.3967 215.063 12.524 217.353 12.524C219.733 12.524 221.569 13.3513 222.861 15.006V6.2ZM214.769 24.968C215.675 25.852 216.809 26.294 218.169 26.294C219.529 26.294 220.651 25.852 221.535 24.968C222.419 24.0613 222.861 22.9053 222.861 21.5C222.861 20.0947 222.419 18.95 221.535 18.066C220.651 17.1593 219.529 16.706 218.169 16.706C216.809 16.706 215.675 17.1593 214.769 18.066C213.885 18.95 213.443 20.0947 213.443 21.5C213.443 22.9053 213.885 24.0613 214.769 24.968Z" fill="white"/>
<path d="M22.5715 13.5661C23.465 13.2529 24.4267 13.0825 25.4285 13.0825C26.4106 13.0825 27.3539 13.2463 28.2326 13.5477C31.5895 14.6994 34 17.8611 34 21.581C34 26.2746 30.1624 30.0796 25.4285 30.0796H10.4286C6.87817 30.0796 4 27.2259 4 23.7057C4 20.1855 6.87817 17.3318 10.4286 17.3318C10.8547 17.3318 11.2712 17.3729 11.6742 17.4513C12.5209 17.6162 13.3079 17.9458 14 18.4051" stroke="white" stroke-width="7" stroke-linecap="round"/>
<path opacity="0.5" d="M11.674 17.451C11.3303 16.5313 11.1426 15.5367 11.1426 14.4985C11.1426 9.8049 14.9801 6 19.7139 6C24.1235 6 27.7554 9.30141 28.2323 13.5473" stroke="white" stroke-width="7" stroke-linecap="round"/>
</svg>
