<svg width="100" height="43" viewBox="0 0 100 43" fill="none" xmlns="http://www.w3.org/2000/svg">
<path d="M42.6884 22.9782C42.6884 27.7469 39.0031 31.2609 34.4804 31.2609C29.9578 31.2609 26.2725 27.7469 26.2725 22.9782C26.2725 18.1758 29.9578 14.6954 34.4804 14.6954C39.0031 14.6954 42.6884 18.1758 42.6884 22.9782ZM39.0954 22.9782C39.0954 19.9982 36.9594 17.9592 34.4804 17.9592C32.0014 17.9592 29.8655 19.9982 29.8655 22.9782C29.8655 25.9283 32.0014 27.9971 34.4804 27.9971C36.9594 27.9971 39.0954 25.9245 39.0954 22.9782Z" fill="#141F65"/>
<path d="M60.3955 22.9782C60.3955 27.7469 56.7102 31.2609 52.1875 31.2609C47.6648 31.2609 43.9795 27.7469 43.9795 22.9782C43.9795 18.1796 47.6648 14.6954 52.1875 14.6954C56.7102 14.6954 60.3955 18.1758 60.3955 22.9782ZM56.8024 22.9782C56.8024 19.9982 54.6665 17.9592 52.1875 17.9592C49.7085 17.9592 47.5726 19.9982 47.5726 22.9782C47.5726 25.9283 49.7085 27.9971 52.1875 27.9971C54.6665 27.9971 56.8024 25.9245 56.8024 22.9782Z" fill="#141F65"/>
<path d="M77.3652 15.1958V30.0659C77.3652 36.1827 73.8017 38.681 69.5889 38.681C65.6232 38.681 63.2364 35.996 62.3363 33.8002L65.4646 32.482C66.0216 33.8301 67.3865 35.4209 69.5852 35.4209C72.2818 35.4209 73.9529 33.7368 73.9529 30.5663V29.3751H73.8275C73.0233 30.3796 71.4739 31.2572 69.5188 31.2572C65.4277 31.2572 61.6797 27.6498 61.6797 23.008C61.6797 18.3327 65.4277 14.6954 69.5188 14.6954C71.4702 14.6954 73.0196 15.573 73.8275 16.5477H73.9529V15.1996H77.3652V15.1958ZM74.2075 23.008C74.2075 20.0915 72.2855 17.9592 69.8397 17.9592C67.3607 17.9592 65.2838 20.0915 65.2838 23.008C65.2838 25.8947 67.3607 27.9971 69.8397 27.9971C72.2855 27.9971 74.2075 25.8947 74.2075 23.008Z" fill="#141F65"/>
<path d="M82.9899 6.47995V30.7531H79.4854V6.47995H82.9899Z" fill="#141F65"/>
<path d="M96.6468 25.7043L99.4357 27.5864C98.5356 28.9345 96.3665 31.2573 92.6185 31.2573C87.9704 31.2573 84.499 27.62 84.499 22.9745C84.499 18.049 87.9999 14.6918 92.2164 14.6918C96.4624 14.6918 98.5393 18.1124 99.218 19.9609L99.5906 20.902L88.6528 25.4877C89.4902 27.1495 90.7924 27.9972 92.6185 27.9972C94.4482 27.9972 95.7172 27.086 96.6468 25.7043ZM88.0626 22.7243L95.3741 19.651C94.972 18.6166 93.762 17.8959 92.3381 17.8959C90.5121 17.8959 87.9704 19.5278 88.0626 22.7243V22.7243Z" fill="#141F65"/>
<path d="M13.0067 20.8232V17.3092H24.7045C24.8188 17.9216 24.8778 18.6461 24.8778 19.4303C24.8778 22.0667 24.1659 25.3268 21.8713 27.6495C19.6395 30.0022 16.7879 31.2569 13.0104 31.2569C6.00871 31.2569 0.121094 25.4836 0.121094 18.3959C0.121094 11.3081 6.00871 5.53488 13.0104 5.53488C16.8838 5.53488 19.6432 7.07342 21.7164 9.07875L19.2669 11.5583C17.7802 10.1468 15.7661 9.04888 13.0067 9.04888C7.89377 9.04888 3.89492 13.2201 3.89492 18.3959C3.89492 23.5717 7.89377 27.7429 13.0067 27.7429C16.3231 27.7429 18.2119 26.3948 19.4218 25.17C20.4031 24.1766 21.0487 22.7576 21.3032 20.8195L13.0067 20.8232V20.8232Z" fill="#141F65"/>
</svg>
