<svg width="48" height="48" viewBox="0 0 48 48" fill="none" xmlns="http://www.w3.org/2000/svg">
<path opacity="0.5" d="M4 24C4 14.5719 4 9.85786 6.92894 6.92894C9.85786 4 14.5719 4 24 4C33.428 4 38.1422 4 41.071 6.92894C44 9.85786 44 14.5719 44 24C44 33.428 44 38.1422 41.071 41.071C38.1422 44 33.428 44 24 44C14.5719 44 9.85786 44 6.92894 41.071C4 38.1422 4 33.428 4 24Z" stroke="#0B55EB" stroke-width="3"/>
<path d="M14 28L17.5938 23.6874C19.0179 21.9786 19.7299 21.124 20.6666 21.124C21.6034 21.124 22.3154 21.9786 23.7396 23.6874L24.2604 24.3126C25.6846 26.0214 26.3966 26.876 27.3334 26.876C28.27 26.876 28.9822 26.0214 30.4062 24.3126L34 20" stroke="#0B55EB" stroke-width="3" stroke-linecap="round"/>
</svg>
