<svg width="220" height="41" viewBox="0 0 220 41" fill="none" xmlns="http://www.w3.org/2000/svg">
<path d="M49.772 30L41.272 6.2H44.672L51.574 26.056L58.442 6.2H61.876L53.342 30H49.772ZM65.1931 9.906C64.6265 9.906 64.1505 9.71333 63.7651 9.328C63.3798 8.94267 63.1871 8.478 63.1871 7.934C63.1871 7.39 63.3798 6.92533 63.7651 6.54C64.1505 6.132 64.6265 5.928 65.1931 5.928C65.7371 5.928 66.2018 6.132 66.5871 6.54C66.9725 6.92533 67.1651 7.39 67.1651 7.934C67.1651 8.478 66.9725 8.94267 66.5871 9.328C66.2018 9.71333 65.7371 9.906 65.1931 9.906ZM63.6971 30V13H66.6551V30H63.6971ZM74.1258 15.856C75.1005 13.748 76.8685 12.694 79.4298 12.694V15.788C77.9792 15.72 76.7325 16.1053 75.6898 16.944C74.6472 17.7827 74.1258 19.1313 74.1258 20.99V30H71.1678V13H74.1258V15.856ZM91.9705 15.856H87.4485V25.07C87.4485 25.9087 87.6072 26.5093 87.9245 26.872C88.2645 27.212 88.7745 27.3933 89.4545 27.416C90.1345 27.416 90.9732 27.3933 91.9705 27.348V30C89.3865 30.34 87.4938 30.136 86.2925 29.388C85.0912 28.6173 84.4905 27.178 84.4905 25.07V15.856H81.1245V13H84.4905V9.124L87.4485 8.24V13H91.9705V15.856ZM107.302 13H110.26V30H107.302V27.552C106.101 29.4787 104.265 30.442 101.794 30.442C99.7995 30.442 98.2015 29.8187 97.0001 28.572C95.7988 27.3027 95.1981 25.5913 95.1981 23.438V13H98.1561V23.268C98.1561 24.6507 98.5301 25.7273 99.2781 26.498C100.026 27.246 101.057 27.62 102.372 27.62C103.845 27.62 105.035 27.1667 105.942 26.26C106.849 25.3307 107.302 23.914 107.302 22.01V13ZM116.838 22.86C117.132 24.3787 117.824 25.5573 118.912 26.396C120.022 27.2347 121.382 27.654 122.992 27.654C125.236 27.654 126.868 26.8267 127.888 25.172L130.404 26.6C128.749 29.1613 126.256 30.442 122.924 30.442C120.226 30.442 118.028 29.6033 116.328 27.926C114.65 26.226 113.812 24.084 113.812 21.5C113.812 18.9387 114.639 16.808 116.294 15.108C117.948 13.408 120.09 12.558 122.72 12.558C125.213 12.558 127.242 13.442 128.806 15.21C130.392 16.9553 131.186 19.0633 131.186 21.534C131.186 21.9647 131.152 22.4067 131.084 22.86H116.838ZM122.72 15.346C121.133 15.346 119.818 15.7993 118.776 16.706C117.733 17.59 117.087 18.78 116.838 20.276H128.194C127.944 18.6667 127.31 17.4427 126.29 16.604C125.27 15.7653 124.08 15.346 122.72 15.346ZM142.543 30.442C139.981 30.442 137.851 29.592 136.151 27.892C134.451 26.1693 133.601 24.0387 133.601 21.5C133.601 18.9613 134.451 16.842 136.151 15.142C137.851 13.4193 139.981 12.558 142.543 12.558C144.22 12.558 145.727 12.966 147.065 13.782C148.402 14.5753 149.399 15.652 150.057 17.012L147.575 18.44C147.144 17.5333 146.475 16.808 145.569 16.264C144.685 15.72 143.676 15.448 142.543 15.448C140.843 15.448 139.415 16.026 138.259 17.182C137.125 18.338 136.559 19.7773 136.559 21.5C136.559 23.2 137.125 24.628 138.259 25.784C139.415 26.94 140.843 27.518 142.543 27.518C143.676 27.518 144.696 27.2573 145.603 26.736C146.509 26.192 147.201 25.4667 147.677 24.56L150.193 26.022C149.467 27.3593 148.425 28.436 147.065 29.252C145.705 30.0453 144.197 30.442 142.543 30.442ZM153.113 30V5.18H156.071V30H153.113ZM174.932 27.858C173.187 29.5807 171.067 30.442 168.574 30.442C166.081 30.442 163.961 29.5807 162.216 27.858C160.493 26.1353 159.632 24.016 159.632 21.5C159.632 18.984 160.493 16.8647 162.216 15.142C163.961 13.4193 166.081 12.558 168.574 12.558C171.067 12.558 173.187 13.4193 174.932 15.142C176.677 16.8647 177.55 18.984 177.55 21.5C177.55 24.016 176.677 26.1353 174.932 27.858ZM168.574 27.552C170.274 27.552 171.702 26.974 172.858 25.818C174.014 24.662 174.592 23.2227 174.592 21.5C174.592 19.7773 174.014 18.338 172.858 17.182C171.702 16.026 170.274 15.448 168.574 15.448C166.897 15.448 165.48 16.026 164.324 17.182C163.168 18.338 162.59 19.7773 162.59 21.5C162.59 23.2227 163.168 24.662 164.324 25.818C165.48 26.974 166.897 27.552 168.574 27.552ZM192.767 13H195.725V30H192.767V27.552C191.566 29.4787 189.73 30.442 187.259 30.442C185.264 30.442 183.666 29.8187 182.465 28.572C181.264 27.3027 180.663 25.5913 180.663 23.438V13H183.621V23.268C183.621 24.6507 183.995 25.7273 184.743 26.498C185.491 27.246 186.522 27.62 187.837 27.62C189.31 27.62 190.5 27.1667 191.407 26.26C192.314 25.3307 192.767 23.914 192.767 22.01V13ZM214.304 6.2H217.262V30H214.304V27.076C212.831 29.32 210.689 30.442 207.878 30.442C205.498 30.442 203.47 29.5807 201.792 27.858C200.115 26.1127 199.276 23.9933 199.276 21.5C199.276 19.0067 200.115 16.8987 201.792 15.176C203.47 13.4307 205.498 12.558 207.878 12.558C210.689 12.558 212.831 13.68 214.304 15.924V6.2ZM208.252 27.586C209.975 27.586 211.414 27.008 212.57 25.852C213.726 24.6733 214.304 23.2227 214.304 21.5C214.304 19.7773 213.726 18.338 212.57 17.182C211.414 16.0033 209.975 15.414 208.252 15.414C206.552 15.414 205.124 16.0033 203.968 17.182C202.812 18.338 202.234 19.7773 202.234 21.5C202.234 23.2227 202.812 24.6733 203.968 25.852C205.124 27.008 206.552 27.586 208.252 27.586Z" fill="#0B55EB"/>
<path d="M20.5715 13.5411C21.465 13.2289 22.4267 13.0591 23.4285 13.0591C24.4106 13.0591 25.3539 13.2223 26.2326 13.5227C29.5895 14.6706 32 17.822 32 21.5297C32 26.2079 28.1624 30.0003 23.4285 30.0003H8.42856C4.87817 30.0003 2 27.156 2 23.6474C2 20.1387 4.87817 17.2944 8.42856 17.2944C8.85474 17.2944 9.27125 17.3354 9.67424 17.4135C10.5209 17.5779 11.3079 17.9064 12 18.3642" stroke="#0B55EB" stroke-width="4" stroke-linecap="round"/>
<path opacity="0.5" d="M9.67397 17.4134C9.33032 16.4967 9.14258 15.5054 9.14258 14.4706C9.14258 9.79241 12.9801 6 17.7139 6C22.1235 6 25.7554 9.29057 26.2323 13.5225" stroke="#0B55EB" stroke-width="4" stroke-linecap="round"/>
</svg>
