<svg width="213" height="51" viewBox="0 0 213 51" fill="none" xmlns="http://www.w3.org/2000/svg">
<path d="M40.432 39L32.17 15.2H36.454L42.778 34.274L49.136 15.2H53.386L45.124 39H40.432ZM58.4948 18.77C58.0414 19.2233 57.4974 19.45 56.8628 19.45C56.2281 19.45 55.6728 19.2233 55.1968 18.77C54.7434 18.294 54.5168 17.7387 54.5168 17.104C54.5168 16.4693 54.7434 15.9253 55.1968 15.472C55.6501 14.996 56.2054 14.758 56.8628 14.758C57.5201 14.758 58.0754 14.996 58.5288 15.472C58.9821 15.9253 59.2088 16.4693 59.2088 17.104C59.2088 17.7387 58.9708 18.294 58.4948 18.77ZM55.0268 39V22H58.6988V39H55.0268ZM66.6343 24.856C67.5636 22.748 69.309 21.694 71.8703 21.694V25.672C70.465 25.5813 69.241 25.9213 68.1983 26.692C67.1556 27.44 66.6343 28.6867 66.6343 30.432V39H62.9623V22H66.6343V24.856ZM84.501 25.536H80.285V33.696C80.285 34.3987 80.4437 34.9087 80.761 35.226C81.0784 35.5207 81.543 35.6907 82.155 35.736C82.7897 35.7587 83.5717 35.7473 84.501 35.702V39C81.6904 39.34 79.673 39.102 78.449 38.286C77.225 37.4473 76.613 35.9173 76.613 33.696V25.536H73.485V22H76.613V18.328L80.285 17.24V22H84.501V25.536ZM99.4555 22H103.127V39H99.4555V36.824C98.3448 38.5693 96.5881 39.442 94.1855 39.442C92.2361 39.442 90.6608 38.8187 89.4595 37.572C88.2581 36.3253 87.6575 34.614 87.6575 32.438V22H91.3295V32.064C91.3295 33.3333 91.6695 34.308 92.3495 34.988C93.0295 35.668 93.9588 36.008 95.1375 36.008C96.4295 36.008 97.4721 35.6113 98.2655 34.818C99.0588 34.002 99.4555 32.7667 99.4555 31.112V22ZM110.311 32.064C110.583 33.356 111.207 34.3533 112.181 35.056C113.156 35.736 114.346 36.076 115.751 36.076C117.701 36.076 119.163 35.3733 120.137 33.968L123.163 35.736C121.486 38.2067 119.004 39.442 115.717 39.442C112.952 39.442 110.719 38.6033 109.019 36.926C107.319 35.226 106.469 33.084 106.469 30.5C106.469 27.9613 107.308 25.842 108.985 24.142C110.663 22.4193 112.816 21.558 115.445 21.558C117.939 21.558 119.979 22.4307 121.565 24.176C123.175 25.9213 123.979 28.0407 123.979 30.534C123.979 30.9193 123.934 31.4293 123.843 32.064H110.311ZM110.277 29.072H120.273C120.024 27.6893 119.446 26.6467 118.539 25.944C117.655 25.2413 116.613 24.89 115.411 24.89C114.051 24.89 112.918 25.264 112.011 26.012C111.105 26.76 110.527 27.78 110.277 29.072ZM135.135 39.442C132.573 39.442 130.431 38.5807 128.709 36.858C127.009 35.1353 126.159 33.016 126.159 30.5C126.159 27.9613 127.009 25.842 128.709 24.142C130.431 22.4193 132.573 21.558 135.135 21.558C136.789 21.558 138.297 21.9547 139.657 22.748C141.017 23.5413 142.037 24.6067 142.717 25.944L139.555 27.78C139.169 26.964 138.58 26.3293 137.787 25.876C137.016 25.4 136.121 25.162 135.101 25.162C133.605 25.162 132.347 25.672 131.327 26.692C130.329 27.712 129.831 28.9813 129.831 30.5C129.831 32.0187 130.329 33.288 131.327 34.308C132.347 35.328 133.605 35.838 135.101 35.838C136.098 35.838 136.993 35.6 137.787 35.124C138.603 34.648 139.215 34.0133 139.623 33.22L142.785 35.022C142.059 36.382 141.017 37.4587 139.657 38.252C138.297 39.0453 136.789 39.442 135.135 39.442ZM145.439 39V14.18H149.111V39H145.439ZM161.398 39.442C158.905 39.442 156.786 38.5807 155.04 36.858C153.295 35.1353 152.422 33.016 152.422 30.5C152.422 27.984 153.295 25.8647 155.04 24.142C156.786 22.4193 158.905 21.558 161.398 21.558C163.914 21.558 166.034 22.4193 167.756 24.142C169.502 25.8647 170.374 27.984 170.374 30.5C170.374 33.016 169.502 35.1353 167.756 36.858C166.034 38.5807 163.914 39.442 161.398 39.442ZM157.624 34.342C158.644 35.362 159.902 35.872 161.398 35.872C162.894 35.872 164.152 35.362 165.172 34.342C166.192 33.322 166.702 32.0413 166.702 30.5C166.702 28.9587 166.192 27.678 165.172 26.658C164.152 25.638 162.894 25.128 161.398 25.128C159.902 25.128 158.644 25.638 157.624 26.658C156.604 27.678 156.094 28.9587 156.094 30.5C156.094 32.0413 156.604 33.322 157.624 34.342ZM185.153 22H188.825V39H185.153V36.824C184.042 38.5693 182.285 39.442 179.883 39.442C177.933 39.442 176.358 38.8187 175.157 37.572C173.955 36.3253 173.355 34.614 173.355 32.438V22H177.027V32.064C177.027 33.3333 177.367 34.308 178.047 34.988C178.727 35.668 179.656 36.008 180.835 36.008C182.127 36.008 183.169 35.6113 183.963 34.818C184.756 34.002 185.153 32.7667 185.153 31.112V22ZM206.583 15.2H210.255V39H206.583V36.552C205.2 38.4787 203.217 39.442 200.633 39.442C198.298 39.442 196.303 38.5807 194.649 36.858C192.994 35.1127 192.167 32.9933 192.167 30.5C192.167 27.984 192.994 25.8647 194.649 24.142C196.303 22.4193 198.298 21.558 200.633 21.558C203.217 21.558 205.2 22.51 206.583 24.414V15.2ZM197.369 34.41C198.389 35.43 199.669 35.94 201.211 35.94C202.752 35.94 204.033 35.43 205.053 34.41C206.073 33.3673 206.583 32.064 206.583 30.5C206.583 28.936 206.073 27.644 205.053 26.624C204.033 25.5813 202.752 25.06 201.211 25.06C199.669 25.06 198.389 25.5813 197.369 26.624C196.349 27.644 195.839 28.936 195.839 30.5C195.839 32.064 196.349 33.3673 197.369 34.41Z" fill="#0B55EB"/>
<path d="M6.37548 19.6342C14.8949 22.5681 19.7283 13.3716 20.9319 9.36575C19.9727 17.8288 19.9163 26.5288 6.37548 49.5934C8.68871 24.2043 3.89299 21.214 0 16.5311L6.37548 19.6342Z" fill="#0B55EB"/>
<path fill-rule="evenodd" clip-rule="evenodd" d="M18.6752 0C19.7583 0 20.7118 0.554953 21.2669 1.39604C21.6365 0.891692 22.2332 0.564207 22.9064 0.564207C23.9738 0.564207 24.849 1.38769 24.9312 2.43405C25.3073 2.24831 25.7308 2.14395 26.1786 2.14395C27.7366 2.14395 28.9996 3.40696 28.9996 4.96496C28.9996 6.52296 27.7366 7.78597 26.1786 7.78597C26.1783 7.78597 26.178 7.78597 26.1777 7.78597C25.6769 9.10517 24.4011 10.0428 22.9063 10.0428C22.0371 10.0428 21.2419 9.72576 20.6301 9.20104C20.2605 9.37892 19.8461 9.47859 19.4084 9.47859C18.8797 9.47859 18.3849 9.33313 17.962 9.08003C17.5446 9.33298 17.0549 9.47859 16.5312 9.47859C15.0043 9.47859 13.7666 8.24084 13.7666 6.714C13.7666 6.3796 13.826 6.05907 13.9347 5.76237C13.555 5.43138 13.3149 4.9441 13.3149 4.40076C13.3149 3.40364 14.1233 2.59532 15.1204 2.59532C15.2877 2.59532 15.4496 2.61807 15.6034 2.66064C15.8181 1.15643 17.1116 0 18.6752 0Z" fill="#0B55EB"/>
<circle cx="10.4377" cy="15.2899" r="3.44163" fill="#0B55EB"/>
</svg>
