<svg width="149" height="43" viewBox="0 0 149 43" fill="none" xmlns="http://www.w3.org/2000/svg">
<path fill-rule="evenodd" clip-rule="evenodd" d="M67.8744 27.2675C66.838 27.5089 66.3019 27.1869 66.3019 26.4935C66.3019 25.5435 67.2744 25.1632 68.6637 25.1632C69.2748 25.1632 69.8513 25.2165 69.8513 25.2165C69.8513 25.6232 68.9763 27.0109 67.8744 27.2675ZM68.9289 17.7561C65.6115 17.7561 63.2297 18.9883 63.2297 18.9883V22.6106C63.2297 22.6106 65.8593 21.0836 67.9928 21.0836C69.6947 21.0836 69.9041 22.0112 69.8269 22.7808C69.8269 22.7808 69.3355 22.6495 67.8376 22.6495C64.3064 22.6495 62.5246 24.2705 62.5246 26.8693C62.5246 29.3346 64.5272 30.3648 66.215 30.3648C68.677 30.3648 69.7599 28.6932 70.0921 27.9004C70.3231 27.3504 70.3657 26.9795 70.5723 26.9795C70.8096 26.9795 70.7298 27.2456 70.7178 27.7929C70.6983 28.7519 70.7435 29.4766 70.8938 30.0876H74.1589V24.1554C74.1589 20.4516 72.8614 17.7561 68.9289 17.7561Z" fill="#141F65"/>
<path fill-rule="evenodd" clip-rule="evenodd" d="M90.4189 24.0665C90.4189 22.983 91.4162 21.9962 93.2467 21.9962C95.2409 21.9962 96.8458 22.9664 97.2054 23.1868V18.9934C97.2054 18.9934 95.938 17.7607 92.8228 17.7607C89.5391 17.7607 86.8043 19.7015 86.8043 23.8792C86.8043 28.0565 89.2863 30.3731 92.8139 30.3731C95.57 30.3731 97.2125 28.8435 97.2125 28.8435V24.8611C96.6928 25.1544 95.2449 26.1699 93.2667 26.1699C91.1723 26.1699 90.4189 25.1961 90.4189 24.0665ZM46.779 18.0353C46.7794 18.038 46.9874 18.9392 46.7133 20.1177C46.5736 20.717 46.3169 21.2267 46.6268 21.2267C46.8406 21.2267 46.841 21.0475 47.1191 20.4052C47.5257 19.4664 48.3829 17.7576 50.386 17.7576C52.2901 17.7576 53.1872 18.9262 53.4844 20.0205C53.7105 20.8518 53.5127 21.2267 53.7886 21.2267C53.9846 21.2267 54.0524 20.7953 54.2937 20.2498C54.7269 19.2724 55.6692 17.7576 57.5752 17.7576C60.451 17.7576 61.5489 19.8552 61.5489 23.0018V30.0918H57.2767V23.5554C57.2767 22.4656 57.1025 21.4085 56.1189 21.4085C55.2076 21.4085 54.7828 23.0398 54.7828 24.0929V30.0945H50.4321V23.5558C50.4321 22.1615 50.2374 21.409 49.2671 21.409C48.4273 21.409 47.9372 22.9099 47.9372 24.0933V30.0923H43.6038V18.0353H46.779ZM75.581 18.0519C75.5828 18.0528 76.3203 18.4823 77.7517 18.4823C79.1858 18.4823 79.914 18.0519 79.914 18.0519V30.0949H75.581V18.0519ZM111.354 18.0519C111.355 18.0528 112.093 18.4823 113.525 18.4823C114.959 18.4823 115.687 18.0519 115.687 18.0519V30.0949H111.354V18.0519ZM85.6496 14.3852V30.0949H81.3162V14.3852H85.6496ZM102.355 14.3852C102.356 14.3866 102.535 14.8381 102.535 16.1809C102.535 18.1638 102.108 19.7777 101.906 20.3927C101.799 20.7183 101.608 21.2209 101.882 21.2298C102.04 21.2347 102.135 20.9947 102.328 20.5781C102.521 20.1611 103.475 17.7603 105.983 17.7603C109.438 17.7603 109.946 20.618 109.946 23.7126V30.0945H105.613V23.4506C105.613 22.088 105.33 21.4112 104.426 21.4112C103.334 21.4112 102.948 23.1187 102.948 24.096V30.0945H98.6147V14.3848L102.355 14.3852ZM120.326 18.0353C120.326 18.038 120.534 18.9392 120.26 20.1177C120.121 20.717 119.864 21.2267 120.174 21.2267C120.388 21.2267 120.388 21.0475 120.666 20.4052C121.072 19.4664 121.93 17.7576 123.933 17.7576C125.924 17.7576 126.714 18.9316 127.031 20.0205C127.244 20.7501 127.06 21.2267 127.336 21.2267C127.532 21.2267 127.599 20.7953 127.841 20.2498C128.273 19.2724 129.216 17.7576 131.122 17.7576C133.998 17.7576 135.096 19.8552 135.096 23.0018V30.0918H130.824V23.5554C130.824 22.4656 130.65 21.4085 129.666 21.4085C128.755 21.4085 128.329 23.0398 128.329 24.0929V30.0945H123.979V23.5558C123.979 22.1615 123.785 21.409 122.814 21.409C121.974 21.409 121.484 22.9099 121.484 24.0933V30.0923H117.151V18.0353H120.326ZM77.7344 14.2634C76.2702 14.2634 75.0821 15.0464 75.0821 16.0121C75.0821 16.9778 76.2697 17.7607 77.7344 17.7607C79.1996 17.7607 80.3871 16.9778 80.3871 16.0121C80.3871 15.0464 79.2 14.2634 77.7344 14.2634ZM113.508 14.2634C112.043 14.2634 110.855 15.0464 110.855 16.0121C110.855 16.9778 112.042 17.7607 113.508 17.7607C114.972 17.7607 116.16 16.9778 116.16 16.0121C116.16 15.0464 114.973 14.2634 113.508 14.2634Z" fill="#141F65"/>
<path fill-rule="evenodd" clip-rule="evenodd" d="M142.477 27.4969C141.484 27.4969 140.753 26.2243 140.753 24.451C140.753 22.7288 141.504 21.4061 142.443 21.4061C143.648 21.4061 144.163 22.5228 144.163 24.451C144.163 26.4572 143.689 27.4969 142.477 27.4969ZM143.666 17.7534C141.44 17.7534 140.419 19.4398 139.975 20.4006C139.682 21.0352 139.698 21.222 139.483 21.222C139.174 21.222 139.431 20.7123 139.57 20.113C139.845 18.9327 139.636 18.0311 139.636 18.0311H136.463V33.4138H140.794V28.5369C141.306 29.4153 142.256 30.3536 143.72 30.3536C146.853 30.3536 148.429 27.6765 148.429 24.0596C148.429 19.9602 146.542 17.7534 143.667 17.7534" fill="#141F65"/>
<path fill-rule="evenodd" clip-rule="evenodd" d="M28.2855 21.3932C28.5768 21.3583 28.8558 21.3565 29.1125 21.3932C29.2611 21.0492 29.2864 20.4566 29.1529 19.8112C28.9547 18.8517 28.6859 18.2713 28.1307 18.3617C27.5755 18.4522 27.5551 19.1474 27.7538 20.1064C27.8655 20.6461 28.0642 21.1074 28.2855 21.3932Z" fill="#141F65"/>
<path fill-rule="evenodd" clip-rule="evenodd" d="M23.5223 22.1525C23.9192 22.3285 24.1636 22.4454 24.2589 22.3433C24.3205 22.2797 24.3019 22.1583 24.207 22.002C24.011 21.679 23.6079 21.3512 23.18 21.1671C22.3055 20.7868 21.2621 20.9131 20.4572 21.4972C20.1916 21.6938 19.9397 21.9661 19.9756 22.1314C19.9872 22.1847 20.0271 22.225 20.1202 22.2385C20.3393 22.2636 21.1046 21.873 21.9867 21.8183C22.6088 21.7798 23.125 21.9764 23.5223 22.1525Z" fill="#141F65"/>
<path fill-rule="evenodd" clip-rule="evenodd" d="M22.7252 22.613C22.2077 22.6954 21.9226 22.8678 21.7394 23.0277C21.5833 23.1657 21.4866 23.3184 21.4875 23.4255C21.488 23.4765 21.5097 23.5061 21.527 23.5209C21.5505 23.5419 21.5784 23.5536 21.6121 23.5536C21.7288 23.5536 21.9908 23.4474 21.9908 23.4474C22.7106 23.1872 23.1855 23.219 23.656 23.2727C23.9159 23.3023 24.0391 23.3184 24.0959 23.2284C24.1128 23.2024 24.1332 23.1464 24.0813 23.0613C23.9602 22.8629 23.4374 22.5274 22.7252 22.613Z" fill="#141F65"/>
<path fill-rule="evenodd" clip-rule="evenodd" d="M26.6782 24.3026C27.0294 24.4769 27.4161 24.4083 27.542 24.1499C27.668 23.8914 27.4853 23.5403 27.134 23.366C26.7828 23.1918 26.3961 23.2603 26.2702 23.5188C26.1443 23.7777 26.327 24.1284 26.6782 24.3026Z" fill="#141F65"/>
<path fill-rule="evenodd" clip-rule="evenodd" d="M28.9365 22.31C28.6514 22.3051 28.4146 22.6213 28.4079 23.0168C28.4013 23.4123 28.6275 23.7361 28.9126 23.7411C29.1977 23.746 29.4345 23.4298 29.4412 23.0343C29.4478 22.6392 29.2217 22.3149 28.9365 22.31Z" fill="#141F65"/>
<path fill-rule="evenodd" clip-rule="evenodd" d="M9.77068 29.436C9.69973 29.346 9.5831 29.3733 9.47002 29.4002C9.39109 29.419 9.30195 29.4396 9.20395 29.4383C8.9942 29.4343 8.81638 29.3438 8.7166 29.1888C8.58667 28.9872 8.59421 28.6867 8.73744 28.3427L8.8044 28.1886C9.03322 27.6699 9.41592 26.8023 8.98622 25.9755C8.6625 25.3529 8.1348 24.9654 7.50022 24.8839C6.89092 24.806 6.26388 25.0339 5.86389 25.4796C5.23286 26.1828 5.13397 27.14 5.25591 27.4782C5.3007 27.6018 5.37077 27.6363 5.42132 27.6435C5.52864 27.6578 5.68739 27.579 5.78672 27.3089L5.81511 27.2211C5.85945 27.0782 5.94193 26.8122 6.07718 26.599C6.24037 26.3419 6.49403 26.1649 6.79203 26.1C7.09535 26.0341 7.40576 26.0928 7.66563 26.2648C8.10775 26.5569 8.27803 27.1042 8.08912 27.626C7.99156 27.8961 7.8328 28.4126 7.86784 28.8367C7.93879 29.6954 8.46161 30.0403 8.93123 30.077C9.38798 30.0945 9.70727 29.8351 9.78798 29.6461C9.83543 29.5341 9.79551 29.4661 9.76935 29.4369" fill="#141F65"/>
<path fill-rule="evenodd" clip-rule="evenodd" d="M14.115 13.6651C15.605 11.9263 17.4387 10.4146 19.0816 9.56581C19.1384 9.53625 19.1987 9.59851 19.1681 9.65495C19.0377 9.89369 18.7863 10.4048 18.7069 10.7922C18.6945 10.8527 18.7597 10.8979 18.8102 10.8634C19.8324 10.1597 21.6102 9.40546 23.1698 9.30871C23.2368 9.30468 23.2691 9.39113 23.2159 9.43278C22.9787 9.61643 22.7193 9.87084 22.5299 10.1279C22.4975 10.1718 22.5281 10.2346 22.5822 10.235C23.6771 10.2431 25.2208 10.6301 26.2269 11.2003C26.2948 11.2388 26.2465 11.3718 26.1702 11.3543C24.6478 11.0018 22.1561 10.7344 19.5672 11.3723C17.2564 11.9416 15.4923 12.8208 14.2059 13.7659C14.1407 13.8138 14.0622 13.7265 14.115 13.6651ZM21.5348 30.5121L21.5352 30.513L21.5361 30.5148L21.5348 30.5121ZM27.6784 31.2444C27.7227 31.2256 27.7529 31.175 27.748 31.1244C27.7418 31.0621 27.6868 31.0169 27.6251 31.0231C27.6251 31.0231 24.446 31.4984 21.4426 30.388C21.7698 29.3139 22.6394 29.7018 23.9543 29.8088C26.3241 29.9517 28.4482 29.6019 30.018 29.1468C31.3781 28.7527 33.1647 27.9751 34.5523 26.8687C35.0201 27.907 35.1855 29.0501 35.1855 29.0501C35.1855 29.0501 35.5478 28.9847 35.8507 29.1728C36.1367 29.3506 36.3465 29.7202 36.2032 30.676C35.9114 32.4614 35.1602 33.9108 33.8973 35.2443C33.1284 36.0801 32.1953 36.8066 31.1275 37.3351C30.5603 37.6361 29.9568 37.8964 29.3187 38.1065C24.5578 39.6773 19.6843 37.9506 18.1136 34.2428C17.9881 33.9641 17.8821 33.6721 17.7987 33.3671C17.1296 30.9237 17.6976 27.9921 19.4741 26.1467C19.5836 26.0294 19.6954 25.89 19.6954 25.7158C19.6954 25.5702 19.6036 25.4166 19.5242 25.3073C18.9025 24.3967 16.7495 22.8451 17.1819 19.8423C17.4923 17.6852 19.3601 16.1658 21.1015 16.2559L21.5428 16.2814C22.2975 16.3266 22.9556 16.4243 23.5769 16.4507C24.6168 16.4964 25.5516 16.3436 26.6593 15.4115C27.0327 15.0971 27.3325 14.8243 27.8393 14.7379C27.8925 14.7285 28.0251 14.6805 28.2899 14.6931C28.5604 14.7079 28.8176 14.7827 29.0486 14.9381C29.9364 15.5347 30.0623 16.9801 30.1085 18.0372C30.1346 18.6406 30.2069 20.1008 30.2317 20.52C30.2881 21.4785 30.5377 21.6134 31.0424 21.7813C31.3262 21.8758 31.5896 21.9462 31.978 22.0563C33.1532 22.3896 33.8498 22.7278 34.2893 23.1622C34.5514 23.4337 34.6733 23.7221 34.711 23.9972C34.8494 25.0184 33.9261 26.2797 31.4814 27.4259C28.8091 28.6788 25.5671 28.9959 23.3272 28.7437L22.5423 28.6541C20.7508 28.4105 19.7286 30.749 20.804 32.3517C21.4971 33.3845 23.3849 34.0564 25.2735 34.0569C29.6038 34.0573 32.9323 32.1895 34.1705 30.5766L34.2693 30.4341C34.3305 30.3414 34.28 30.2904 34.2042 30.3428C33.1927 31.042 28.6996 33.8177 23.8935 32.9823C23.8935 32.9823 23.3095 32.8851 22.7765 32.6759C22.353 32.5093 21.4661 32.0972 21.3583 31.1786C25.2367 32.3902 27.6784 31.2444 27.6784 31.2444ZM6.37546 21.9345C5.02649 22.1992 3.8376 22.9714 3.11078 24.0384C2.6762 23.6724 1.8669 22.9638 1.72367 22.6875C0.563161 20.4613 2.99016 16.1336 4.68592 13.6893C8.87652 7.64918 15.4396 3.07733 18.4777 3.90686C18.9717 4.04796 20.6075 5.96368 20.6075 5.96368C20.6075 5.96368 17.5704 7.66576 14.754 10.0384C10.959 12.9897 8.09294 17.2793 6.37546 21.9345ZM8.64193 32.1492C8.43794 32.1846 8.22953 32.1985 8.01933 32.1931C5.98966 32.138 3.79769 30.2926 3.57995 28.1041C3.33916 25.6849 4.56308 23.8234 6.72978 23.3817C6.98875 23.3289 7.30183 23.2984 7.63929 23.3163C8.85346 23.3835 10.6423 24.325 11.0508 26.9964C11.4126 29.3623 10.8379 31.7712 8.64193 32.1492ZM36.1341 27.8653C36.1168 27.8031 36.0032 27.3852 35.8476 26.8813C35.6919 26.3769 35.531 26.0226 35.531 26.0226C36.1553 25.0789 36.1664 24.2346 36.0831 23.7566C35.9944 23.164 35.75 22.6592 35.2578 22.137C34.7656 21.6152 33.7585 21.0803 32.3434 20.679L31.6011 20.4707C31.5976 20.4398 31.5621 18.7028 31.5302 17.957C31.5067 17.4177 31.461 16.5761 31.2024 15.7475C30.8943 14.6254 30.3577 13.6436 29.6876 13.0156C31.5368 11.0798 32.6911 8.94679 32.688 7.11751C32.6827 3.59915 28.4047 2.53446 23.1325 4.73954L22.0155 5.21836C22.0106 5.21343 19.996 3.21708 19.9659 3.1902C13.9549 -2.10549 -4.8385 18.9944 1.1698 24.119L2.48286 25.2428C2.14229 26.1342 2.00836 27.1554 2.1179 28.2532C2.25803 29.6637 2.97819 31.0155 4.1458 32.0601C5.25398 33.0517 6.71115 33.6797 8.12487 33.6784C10.4632 39.121 15.8059 42.4597 22.07 42.6479C28.7896 42.8494 34.4303 39.6647 36.7939 33.944C36.9487 33.5427 37.6045 31.7335 37.6045 30.1363C37.6045 28.5314 36.7061 27.8653 36.1341 27.8653Z" fill="#141F65"/>
</svg>
