<svg width="72" height="72" viewBox="0 0 72 72" fill="none" xmlns="http://www.w3.org/2000/svg">
<circle cx="36" cy="36" r="36" fill="#F8FAFF"/>
<path d="M38.5981 50.6545L39.4113 49.2808L37.475 48.1347L36.6618 49.5085L38.5981 50.6545ZM32.5887 49.2808L33.4019 50.6545L35.338 49.5085L34.5249 48.1347L32.5887 49.2808ZM36.6618 49.5085C36.3728 49.9969 35.6272 49.9969 35.338 49.5085L33.4019 50.6545C34.5623 52.615 37.4377 52.615 38.5981 50.6545L36.6618 49.5085ZM33.75 22.125H38.25V19.875H33.75V22.125ZM49.875 33.75V35.25H52.125V33.75H49.875ZM22.125 35.25V33.75H19.875V35.25H22.125ZM19.875 35.25C19.875 36.9819 19.8744 38.3371 19.949 39.4302C20.0243 40.5334 20.1798 41.4516 20.5315 42.3006L22.6103 41.4396C22.3911 40.9104 22.2612 40.2657 22.1938 39.277C22.1256 38.2783 22.125 37.0126 22.125 35.25H19.875ZM29.7037 45.3624C27.8206 45.3298 26.8338 45.2101 26.0604 44.8897L25.1994 46.9684C26.4068 47.4685 27.7821 47.5795 29.665 47.6119L29.7037 45.3624ZM20.5315 42.3006C21.4069 44.4139 23.086 46.093 25.1994 46.9684L26.0604 44.8897C24.4983 44.2426 23.2573 43.0017 22.6103 41.4396L20.5315 42.3006ZM49.875 35.25C49.875 37.0126 49.8744 38.2783 49.8063 39.277C49.7388 40.2657 49.6089 40.9104 49.3898 41.4396L51.4684 42.3006C51.8202 41.4516 51.9758 40.5334 52.0511 39.4302C52.1256 38.3371 52.125 36.9819 52.125 35.25H49.875ZM42.335 47.6119C44.2179 47.5795 45.5932 47.4685 46.8006 46.9684L45.9396 44.8897C45.1662 45.2101 44.1794 45.3298 42.2963 45.3624L42.335 47.6119ZM49.3898 41.4396C48.7427 43.0017 47.5017 44.2426 45.9396 44.8897L46.8006 46.9684C48.9139 46.093 50.593 44.4139 51.4684 42.3006L49.3898 41.4396ZM38.25 22.125C40.7268 22.125 42.5055 22.1262 43.8928 22.2581C45.2635 22.3884 46.1357 22.6383 46.8309 23.0644L48.0066 21.146C46.8983 20.4669 45.6411 20.1642 44.1059 20.0182C42.5873 19.8738 40.6833 19.875 38.25 19.875V22.125ZM52.125 33.75C52.125 31.3167 52.1262 29.4127 51.9817 27.8942C51.8358 26.3588 51.5331 25.1017 50.8541 23.9934L48.9355 25.1691C49.3617 25.8644 49.6116 26.7365 49.742 28.1071C49.8738 29.4945 49.875 31.2731 49.875 33.75H52.125ZM46.8309 23.0644C47.6888 23.5901 48.4099 24.3113 48.9355 25.1691L50.8541 23.9934C50.1429 22.8329 49.1672 21.8572 48.0066 21.146L46.8309 23.0644ZM33.75 19.875C31.3167 19.875 29.4127 19.8738 27.8942 20.0182C26.3588 20.1642 25.1017 20.4669 23.9934 21.146L25.1691 23.0644C25.8644 22.6383 26.7365 22.3884 28.1071 22.2581C29.4945 22.1262 31.2731 22.125 33.75 22.125V19.875ZM22.125 33.75C22.125 31.2731 22.1262 29.4945 22.2581 28.1071C22.3884 26.7365 22.6383 25.8644 23.0644 25.1691L21.146 23.9934C20.4669 25.1017 20.1642 26.3588 20.0182 27.8942C19.8738 29.4127 19.875 31.3167 19.875 33.75H22.125ZM23.9934 21.146C22.8329 21.8572 21.8572 22.8329 21.146 23.9934L23.0644 25.1691C23.5901 24.3113 24.3113 23.5901 25.1691 23.0644L23.9934 21.146ZM34.5249 48.1347C34.2204 47.6202 33.9531 47.1661 33.6932 46.8094C33.4193 46.4338 33.1053 46.0956 32.6698 45.8422L31.5386 47.7873C31.6097 47.8285 31.7066 47.904 31.8748 48.1347C32.0568 48.3846 32.2625 48.7297 32.5887 49.2808L34.5249 48.1347ZM29.665 47.6119C30.3236 47.6233 30.7408 47.6317 31.0588 47.6668C31.356 47.6998 31.4712 47.748 31.5386 47.7873L32.6698 45.8422C32.2306 45.5868 31.7737 45.4822 31.3065 45.4305C30.8601 45.3811 30.3206 45.373 29.7037 45.3624L29.665 47.6119ZM39.4113 49.2808C39.7374 48.7297 39.9431 48.3846 40.1252 48.1347C40.2933 47.904 40.3902 47.8285 40.4613 47.7873L39.3302 45.8422C38.8947 46.0956 38.5806 46.4338 38.3068 46.8094C38.0469 47.1661 37.7796 47.6202 37.475 48.1347L39.4113 49.2808ZM42.2963 45.3624C41.6793 45.373 41.1399 45.3811 40.6935 45.4305C40.2262 45.4822 39.7694 45.5868 39.3302 45.8422L40.4613 47.7873C40.5288 47.748 40.644 47.6998 40.9411 47.6668C41.2591 47.6317 41.6763 47.6233 42.335 47.6119L42.2963 45.3624Z" fill="#0B55EB"/>
<g opacity="0.5">
<path d="M36 40.5V28.5Z" fill="#0B55EB"/>
<path d="M36 40.5V28.5" stroke="#0B55EB" stroke-width="3" stroke-linecap="round"/>
</g>
<g opacity="0.5">
<path d="M30 37.5V31.5Z" fill="#0B55EB"/>
<path d="M30 37.5V31.5" stroke="#0B55EB" stroke-width="3" stroke-linecap="round"/>
</g>
<g opacity="0.5">
<path d="M42 37.5V31.5Z" fill="#0B55EB"/>
<path d="M42 37.5V31.5" stroke="#0B55EB" stroke-width="3" stroke-linecap="round"/>
</g>
</svg>
