<svg width="72" height="72" viewBox="0 0 72 72" fill="none" xmlns="http://www.w3.org/2000/svg">
<circle cx="36" cy="36" r="36" fill="#F8FAFF"/>
<path d="M39.5715 31.5411C40.465 31.2289 41.4267 31.0591 42.4285 31.0591C43.4106 31.0591 44.3539 31.2223 45.2326 31.5227C48.5895 32.6706 51 35.822 51 39.5297C51 44.2079 47.1624 48.0003 42.4285 48.0003H27.4286C23.8782 48.0003 21 45.156 21 41.6474C21 38.1387 23.8782 35.2944 27.4286 35.2944C27.8547 35.2944 28.2712 35.3354 28.6742 35.4135C29.5209 35.5779 30.3079 35.9064 31 36.3642" stroke="#0B55EB" stroke-width="3" stroke-linecap="round"/>
<path opacity="0.5" d="M28.674 35.4134C28.3303 34.4967 28.1426 33.5054 28.1426 32.4706C28.1426 27.7924 31.9801 24 36.7139 24C41.1235 24 44.7554 27.2906 45.2323 31.5225" stroke="#0B55EB" stroke-width="3" stroke-linecap="round"/>
</svg>
