<svg width="72" height="72" viewBox="0 0 72 72" fill="none" xmlns="http://www.w3.org/2000/svg">
<circle cx="36" cy="36" r="36" fill="#F8FAFF"/>
<path d="M41.25 29.5L41.5074 29.7574C43.5074 31.7573 44.5074 32.7574 44.5074 34C44.5074 35.2426 43.5074 36.2426 41.5074 38.2426L41.25 38.5" stroke="#0B55EB" stroke-width="3" stroke-linecap="round"/>
<path d="M37.9409 26.7559L35.9997 34.0002L34.0586 41.2448" stroke="#0B55EB" stroke-width="3" stroke-linecap="round"/>
<path d="M30.7495 29.5L30.4922 29.7574C28.4922 31.7573 27.4922 32.7574 27.4922 34C27.4922 35.2426 28.4922 36.2426 30.4922 38.2426L30.7495 38.5" stroke="#0B55EB" stroke-width="3" stroke-linecap="round"/>
<path opacity="0.5" d="M21 34C21 26.9289 21 23.3934 23.1967 21.1967C25.3934 19 28.9289 19 36 19C43.071 19 46.6066 19 48.8032 21.1967C51 23.3934 51 26.9289 51 34C51 41.071 51 44.6066 48.8032 46.8032C46.6066 49 43.071 49 36 49C28.9289 49 25.3934 49 23.1967 46.8032C21 44.6066 21 41.071 21 34Z" stroke="#0B55EB" stroke-width="3"/>
</svg>
