<svg width="72" height="72" viewBox="0 0 72 72" fill="none" xmlns="http://www.w3.org/2000/svg">
<circle cx="36" cy="36" r="36" fill="#F8FAFF"/>
<path d="M43.27 30.059L43.9653 29.3638C45.117 28.2121 46.9845 28.2121 48.1362 29.3638C49.288 30.5156 49.288 32.383 48.1362 33.5347L47.4411 34.23M43.27 30.059C43.27 30.059 43.357 31.5362 44.6604 32.8396C45.9639 34.143 47.4411 34.23 47.4411 34.23M43.27 30.059L36.8791 36.4498C36.4462 36.8827 36.2298 37.0992 36.0436 37.3378C35.8242 37.6194 35.6359 37.924 35.4823 38.2462C35.3521 38.5195 35.2552 38.8098 35.0617 39.3906L34.4419 41.25L34.2414 41.8515M47.4411 34.23L41.0502 40.6209C40.6173 41.0538 40.4008 41.2702 40.1622 41.4564C39.8806 41.6758 39.576 41.8641 39.2538 42.0177C38.9805 42.1479 38.6902 42.2448 38.1094 42.4383L36.25 43.0581L35.6485 43.2586M34.2414 41.8515L34.0408 42.4531C33.9456 42.7389 34.02 43.054 34.233 43.267C34.446 43.48 34.7611 43.5544 35.0469 43.4592L35.6485 43.2586M34.2414 41.8515L35.6485 43.2586" stroke="#0B55EB" stroke-width="3"/>
<path d="M28 37.5H31.75" stroke="#0B55EB" stroke-width="3" stroke-linecap="round"/>
<path d="M28 31.5H37.75" stroke="#0B55EB" stroke-width="3" stroke-linecap="round"/>
<path d="M28 43.5H30.25" stroke="#0B55EB" stroke-width="3" stroke-linecap="round"/>
<path opacity="0.5" d="M20.5 33C20.5 27.3431 20.5 24.5147 22.2574 22.7574C24.0147 21 26.8431 21 32.5 21H35.5C41.1568 21 43.9853 21 45.7426 22.7574C47.5 24.5147 47.5 27.3431 47.5 33V39C47.5 44.6568 47.5 47.4853 45.7426 49.2426C43.9853 51 41.1568 51 35.5 51H32.5C26.8431 51 24.0147 51 22.2574 49.2426C20.5 47.4853 20.5 44.6568 20.5 39V33Z" stroke="#0B55EB" stroke-width="3"/>
</svg>
