<svg width="72" height="72" viewBox="0 0 72 72" fill="none" xmlns="http://www.w3.org/2000/svg">
<circle cx="36" cy="36" r="36" fill="#F8FAFF"/>
<path opacity="0.5" d="M28.5 44.9974C25.2375 44.9793 23.4706 44.8345 22.318 43.6819C21 42.3639 21 40.2426 21 36V30C21 25.7574 21 23.636 22.318 22.318C23.636 21 25.7574 21 30 21H42C46.2426 21 48.3639 21 49.6819 22.318C51 23.636 51 25.7574 51 30V36C51 40.2426 51 42.3639 49.6819 43.6819C48.5872 44.7768 46.9381 44.9622 43.9795 44.9935L42.75 44.9974" stroke="#0B55EB" stroke-width="3"/>
<path opacity="0.5" d="M31.5 27H40.5" stroke="#0B55EB" stroke-width="3" stroke-linecap="round"/>
<path opacity="0.5" d="M28.5 32.25H43.5" stroke="#0B55EB" stroke-width="3" stroke-linecap="round"/>
<path d="M34.3364 38.918C35.2954 38.1009 36.7057 38.1009 37.6645 38.918C38.0753 39.2682 38.5862 39.4799 39.1244 39.5228C40.3802 39.623 41.3774 40.6202 41.4776 41.876C41.5207 42.4142 41.7322 42.9251 42.0824 43.3359C42.8995 44.2949 42.8995 45.7052 42.0824 46.664C41.7322 47.0748 41.5207 47.5857 41.4776 48.1239C41.3774 49.3797 40.3802 50.3769 39.1244 50.4771C38.5862 50.5202 38.0753 50.7317 37.6645 51.0819C36.7057 51.899 35.2954 51.899 34.3364 51.0819C33.9256 50.7317 33.4147 50.5202 32.8765 50.4771C31.6207 50.3769 30.6234 49.3797 30.5232 48.1239C30.4803 47.5857 30.2687 47.0748 29.9185 46.664C29.1014 45.7052 29.1014 44.2949 29.9185 43.3359C30.2687 42.9251 30.4803 42.4142 30.5232 41.876C30.6235 40.6202 31.6207 39.623 32.8765 39.5228C33.4147 39.4799 33.9256 39.2682 34.3364 38.918Z" stroke="#0B55EB" stroke-width="3"/>
<path d="M33.75 45.3L35.0356 46.5L38.25 43.5" stroke="#0B55EB" stroke-width="3" stroke-linecap="round" stroke-linejoin="round"/>
</svg>
