<svg width="71" height="43" viewBox="0 0 71 43" fill="none" xmlns="http://www.w3.org/2000/svg">
<g clip-path="url(#clip0_39_1325)">
<path fill-rule="evenodd" clip-rule="evenodd" d="M70.3839 23.1277C70.3839 18.0757 67.9595 14.0893 63.3259 14.0893C58.6728 14.0893 55.8574 18.0757 55.8574 23.0883C55.8574 29.0284 59.1811 32.0281 63.9516 32.0281C66.2781 32.0281 68.0377 31.4952 69.3672 30.7453V26.7984C68.0377 27.4694 66.5127 27.8838 64.5772 27.8838C62.6807 27.8838 60.9994 27.2128 60.7843 24.8841H70.3448C70.3448 24.6276 70.3839 23.6014 70.3839 23.1277ZM60.7256 21.2529C60.7256 19.0229 62.0747 18.0954 63.3064 18.0954C64.499 18.0954 65.7698 19.0229 65.7698 21.2529H60.7256Z" fill="#141F65"/>
<path fill-rule="evenodd" clip-rule="evenodd" d="M48.3106 14.0893C46.3946 14.0893 45.1629 14.9971 44.4786 15.6286L44.2244 14.405H39.9232V37.4156L44.8109 36.3696L44.8305 30.7848C45.5343 31.2979 46.5705 32.028 48.291 32.028C51.7907 32.028 54.9775 29.1862 54.9775 22.9304C54.9579 17.2073 51.732 14.0893 48.3106 14.0893ZM47.1375 27.6864C45.984 27.6864 45.2997 27.272 44.8305 26.7589L44.8109 19.4373C45.3193 18.865 46.0231 18.4704 47.1375 18.4704C48.9167 18.4704 50.1484 20.4833 50.1484 23.0685C50.1484 25.713 48.9362 27.6864 47.1375 27.6864Z" fill="#141F65"/>
<path fill-rule="evenodd" clip-rule="evenodd" d="M33.1975 12.9249L38.1048 11.8592V7.85309L33.1975 8.89902V12.9249Z" fill="#141F65"/>
<path d="M38.1048 14.4247H33.1975V31.6925H38.1048V14.4247Z" fill="#141F65"/>
<path fill-rule="evenodd" clip-rule="evenodd" d="M27.9381 15.8851L27.6253 14.4247H23.4023V31.6925H28.29V19.9899C29.4435 18.4703 31.3986 18.7466 32.0047 18.9637V14.4247C31.3791 14.1879 29.0916 13.7537 27.9381 15.8851Z" fill="#141F65"/>
<path fill-rule="evenodd" clip-rule="evenodd" d="M18.1627 10.1423L13.3923 11.1685L13.3727 26.9759C13.3727 29.8966 15.5429 32.0477 18.4364 32.0477C20.0396 32.0477 21.2127 31.7517 21.8579 31.3965V27.3903C21.2322 27.6469 18.1432 28.5547 18.1432 25.634V18.6282H21.8579V14.4247H18.1432L18.1627 10.1423Z" fill="#141F65"/>
<path fill-rule="evenodd" clip-rule="evenodd" d="M4.94641 19.4374C4.94641 18.6677 5.57205 18.3717 6.60825 18.3717C8.09413 18.3717 9.97103 18.8256 11.4569 19.6347V14.9971C9.83417 14.3458 8.23099 14.0893 6.60825 14.0893C2.63939 14.0893 0 16.1812 0 19.6742C0 25.1209 7.4294 24.2526 7.4294 26.601C7.4294 27.5088 6.64736 27.8048 5.5525 27.8048C3.92976 27.8048 1.85735 27.1339 0.215061 26.2261V30.9229C2.03331 31.7123 3.87111 32.0478 5.5525 32.0478C9.61911 32.0478 12.4149 30.0151 12.4149 26.4826C12.3954 20.6017 4.94641 21.6476 4.94641 19.4374Z" fill="#141F65"/>
</g>
<defs>
<clipPath id="clip0_39_1325">
<rect width="71" height="43" fill="white"/>
</clipPath>
</defs>
</svg>
