<svg width="88" height="43" viewBox="0 0 88 43" fill="none" xmlns="http://www.w3.org/2000/svg">
<g clip-path="url(#clip0_39_1312)">
<path fill-rule="evenodd" clip-rule="evenodd" d="M71.5739 18.4516C71.9099 19.0299 72.0198 19.688 72.0561 20.4278L72.1038 21.4138V28.3088L72.1526 29.2959C72.2501 30.9079 73.4417 32.0998 75.07 32.2012L76.0542 32.2499V21.4138L76.103 20.4278C76.1434 19.6963 76.2523 19.0258 76.5935 18.4433C76.9412 17.8458 77.4404 17.3501 78.0408 17.0059C78.6413 16.6617 79.3219 16.4812 80.0144 16.4825C80.707 16.4837 81.3869 16.6667 81.9861 17.0131C82.5853 17.3594 83.0827 17.8569 83.4282 18.4557C83.7642 19.0341 83.8689 19.7045 83.9094 20.4278L83.9581 21.4107V28.3088L84.0069 29.2959C84.1085 30.9162 85.2908 32.1081 86.9243 32.2012L87.9085 32.2499V20.4278C87.9085 18.3373 87.0763 16.3324 85.5949 14.8539C84.1135 13.3754 82.1042 12.5444 80.0088 12.5436C78.8872 12.5424 77.7784 12.78 76.7563 13.2406C75.7341 13.7011 74.8223 14.3739 74.0816 15.2141C73.3406 14.3742 72.4287 13.7016 71.4067 13.2409C70.3847 12.7803 69.276 12.5422 68.1545 12.5426C66.5137 12.5426 64.9913 13.0392 63.7301 13.897C62.9606 13.0402 61.2389 12.5426 60.2506 12.5426V32.2499L61.2389 32.2012C62.8921 32.0926 64.0869 30.9327 64.1512 29.2959L64.2041 28.3088V21.4138L64.2528 20.4278C64.2943 19.6838 64.398 19.0299 64.7351 18.4474C65.0831 17.8503 65.582 17.3547 66.182 17.0101C66.782 16.6655 67.4621 16.484 68.1545 16.4836C68.8473 16.4838 69.528 16.6657 70.1281 17.0111C70.7283 17.3565 71.2269 17.8532 71.5739 18.4516V18.4516ZM3.9504 32.2023L4.93878 32.2499H19.7541L19.7053 31.2669C19.5715 29.6466 18.4214 28.463 16.792 28.3575L15.8037 28.3088H6.91553L18.7657 16.4826L18.7169 15.5007C18.6402 13.8638 17.4413 12.6812 15.8037 12.5912L14.8153 12.5467L0 12.5426L0.0487447 13.5286C0.178385 15.1334 1.34515 16.3419 2.96098 16.435L3.9504 16.4836H12.8385L0.988377 28.3099L1.03712 29.2959C1.13461 30.9203 2.30967 32.0967 3.9504 32.2012V32.2023ZM56.3728 15.4272C57.2901 16.3422 58.0178 17.4285 58.5143 18.6241C59.0107 19.8196 59.2663 21.1011 59.2663 22.3952C59.2663 23.6893 59.0107 24.9707 58.5143 26.1663C58.0178 27.3619 57.2901 28.4482 56.3728 29.3631C54.5194 31.2106 52.0067 32.2484 49.3867 32.2484C46.7668 32.2484 44.254 31.2106 42.4007 29.3631C38.5436 25.5152 38.5436 19.2751 42.4007 15.4272C43.3172 14.5126 44.4053 13.7869 45.6029 13.2918C46.8005 12.7967 48.0841 12.5417 49.3805 12.5415C50.679 12.5406 51.9649 12.7951 53.1647 13.2905C54.3645 13.7858 55.4546 14.5122 56.3728 15.4283V15.4272ZM53.5777 18.2177C54.6887 19.3269 55.3128 20.8308 55.3128 22.3988C55.3128 23.9668 54.6887 25.4707 53.5777 26.5799C52.4659 27.6882 50.9585 28.3108 49.3867 28.3108C47.815 28.3108 46.3075 27.6882 45.1957 26.5799C44.0847 25.4707 43.4607 23.9668 43.4607 22.3988C43.4607 20.8308 44.0847 19.3269 45.1957 18.2177C46.3075 17.1094 47.815 16.4868 49.3867 16.4868C50.9585 16.4868 52.4659 17.1094 53.5777 18.2177V18.2177ZM28.6505 12.5415C29.9469 12.5419 31.2306 12.797 32.4282 13.2923C33.6258 13.7876 34.7139 14.5134 35.6303 15.4283C39.4884 19.2751 39.4884 25.5163 35.6303 29.3631C33.777 31.2106 31.2642 32.2484 28.6443 32.2484C26.0243 32.2484 23.5116 31.2106 21.6582 29.3631C17.8012 25.5152 17.8012 19.2751 21.6582 15.4272C22.5747 14.5126 23.6628 13.7869 24.8604 13.2918C26.058 12.7967 27.3417 12.5417 28.638 12.5415H28.6505ZM32.8353 18.2156C33.9466 19.3249 34.5708 20.829 34.5708 22.3973C34.5708 23.9655 33.9466 25.4696 32.8353 26.5789C31.7235 27.6872 30.216 28.3098 28.6443 28.3098C27.0725 28.3098 25.5651 27.6872 24.4533 26.5789C23.3423 25.4697 22.7182 23.9658 22.7182 22.3978C22.7182 20.8297 23.3423 19.3259 24.4533 18.2167C25.5651 17.1083 27.0725 16.4857 28.6443 16.4857C30.216 16.4857 31.7235 17.1083 32.8353 18.2167V18.2156Z" fill="#141F65"/>
</g>
<defs>
<clipPath id="clip0_39_1312">
<rect width="88" height="43" fill="white"/>
</clipPath>
</defs>
</svg>
